<svg xmlns="http://www.w3.org/2000/svg" width="189" height="218"><rect x="0" y="0" width="100%" height="100%" fill="rgb(71, 149, 58)"  /><rect x="-20.0" y="-20.0" width="40.0" height="40.0" stroke="#000" stroke-opacity="0.02" fill="#222" fill-opacity="0.15" stroke-width="1"  /><rect x="169.28203230275508" y="-20.0" width="40.0" height="40.0" stroke="#000" stroke-opacity="0.02" fill="#222" fill-opacity="0.15" stroke-width="1"  /><rect x="-20.0" y="198.56406460551017" width="40.0" height="40.0" stroke="#000" stroke-opacity="0.02" fill="#222" fill-opacity="0.15" stroke-width="1"  /><rect x="169.28203230275508" y="198.56406460551017" width="40.0" height="40.0" stroke="#000" stroke-opacity="0.02" fill="#222" fill-opacity="0.15" stroke-width="1"  /><rect x="74.64101615137754" y="34.64101615137754" width="40.0" height="40.0" stroke="#000" stroke-opacity="0.02" fill="#222" fill-opacity="0.06333333333333334" stroke-width="1"  /><rect x="-20.0" y="89.28203230275508" width="40.0" height="40.0" stroke="#000" stroke-opacity="0.02" fill="#222" fill-opacity="0.046" stroke-width="1"  /><rect x="169.28203230275508" y="89.28203230275508" width="40.0" height="40.0" stroke="#000" stroke-opacity="0.02" fill="#222" fill-opacity="0.046" stroke-width="1"  /><rect x="74.64101615137754" y="143.92304845413264" width="40.0" height="40.0" stroke="#000" stroke-opacity="0.02" fill="#222" fill-opacity="0.08066666666666666" stroke-width="1"  /><polyline points="0, 0, 34.64101615137754, 20.0, 0, 40.0, 0, 0" stroke="#000" stroke-opacity="0.02" fill="#222" fill-opacity="0.15" stroke-width="1" transform="translate(20.0, -20.0) rotate(0, 20.0, 17.32050807568877)"  /><polyline points="0, 0, 34.64101615137754, 20.0, 0, 40.0, 0, 0" stroke="#000" stroke-opacity="0.02" fill="#222" fill-opacity="0.15" stroke-width="1" transform="translate(20.0, 238.56406460551017) rotate(0, 20.0, 17.32050807568877) scale(1, -1)"  /><polyline points="0, 0, 34.64101615137754, 20.0, 0, 40.0, 0, 0" stroke="#000" stroke-opacity="0.02" fill="#ddd" fill-opacity="0.14133333333333334" stroke-width="1" transform="translate(169.28203230275508, -20.0) rotate(0, 20.0, 17.32050807568877) scale(-1, 1)"  /><polyline points="0, 0, 34.64101615137754, 20.0, 0, 40.0, 0, 0" stroke="#000" stroke-opacity="0.02" fill="#ddd" fill-opacity="0.14133333333333334" stroke-width="1" transform="translate(169.28203230275508, 238.56406460551017) rotate(0, 20.0, 17.32050807568877) scale(-1, -1)"  /><polyline points="0, 0, 34.64101615137754, 20.0, 0, 40.0, 0, 0" stroke="#000" stroke-opacity="0.02" fill="#222" fill-opacity="0.046" stroke-width="1" transform="translate(114.64101615137754, 34.64101615137754)"  /><polyline points="0, 0, 34.64101615137754, 20.0, 0, 40.0, 0, 0" stroke="#000" stroke-opacity="0.02" fill="#222" fill-opacity="0.098" stroke-width="1" transform="translate(74.64101615137754, 34.64101615137754) scale(-1, 1)"  /><polyline points="0, 0, 34.64101615137754, 20.0, 0, 40.0, 0, 0" stroke="#000" stroke-opacity="0.02" fill="#ddd" fill-opacity="0.07200000000000001" stroke-width="1" transform="translate(114.64101615137754, 183.92304845413264) scale(1, -1)"  /><polyline points="0, 0, 34.64101615137754, 20.0, 0, 40.0, 0, 0" stroke="#000" stroke-opacity="0.02" fill="#ddd" fill-opacity="0.03733333333333333" stroke-width="1" transform="translate(74.64101615137754, 183.92304845413264) scale(-1, -1)"  /><polyline points="0, 0, 34.64101615137754, 20.0, 0, 40.0, 0, 0" stroke="#000" stroke-opacity="0.02" fill="#222" fill-opacity="0.028666666666666667" stroke-width="1" transform="translate(20.0, 89.28203230275508)"  /><polyline points="0, 0, 34.64101615137754, 20.0, 0, 40.0, 0, 0" stroke="#000" stroke-opacity="0.02" fill="#222" fill-opacity="0.028666666666666667" stroke-width="1" transform="translate(169.28203230275508, 89.28203230275508) scale(-1, 1)"  /><rect x="0" y="0" width="40.0" height="40.0" stroke="#000" stroke-opacity="0.02" fill="#ddd" fill-opacity="0.12400000000000001" stroke-width="1" transform="translate(20.0, 20.0) rotate(-30, 0, 0)"  /><rect x="0" y="0" width="40.0" height="40.0" stroke="#000" stroke-opacity="0.02" fill="#222" fill-opacity="0.15" stroke-width="1" transform="scale(-1, 1) translate(-169.28203230275508, 20.0) rotate(-30, 0, 0)"  /><rect x="0" y="0" width="40.0" height="40.0" stroke="#000" stroke-opacity="0.02" fill="#222" fill-opacity="0.11533333333333334" stroke-width="1" transform="translate(20.0, 49.282032302755084) rotate(30, 0, 40.0)"  /><rect x="0" y="0" width="40.0" height="40.0" stroke="#000" stroke-opacity="0.02" fill="#222" fill-opacity="0.028666666666666667" stroke-width="1" transform="scale(-1, 1) translate(-169.28203230275508, 49.282032302755084) rotate(30, 0, 40.0)"  /><rect x="0" y="0" width="40.0" height="40.0" stroke="#000" stroke-opacity="0.02" fill="#ddd" fill-opacity="0.07200000000000001" stroke-width="1" transform="scale(1, -1) translate(20.0, -169.28203230275508) rotate(30, 0, 40.0)"  /><rect x="0" y="0" width="40.0" height="40.0" stroke="#000" stroke-opacity="0.02" fill="#ddd" fill-opacity="0.03733333333333333" stroke-width="1" transform="scale(-1, -1) translate(-169.28203230275508, -169.28203230275508) rotate(30, 0, 40.0)"  /><rect x="0" y="0" width="40.0" height="40.0" stroke="#000" stroke-opacity="0.02" fill="#222" fill-opacity="0.13266666666666665" stroke-width="1" transform="scale(1, -1) translate(20.0, -198.56406460551017) rotate(-30, 0, 0)"  /><rect x="0" y="0" width="40.0" height="40.0" stroke="#000" stroke-opacity="0.02" fill="#ddd" fill-opacity="0.14133333333333334" stroke-width="1" transform="scale(-1, -1) translate(-169.28203230275508, -198.56406460551017) rotate(-30, 0, 0)"  /></svg>