<svg xmlns="http://www.w3.org/2000/svg" width="260" height="260"><rect x="0" y="0" width="100%" height="100%" fill="rgb(63, 144, 112)"  /><polyline points="14.3,0,29.033333333333335,0,43.333333333333336,14.3,43.333333333333336,29.033333333333335,29.033333333333335,43.333333333333336,14.3,43.333333333333336,0,29.033333333333335,0,14.3,14.3,0" fill="#ddd" fill-opacity="0.10666666666666667" stroke="#000" stroke-opacity="0.02" transform="translate(0.0, 0.0)"  /><polyline points="14.3,0,29.033333333333335,0,43.333333333333336,14.3,43.333333333333336,29.033333333333335,29.033333333333335,43.333333333333336,14.3,43.333333333333336,0,29.033333333333335,0,14.3,14.3,0" fill="#ddd" fill-opacity="0.10666666666666667" stroke="#000" stroke-opacity="0.02" transform="translate(43.333333333333336, 0.0)"  /><polyline points="14.3,0,29.033333333333335,0,43.333333333333336,14.3,43.333333333333336,29.033333333333335,29.033333333333335,43.333333333333336,14.3,43.333333333333336,0,29.033333333333335,0,14.3,14.3,0" fill="#222" fill-opacity="0.06333333333333334" stroke="#000" stroke-opacity="0.02" transform="translate(86.66666666666667, 0.0)"  /><polyline points="14.3,0,29.033333333333335,0,43.333333333333336,14.3,43.333333333333336,29.033333333333335,29.033333333333335,43.333333333333336,14.3,43.333333333333336,0,29.033333333333335,0,14.3,14.3,0" fill="#ddd" fill-opacity="0.14133333333333334" stroke="#000" stroke-opacity="0.02" transform="translate(130.0, 0.0)"  /><polyline points="14.3,0,29.033333333333335,0,43.333333333333336,14.3,43.333333333333336,29.033333333333335,29.033333333333335,43.333333333333336,14.3,43.333333333333336,0,29.033333333333335,0,14.3,14.3,0" fill="#ddd" fill-opacity="0.14133333333333334" stroke="#000" stroke-opacity="0.02" transform="translate(173.33333333333334, 0.0)"  /><polyline points="14.3,0,29.033333333333335,0,43.333333333333336,14.3,43.333333333333336,29.033333333333335,29.033333333333335,43.333333333333336,14.3,43.333333333333336,0,29.033333333333335,0,14.3,14.3,0" fill="#222" fill-opacity="0.13266666666666665" stroke="#000" stroke-opacity="0.02" transform="translate(216.66666666666669, 0.0)"  /><polyline points="14.3,0,29.033333333333335,0,43.333333333333336,14.3,43.333333333333336,29.033333333333335,29.033333333333335,43.333333333333336,14.3,43.333333333333336,0,29.033333333333335,0,14.3,14.3,0" fill="#222" fill-opacity="0.15" stroke="#000" stroke-opacity="0.02" transform="translate(0.0, 43.333333333333336)"  /><polyline points="14.3,0,29.033333333333335,0,43.333333333333336,14.3,43.333333333333336,29.033333333333335,29.033333333333335,43.333333333333336,14.3,43.333333333333336,0,29.033333333333335,0,14.3,14.3,0" fill="#222" fill-opacity="0.08066666666666666" stroke="#000" stroke-opacity="0.02" transform="translate(43.333333333333336, 43.333333333333336)"  /><polyline points="14.3,0,29.033333333333335,0,43.333333333333336,14.3,43.333333333333336,29.033333333333335,29.033333333333335,43.333333333333336,14.3,43.333333333333336,0,29.033333333333335,0,14.3,14.3,0" fill="#222" fill-opacity="0.08066666666666666" stroke="#000" stroke-opacity="0.02" transform="translate(86.66666666666667, 43.333333333333336)"  /><polyline points="14.3,0,29.033333333333335,0,43.333333333333336,14.3,43.333333333333336,29.033333333333335,29.033333333333335,43.333333333333336,14.3,43.333333333333336,0,29.033333333333335,0,14.3,14.3,0" fill="#ddd" fill-opacity="0.14133333333333334" stroke="#000" stroke-opacity="0.02" transform="translate(130.0, 43.333333333333336)"  /><polyline points="14.3,0,29.033333333333335,0,43.333333333333336,14.3,43.333333333333336,29.033333333333335,29.033333333333335,43.333333333333336,14.3,43.333333333333336,0,29.033333333333335,0,14.3,14.3,0" fill="#222" fill-opacity="0.06333333333333334" stroke="#000" stroke-opacity="0.02" transform="translate(173.33333333333334, 43.333333333333336)"  /><polyline points="14.3,0,29.033333333333335,0,43.333333333333336,14.3,43.333333333333336,29.033333333333335,29.033333333333335,43.333333333333336,14.3,43.333333333333336,0,29.033333333333335,0,14.3,14.3,0" fill="#222" fill-opacity="0.13266666666666665" stroke="#000" stroke-opacity="0.02" transform="translate(216.66666666666669, 43.333333333333336)"  /><polyline points="14.3,0,29.033333333333335,0,43.333333333333336,14.3,43.333333333333336,29.033333333333335,29.033333333333335,43.333333333333336,14.3,43.333333333333336,0,29.033333333333335,0,14.3,14.3,0" fill="#222" fill-opacity="0.13266666666666665" stroke="#000" stroke-opacity="0.02" transform="translate(0.0, 86.66666666666667)"  /><polyline points="14.3,0,29.033333333333335,0,43.333333333333336,14.3,43.333333333333336,29.033333333333335,29.033333333333335,43.333333333333336,14.3,43.333333333333336,0,29.033333333333335,0,14.3,14.3,0" fill="#ddd" fill-opacity="0.10666666666666667" stroke="#000" stroke-opacity="0.02" transform="translate(43.333333333333336, 86.66666666666667)"  /><polyline points="14.3,0,29.033333333333335,0,43.333333333333336,14.3,43.333333333333336,29.033333333333335,29.033333333333335,43.333333333333336,14.3,43.333333333333336,0,29.033333333333335,0,14.3,14.3,0" fill="#222" fill-opacity="0.098" stroke="#000" stroke-opacity="0.02" transform="translate(86.66666666666667, 86.66666666666667)"  /><polyline points="14.3,0,29.033333333333335,0,43.333333333333336,14.3,43.333333333333336,29.033333333333335,29.033333333333335,43.333333333333336,14.3,43.333333333333336,0,29.033333333333335,0,14.3,14.3,0" fill="#222" fill-opacity="0.028666666666666667" stroke="#000" stroke-opacity="0.02" transform="translate(130.0, 86.66666666666667)"  /><polyline points="14.3,0,29.033333333333335,0,43.333333333333336,14.3,43.333333333333336,29.033333333333335,29.033333333333335,43.333333333333336,14.3,43.333333333333336,0,29.033333333333335,0,14.3,14.3,0" fill="#222" fill-opacity="0.08066666666666666" stroke="#000" stroke-opacity="0.02" transform="translate(173.33333333333334, 86.66666666666667)"  /><polyline points="14.3,0,29.033333333333335,0,43.333333333333336,14.3,43.333333333333336,29.033333333333335,29.033333333333335,43.333333333333336,14.3,43.333333333333336,0,29.033333333333335,0,14.3,14.3,0" fill="#222" fill-opacity="0.046" stroke="#000" stroke-opacity="0.02" transform="translate(216.66666666666669, 86.66666666666667)"  /><polyline points="14.3,0,29.033333333333335,0,43.333333333333336,14.3,43.333333333333336,29.033333333333335,29.033333333333335,43.333333333333336,14.3,43.333333333333336,0,29.033333333333335,0,14.3,14.3,0" fill="#ddd" fill-opacity="0.08933333333333333" stroke="#000" stroke-opacity="0.02" transform="translate(0.0, 130.0)"  /><polyline points="14.3,0,29.033333333333335,0,43.333333333333336,14.3,43.333333333333336,29.033333333333335,29.033333333333335,43.333333333333336,14.3,43.333333333333336,0,29.033333333333335,0,14.3,14.3,0" fill="#ddd" fill-opacity="0.12400000000000001" stroke="#000" stroke-opacity="0.02" transform="translate(43.333333333333336, 130.0)"  /><polyline points="14.3,0,29.033333333333335,0,43.333333333333336,14.3,43.333333333333336,29.033333333333335,29.033333333333335,43.333333333333336,14.3,43.333333333333336,0,29.033333333333335,0,14.3,14.3,0" fill="#ddd" fill-opacity="0.07200000000000001" stroke="#000" stroke-opacity="0.02" transform="translate(86.66666666666667, 130.0)"  /><polyline points="14.3,0,29.033333333333335,0,43.333333333333336,14.3,43.333333333333336,29.033333333333335,29.033333333333335,43.333333333333336,14.3,43.333333333333336,0,29.033333333333335,0,14.3,14.3,0" fill="#222" fill-opacity="0.06333333333333334" stroke="#000" stroke-opacity="0.02" transform="translate(130.0, 130.0)"  /><polyline points="14.3,0,29.033333333333335,0,43.333333333333336,14.3,43.333333333333336,29.033333333333335,29.033333333333335,43.333333333333336,14.3,43.333333333333336,0,29.033333333333335,0,14.3,14.3,0" fill="#222" fill-opacity="0.08066666666666666" stroke="#000" stroke-opacity="0.02" transform="translate(173.33333333333334, 130.0)"  /><polyline points="14.3,0,29.033333333333335,0,43.333333333333336,14.3,43.333333333333336,29.033333333333335,29.033333333333335,43.333333333333336,14.3,43.333333333333336,0,29.033333333333335,0,14.3,14.3,0" fill="#222" fill-opacity="0.11533333333333334" stroke="#000" stroke-opacity="0.02" transform="translate(216.66666666666669, 130.0)"  /><polyline points="14.3,0,29.033333333333335,0,43.333333333333336,14.3,43.333333333333336,29.033333333333335,29.033333333333335,43.333333333333336,14.3,43.333333333333336,0,29.033333333333335,0,14.3,14.3,0" fill="#ddd" fill-opacity="0.02" stroke="#000" stroke-opacity="0.02" transform="translate(0.0, 173.33333333333334)"  /><polyline points="14.3,0,29.033333333333335,0,43.333333333333336,14.3,43.333333333333336,29.033333333333335,29.033333333333335,43.333333333333336,14.3,43.333333333333336,0,29.033333333333335,0,14.3,14.3,0" fill="#222" fill-opacity="0.15" stroke="#000" stroke-opacity="0.02" transform="translate(43.333333333333336, 173.33333333333334)"  /><polyline points="14.3,0,29.033333333333335,0,43.333333333333336,14.3,43.333333333333336,29.033333333333335,29.033333333333335,43.333333333333336,14.3,43.333333333333336,0,29.033333333333335,0,14.3,14.3,0" fill="#ddd" fill-opacity="0.08933333333333333" stroke="#000" stroke-opacity="0.02" transform="translate(86.66666666666667, 173.33333333333334)"  /><polyline points="14.3,0,29.033333333333335,0,43.333333333333336,14.3,43.333333333333336,29.033333333333335,29.033333333333335,43.333333333333336,14.3,43.333333333333336,0,29.033333333333335,0,14.3,14.3,0" fill="#ddd" fill-opacity="0.12400000000000001" stroke="#000" stroke-opacity="0.02" transform="translate(130.0, 173.33333333333334)"  /><polyline points="14.3,0,29.033333333333335,0,43.333333333333336,14.3,43.333333333333336,29.033333333333335,29.033333333333335,43.333333333333336,14.3,43.333333333333336,0,29.033333333333335,0,14.3,14.3,0" fill="#222" fill-opacity="0.098" stroke="#000" stroke-opacity="0.02" transform="translate(173.33333333333334, 173.33333333333334)"  /><polyline points="14.3,0,29.033333333333335,0,43.333333333333336,14.3,43.333333333333336,29.033333333333335,29.033333333333335,43.333333333333336,14.3,43.333333333333336,0,29.033333333333335,0,14.3,14.3,0" fill="#ddd" fill-opacity="0.05466666666666667" stroke="#000" stroke-opacity="0.02" transform="translate(216.66666666666669, 173.33333333333334)"  /><polyline points="14.3,0,29.033333333333335,0,43.333333333333336,14.3,43.333333333333336,29.033333333333335,29.033333333333335,43.333333333333336,14.3,43.333333333333336,0,29.033333333333335,0,14.3,14.3,0" fill="#ddd" fill-opacity="0.12400000000000001" stroke="#000" stroke-opacity="0.02" transform="translate(0.0, 216.66666666666669)"  /><polyline points="14.3,0,29.033333333333335,0,43.333333333333336,14.3,43.333333333333336,29.033333333333335,29.033333333333335,43.333333333333336,14.3,43.333333333333336,0,29.033333333333335,0,14.3,14.3,0" fill="#222" fill-opacity="0.06333333333333334" stroke="#000" stroke-opacity="0.02" transform="translate(43.333333333333336, 216.66666666666669)"  /><polyline points="14.3,0,29.033333333333335,0,43.333333333333336,14.3,43.333333333333336,29.033333333333335,29.033333333333335,43.333333333333336,14.3,43.333333333333336,0,29.033333333333335,0,14.3,14.3,0" fill="#ddd" fill-opacity="0.14133333333333334" stroke="#000" stroke-opacity="0.02" transform="translate(86.66666666666667, 216.66666666666669)"  /><polyline points="14.3,0,29.033333333333335,0,43.333333333333336,14.3,43.333333333333336,29.033333333333335,29.033333333333335,43.333333333333336,14.3,43.333333333333336,0,29.033333333333335,0,14.3,14.3,0" fill="#222" fill-opacity="0.08066666666666666" stroke="#000" stroke-opacity="0.02" transform="translate(130.0, 216.66666666666669)"  /><polyline points="14.3,0,29.033333333333335,0,43.333333333333336,14.3,43.333333333333336,29.033333333333335,29.033333333333335,43.333333333333336,14.3,43.333333333333336,0,29.033333333333335,0,14.3,14.3,0" fill="#222" fill-opacity="0.08066666666666666" stroke="#000" stroke-opacity="0.02" transform="translate(173.33333333333334, 216.66666666666669)"  /><polyline points="14.3,0,29.033333333333335,0,43.333333333333336,14.3,43.333333333333336,29.033333333333335,29.033333333333335,43.333333333333336,14.3,43.333333333333336,0,29.033333333333335,0,14.3,14.3,0" fill="#222" fill-opacity="0.11533333333333334" stroke="#000" stroke-opacity="0.02" transform="translate(216.66666666666669, 216.66666666666669)"  /></svg>