<svg xmlns="http://www.w3.org/2000/svg" width="340" height="144"><rect x="0" y="0" width="100%" height="100%" fill="rgb(58, 76, 149)"  /><path d="M0 44 C 59.49999999999999 0, 110.5 0, 170 44 S 280.5 88, 340 44 S 450.5 0, 510.0, 44" fill="none" stroke="#ddd" style="opacity:0.12400000000000001;stroke-width:4px;" transform="translate(-85, -66.0)"  /><path d="M0 44 C 59.49999999999999 0, 110.5 0, 170 44 S 280.5 88, 340 44 S 450.5 0, 510.0, 44" fill="none" stroke="#ddd" style="opacity:0.12400000000000001;stroke-width:4px;" transform="translate(-85, 78.0)"  /><path d="M0 44 C 59.49999999999999 0, 110.5 0, 170 44 S 280.5 88, 340 44 S 450.5 0, 510.0, 44" fill="none" stroke="#222" style="opacity:0.046;stroke-width:4px;" transform="translate(-85, -62.0)"  /><path d="M0 44 C 59.49999999999999 0, 110.5 0, 170 44 S 280.5 88, 340 44 S 450.5 0, 510.0, 44" fill="none" stroke="#222" style="opacity:0.046;stroke-width:4px;" transform="translate(-85, 82.0)"  /><path d="M0 44 C 59.49999999999999 0, 110.5 0, 170 44 S 280.5 88, 340 44 S 450.5 0, 510.0, 44" fill="none" stroke="#222" style="opacity:0.028666666666666667;stroke-width:4px;" transform="translate(-85, -58.0)"  /><path d="M0 44 C 59.49999999999999 0, 110.5 0, 170 44 S 280.5 88, 340 44 S 450.5 0, 510.0, 44" fill="none" stroke="#222" style="opacity:0.028666666666666667;stroke-width:4px;" transform="translate(-85, 86.0)"  /><path d="M0 44 C 59.49999999999999 0, 110.5 0, 170 44 S 280.5 88, 340 44 S 450.5 0, 510.0, 44" fill="none" stroke="#222" style="opacity:0.06333333333333334;stroke-width:4px;" transform="translate(-85, -54.0)"  /><path d="M0 44 C 59.49999999999999 0, 110.5 0, 170 44 S 280.5 88, 340 44 S 450.5 0, 510.0, 44" fill="none" stroke="#222" style="opacity:0.06333333333333334;stroke-width:4px;" transform="translate(-85, 90.0)"  /><path d="M0 44 C 59.49999999999999 0, 110.5 0, 170 44 S 280.5 88, 340 44 S 450.5 0, 510.0, 44" fill="none" stroke="#ddd" style="opacity:0.07200000000000001;stroke-width:4px;" transform="translate(-85, -50.0)"  /><path d="M0 44 C 59.49999999999999 0, 110.5 0, 170 44 S 280.5 88, 340 44 S 450.5 0, 510.0, 44" fill="none" stroke="#ddd" style="opacity:0.07200000000000001;stroke-width:4px;" transform="translate(-85, 94.0)"  /><path d="M0 44 C 59.49999999999999 0, 110.5 0, 170 44 S 280.5 88, 340 44 S 450.5 0, 510.0, 44" fill="none" stroke="#ddd" style="opacity:0.08933333333333333;stroke-width:4px;" transform="translate(-85, -46.0)"  /><path d="M0 44 C 59.49999999999999 0, 110.5 0, 170 44 S 280.5 88, 340 44 S 450.5 0, 510.0, 44" fill="none" stroke="#ddd" style="opacity:0.08933333333333333;stroke-width:4px;" transform="translate(-85, 98.0)"  /><path d="M0 44 C 59.49999999999999 0, 110.5 0, 170 44 S 280.5 88, 340 44 S 450.5 0, 510.0, 44" fill="none" stroke="#222" style="opacity:0.08066666666666666;stroke-width:4px;" transform="translate(-85, -42.0)"  /><path d="M0 44 C 59.49999999999999 0, 110.5 0, 170 44 S 280.5 88, 340 44 S 450.5 0, 510.0, 44" fill="none" stroke="#222" style="opacity:0.08066666666666666;stroke-width:4px;" transform="translate(-85, 102.0)"  /><path d="M0 44 C 59.49999999999999 0, 110.5 0, 170 44 S 280.5 88, 340 44 S 450.5 0, 510.0, 44" fill="none" stroke="#222" style="opacity:0.028666666666666667;stroke-width:4px;" transform="translate(-85, -38.0)"  /><path d="M0 44 C 59.49999999999999 0, 110.5 0, 170 44 S 280.5 88, 340 44 S 450.5 0, 510.0, 44" fill="none" stroke="#222" style="opacity:0.028666666666666667;stroke-width:4px;" transform="translate(-85, 106.0)"  /><path d="M0 44 C 59.49999999999999 0, 110.5 0, 170 44 S 280.5 88, 340 44 S 450.5 0, 510.0, 44" fill="none" stroke="#ddd" style="opacity:0.12400000000000001;stroke-width:4px;" transform="translate(-85, -34.0)"  /><path d="M0 44 C 59.49999999999999 0, 110.5 0, 170 44 S 280.5 88, 340 44 S 450.5 0, 510.0, 44" fill="none" stroke="#ddd" style="opacity:0.12400000000000001;stroke-width:4px;" transform="translate(-85, 110.0)"  /><path d="M0 44 C 59.49999999999999 0, 110.5 0, 170 44 S 280.5 88, 340 44 S 450.5 0, 510.0, 44" fill="none" stroke="#ddd" style="opacity:0.08933333333333333;stroke-width:4px;" transform="translate(-85, -30.0)"  /><path d="M0 44 C 59.49999999999999 0, 110.5 0, 170 44 S 280.5 88, 340 44 S 450.5 0, 510.0, 44" fill="none" stroke="#ddd" style="opacity:0.08933333333333333;stroke-width:4px;" transform="translate(-85, 114.0)"  /><path d="M0 44 C 59.49999999999999 0, 110.5 0, 170 44 S 280.5 88, 340 44 S 450.5 0, 510.0, 44" fill="none" stroke="#222" style="opacity:0.098;stroke-width:4px;" transform="translate(-85, -26.0)"  /><path d="M0 44 C 59.49999999999999 0, 110.5 0, 170 44 S 280.5 88, 340 44 S 450.5 0, 510.0, 44" fill="none" stroke="#222" style="opacity:0.098;stroke-width:4px;" transform="translate(-85, 118.0)"  /><path d="M0 44 C 59.49999999999999 0, 110.5 0, 170 44 S 280.5 88, 340 44 S 450.5 0, 510.0, 44" fill="none" stroke="#ddd" style="opacity:0.10666666666666667;stroke-width:4px;" transform="translate(-85, -22.0)"  /><path d="M0 44 C 59.49999999999999 0, 110.5 0, 170 44 S 280.5 88, 340 44 S 450.5 0, 510.0, 44" fill="none" stroke="#ddd" style="opacity:0.10666666666666667;stroke-width:4px;" transform="translate(-85, 122.0)"  /><path d="M0 44 C 59.49999999999999 0, 110.5 0, 170 44 S 280.5 88, 340 44 S 450.5 0, 510.0, 44" fill="none" stroke="#222" style="opacity:0.11533333333333334;stroke-width:4px;" transform="translate(-85, -18.0)"  /><path d="M0 44 C 59.49999999999999 0, 110.5 0, 170 44 S 280.5 88, 340 44 S 450.5 0, 510.0, 44" fill="none" stroke="#222" style="opacity:0.11533333333333334;stroke-width:4px;" transform="translate(-85, 126.0)"  /><path d="M0 44 C 59.49999999999999 0, 110.5 0, 170 44 S 280.5 88, 340 44 S 450.5 0, 510.0, 44" fill="none" stroke="#222" style="opacity:0.06333333333333334;stroke-width:4px;" transform="translate(-85, -14.0)"  /><path d="M0 44 C 59.49999999999999 0, 110.5 0, 170 44 S 280.5 88, 340 44 S 450.5 0, 510.0, 44" fill="none" stroke="#222" style="opacity:0.06333333333333334;stroke-width:4px;" transform="translate(-85, 130.0)"  /><path d="M0 44 C 59.49999999999999 0, 110.5 0, 170 44 S 280.5 88, 340 44 S 450.5 0, 510.0, 44" fill="none" stroke="#222" style="opacity:0.06333333333333334;stroke-width:4px;" transform="translate(-85, -10.0)"  /><path d="M0 44 C 59.49999999999999 0, 110.5 0, 170 44 S 280.5 88, 340 44 S 450.5 0, 510.0, 44" fill="none" stroke="#222" style="opacity:0.06333333333333334;stroke-width:4px;" transform="translate(-85, 134.0)"  /><path d="M0 44 C 59.49999999999999 0, 110.5 0, 170 44 S 280.5 88, 340 44 S 450.5 0, 510.0, 44" fill="none" stroke="#ddd" style="opacity:0.14133333333333334;stroke-width:4px;" transform="translate(-85, -6.0)"  /><path d="M0 44 C 59.49999999999999 0, 110.5 0, 170 44 S 280.5 88, 340 44 S 450.5 0, 510.0, 44" fill="none" stroke="#ddd" style="opacity:0.14133333333333334;stroke-width:4px;" transform="translate(-85, 138.0)"  /><path d="M0 44 C 59.49999999999999 0, 110.5 0, 170 44 S 280.5 88, 340 44 S 450.5 0, 510.0, 44" fill="none" stroke="#ddd" style="opacity:0.02;stroke-width:4px;" transform="translate(-85, -2.0)"  /><path d="M0 44 C 59.49999999999999 0, 110.5 0, 170 44 S 280.5 88, 340 44 S 450.5 0, 510.0, 44" fill="none" stroke="#ddd" style="opacity:0.02;stroke-width:4px;" transform="translate(-85, 142.0)"  /><path d="M0 44 C 59.49999999999999 0, 110.5 0, 170 44 S 280.5 88, 340 44 S 450.5 0, 510.0, 44" fill="none" stroke="#ddd" style="opacity:0.03733333333333333;stroke-width:4px;" transform="translate(-85, 2.0)"  /><path d="M0 44 C 59.49999999999999 0, 110.5 0, 170 44 S 280.5 88, 340 44 S 450.5 0, 510.0, 44" fill="none" stroke="#ddd" style="opacity:0.03733333333333333;stroke-width:4px;" transform="translate(-85, 146.0)"  /><path d="M0 44 C 59.49999999999999 0, 110.5 0, 170 44 S 280.5 88, 340 44 S 450.5 0, 510.0, 44" fill="none" stroke="#222" style="opacity:0.08066666666666666;stroke-width:4px;" transform="translate(-85, 6.0)"  /><path d="M0 44 C 59.49999999999999 0, 110.5 0, 170 44 S 280.5 88, 340 44 S 450.5 0, 510.0, 44" fill="none" stroke="#222" style="opacity:0.08066666666666666;stroke-width:4px;" transform="translate(-85, 150.0)"  /><path d="M0 44 C 59.49999999999999 0, 110.5 0, 170 44 S 280.5 88, 340 44 S 450.5 0, 510.0, 44" fill="none" stroke="#ddd" style="opacity:0.14133333333333334;stroke-width:4px;" transform="translate(-85, 10.0)"  /><path d="M0 44 C 59.49999999999999 0, 110.5 0, 170 44 S 280.5 88, 340 44 S 450.5 0, 510.0, 44" fill="none" stroke="#ddd" style="opacity:0.14133333333333334;stroke-width:4px;" transform="translate(-85, 154.0)"  /><path d="M0 44 C 59.49999999999999 0, 110.5 0, 170 44 S 280.5 88, 340 44 S 450.5 0, 510.0, 44" fill="none" stroke="#222" style="opacity:0.11533333333333334;stroke-width:4px;" transform="translate(-85, 14.0)"  /><path d="M0 44 C 59.49999999999999 0, 110.5 0, 170 44 S 280.5 88, 340 44 S 450.5 0, 510.0, 44" fill="none" stroke="#222" style="opacity:0.11533333333333334;stroke-width:4px;" transform="translate(-85, 158.0)"  /><path d="M0 44 C 59.49999999999999 0, 110.5 0, 170 44 S 280.5 88, 340 44 S 450.5 0, 510.0, 44" fill="none" stroke="#222" style="opacity:0.06333333333333334;stroke-width:4px;" transform="translate(-85, 18.0)"  /><path d="M0 44 C 59.49999999999999 0, 110.5 0, 170 44 S 280.5 88, 340 44 S 450.5 0, 510.0, 44" fill="none" stroke="#222" style="opacity:0.06333333333333334;stroke-width:4px;" transform="translate(-85, 162.0)"  /><path d="M0 44 C 59.49999999999999 0, 110.5 0, 170 44 S 280.5 88, 340 44 S 450.5 0, 510.0, 44" fill="none" stroke="#ddd" style="opacity:0.08933333333333333;stroke-width:4px;" transform="translate(-85, 22.0)"  /><path d="M0 44 C 59.49999999999999 0, 110.5 0, 170 44 S 280.5 88, 340 44 S 450.5 0, 510.0, 44" fill="none" stroke="#ddd" style="opacity:0.08933333333333333;stroke-width:4px;" transform="translate(-85, 166.0)"  /><path d="M0 44 C 59.49999999999999 0, 110.5 0, 170 44 S 280.5 88, 340 44 S 450.5 0, 510.0, 44" fill="none" stroke="#ddd" style="opacity:0.12400000000000001;stroke-width:4px;" transform="translate(-85, 26.0)"  /><path d="M0 44 C 59.49999999999999 0, 110.5 0, 170 44 S 280.5 88, 340 44 S 450.5 0, 510.0, 44" fill="none" stroke="#ddd" style="opacity:0.12400000000000001;stroke-width:4px;" transform="translate(-85, 170.0)"  /><path d="M0 44 C 59.49999999999999 0, 110.5 0, 170 44 S 280.5 88, 340 44 S 450.5 0, 510.0, 44" fill="none" stroke="#ddd" style="opacity:0.02;stroke-width:4px;" transform="translate(-85, 30.0)"  /><path d="M0 44 C 59.49999999999999 0, 110.5 0, 170 44 S 280.5 88, 340 44 S 450.5 0, 510.0, 44" fill="none" stroke="#ddd" style="opacity:0.02;stroke-width:4px;" transform="translate(-85, 174.0)"  /><path d="M0 44 C 59.49999999999999 0, 110.5 0, 170 44 S 280.5 88, 340 44 S 450.5 0, 510.0, 44" fill="none" stroke="#ddd" style="opacity:0.10666666666666667;stroke-width:4px;" transform="translate(-85, 34.0)"  /><path d="M0 44 C 59.49999999999999 0, 110.5 0, 170 44 S 280.5 88, 340 44 S 450.5 0, 510.0, 44" fill="none" stroke="#ddd" style="opacity:0.10666666666666667;stroke-width:4px;" transform="translate(-85, 178.0)"  /><path d="M0 44 C 59.49999999999999 0, 110.5 0, 170 44 S 280.5 88, 340 44 S 450.5 0, 510.0, 44" fill="none" stroke="#222" style="opacity:0.13266666666666665;stroke-width:4px;" transform="translate(-85, 38.0)"  /><path d="M0 44 C 59.49999999999999 0, 110.5 0, 170 44 S 280.5 88, 340 44 S 450.5 0, 510.0, 44" fill="none" stroke="#222" style="opacity:0.13266666666666665;stroke-width:4px;" transform="translate(-85, 182.0)"  /><path d="M0 44 C 59.49999999999999 0, 110.5 0, 170 44 S 280.5 88, 340 44 S 450.5 0, 510.0, 44" fill="none" stroke="#ddd" style="opacity:0.10666666666666667;stroke-width:4px;" transform="translate(-85, 42.0)"  /><path d="M0 44 C 59.49999999999999 0, 110.5 0, 170 44 S 280.5 88, 340 44 S 450.5 0, 510.0, 44" fill="none" stroke="#ddd" style="opacity:0.10666666666666667;stroke-width:4px;" transform="translate(-85, 186.0)"  /><path d="M0 44 C 59.49999999999999 0, 110.5 0, 170 44 S 280.5 88, 340 44 S 450.5 0, 510.0, 44" fill="none" stroke="#222" style="opacity:0.08066666666666666;stroke-width:4px;" transform="translate(-85, 46.0)"  /><path d="M0 44 C 59.49999999999999 0, 110.5 0, 170 44 S 280.5 88, 340 44 S 450.5 0, 510.0, 44" fill="none" stroke="#222" style="opacity:0.08066666666666666;stroke-width:4px;" transform="translate(-85, 190.0)"  /><path d="M0 44 C 59.49999999999999 0, 110.5 0, 170 44 S 280.5 88, 340 44 S 450.5 0, 510.0, 44" fill="none" stroke="#ddd" style="opacity:0.12400000000000001;stroke-width:4px;" transform="translate(-85, 50.0)"  /><path d="M0 44 C 59.49999999999999 0, 110.5 0, 170 44 S 280.5 88, 340 44 S 450.5 0, 510.0, 44" fill="none" stroke="#ddd" style="opacity:0.12400000000000001;stroke-width:4px;" transform="translate(-85, 194.0)"  /><path d="M0 44 C 59.49999999999999 0, 110.5 0, 170 44 S 280.5 88, 340 44 S 450.5 0, 510.0, 44" fill="none" stroke="#ddd" style="opacity:0.03733333333333333;stroke-width:4px;" transform="translate(-85, 54.0)"  /><path d="M0 44 C 59.49999999999999 0, 110.5 0, 170 44 S 280.5 88, 340 44 S 450.5 0, 510.0, 44" fill="none" stroke="#ddd" style="opacity:0.03733333333333333;stroke-width:4px;" transform="translate(-85, 198.0)"  /><path d="M0 44 C 59.49999999999999 0, 110.5 0, 170 44 S 280.5 88, 340 44 S 450.5 0, 510.0, 44" fill="none" stroke="#222" style="opacity:0.098;stroke-width:4px;" transform="translate(-85, 58.0)"  /><path d="M0 44 C 59.49999999999999 0, 110.5 0, 170 44 S 280.5 88, 340 44 S 450.5 0, 510.0, 44" fill="none" stroke="#222" style="opacity:0.098;stroke-width:4px;" transform="translate(-85, 202.0)"  /><path d="M0 44 C 59.49999999999999 0, 110.5 0, 170 44 S 280.5 88, 340 44 S 450.5 0, 510.0, 44" fill="none" stroke="#222" style="opacity:0.028666666666666667;stroke-width:4px;" transform="translate(-85, 62.0)"  /><path d="M0 44 C 59.49999999999999 0, 110.5 0, 170 44 S 280.5 88, 340 44 S 450.5 0, 510.0, 44" fill="none" stroke="#222" style="opacity:0.028666666666666667;stroke-width:4px;" transform="translate(-85, 206.0)"  /><path d="M0 44 C 59.49999999999999 0, 110.5 0, 170 44 S 280.5 88, 340 44 S 450.5 0, 510.0, 44" fill="none" stroke="#222" style="opacity:0.11533333333333334;stroke-width:4px;" transform="translate(-85, 66.0)"  /><path d="M0 44 C 59.49999999999999 0, 110.5 0, 170 44 S 280.5 88, 340 44 S 450.5 0, 510.0, 44" fill="none" stroke="#222" style="opacity:0.11533333333333334;stroke-width:4px;" transform="translate(-85, 210.0)"  /><path d="M0 44 C 59.49999999999999 0, 110.5 0, 170 44 S 280.5 88, 340 44 S 450.5 0, 510.0, 44" fill="none" stroke="#ddd" style="opacity:0.05466666666666667;stroke-width:4px;" transform="translate(-85, 70.0)"  /><path d="M0 44 C 59.49999999999999 0, 110.5 0, 170 44 S 280.5 88, 340 44 S 450.5 0, 510.0, 44" fill="none" stroke="#ddd" style="opacity:0.05466666666666667;stroke-width:4px;" transform="translate(-85, 214.0)"  /><path d="M0 44 C 59.49999999999999 0, 110.5 0, 170 44 S 280.5 88, 340 44 S 450.5 0, 510.0, 44" fill="none" stroke="#222" style="opacity:0.08066666666666666;stroke-width:4px;" transform="translate(-85, 74.0)"  /><path d="M0 44 C 59.49999999999999 0, 110.5 0, 170 44 S 280.5 88, 340 44 S 450.5 0, 510.0, 44" fill="none" stroke="#222" style="opacity:0.08066666666666666;stroke-width:4px;" transform="translate(-85, 218.0)"  /></svg>