<svg xmlns="http://www.w3.org/2000/svg" width="460" height="460"><rect x="0" y="0" width="100%" height="100%" fill="rgb(54, 85, 153)"  /><circle cx="0.0" cy="0.0" r="76.66666666666667" fill="#222" style="opacity:0.11533333333333334;"  /><circle cx="460.0" cy="0.0" r="76.66666666666667" fill="#222" style="opacity:0.11533333333333334;"  /><circle cx="0.0" cy="460.0" r="76.66666666666667" fill="#222" style="opacity:0.11533333333333334;"  /><circle cx="460.0" cy="460.0" r="76.66666666666667" fill="#222" style="opacity:0.11533333333333334;"  /><circle cx="76.66666666666667" cy="0.0" r="76.66666666666667" fill="#ddd" style="opacity:0.02;"  /><circle cx="76.66666666666667" cy="460.0" r="76.66666666666667" fill="#ddd" style="opacity:0.02;"  /><circle cx="153.33333333333334" cy="0.0" r="76.66666666666667" fill="#222" style="opacity:0.11533333333333334;"  /><circle cx="153.33333333333334" cy="460.0" r="76.66666666666667" fill="#222" style="opacity:0.11533333333333334;"  /><circle cx="230.0" cy="0.0" r="76.66666666666667" fill="#ddd" style="opacity:0.08933333333333333;"  /><circle cx="230.0" cy="460.0" r="76.66666666666667" fill="#ddd" style="opacity:0.08933333333333333;"  /><circle cx="306.6666666666667" cy="0.0" r="76.66666666666667" fill="#ddd" style="opacity:0.12400000000000001;"  /><circle cx="306.6666666666667" cy="460.0" r="76.66666666666667" fill="#ddd" style="opacity:0.12400000000000001;"  /><circle cx="383.33333333333337" cy="0.0" r="76.66666666666667" fill="#ddd" style="opacity:0.12400000000000001;"  /><circle cx="383.33333333333337" cy="460.0" r="76.66666666666667" fill="#ddd" style="opacity:0.12400000000000001;"  /><circle cx="0.0" cy="76.66666666666667" r="76.66666666666667" fill="#222" style="opacity:0.06333333333333334;"  /><circle cx="460.0" cy="76.66666666666667" r="76.66666666666667" fill="#222" style="opacity:0.06333333333333334;"  /><circle cx="76.66666666666667" cy="76.66666666666667" r="76.66666666666667" fill="#222" style="opacity:0.098;"  /><circle cx="153.33333333333334" cy="76.66666666666667" r="76.66666666666667" fill="#ddd" style="opacity:0.07200000000000001;"  /><circle cx="230.0" cy="76.66666666666667" r="76.66666666666667" fill="#ddd" style="opacity:0.05466666666666667;"  /><circle cx="306.6666666666667" cy="76.66666666666667" r="76.66666666666667" fill="#222" style="opacity:0.046;"  /><circle cx="383.33333333333337" cy="76.66666666666667" r="76.66666666666667" fill="#ddd" style="opacity:0.03733333333333333;"  /><circle cx="0.0" cy="153.33333333333334" r="76.66666666666667" fill="#ddd" style="opacity:0.03733333333333333;"  /><circle cx="460.0" cy="153.33333333333334" r="76.66666666666667" fill="#ddd" style="opacity:0.03733333333333333;"  /><circle cx="76.66666666666667" cy="153.33333333333334" r="76.66666666666667" fill="#222" style="opacity:0.11533333333333334;"  /><circle cx="153.33333333333334" cy="153.33333333333334" r="76.66666666666667" fill="#ddd" style="opacity:0.07200000000000001;"  /><circle cx="230.0" cy="153.33333333333334" r="76.66666666666667" fill="#222" style="opacity:0.046;"  /><circle cx="306.6666666666667" cy="153.33333333333334" r="76.66666666666667" fill="#ddd" style="opacity:0.02;"  /><circle cx="383.33333333333337" cy="153.33333333333334" r="76.66666666666667" fill="#ddd" style="opacity:0.07200000000000001;"  /><circle cx="0.0" cy="230.0" r="76.66666666666667" fill="#222" style="opacity:0.06333333333333334;"  /><circle cx="460.0" cy="230.0" r="76.66666666666667" fill="#222" style="opacity:0.06333333333333334;"  /><circle cx="76.66666666666667" cy="230.0" r="76.66666666666667" fill="#222" style="opacity:0.028666666666666667;"  /><circle cx="153.33333333333334" cy="230.0" r="76.66666666666667" fill="#222" style="opacity:0.08066666666666666;"  /><circle cx="230.0" cy="230.0" r="76.66666666666667" fill="#ddd" style="opacity:0.08933333333333333;"  /><circle cx="306.6666666666667" cy="230.0" r="76.66666666666667" fill="#ddd" style="opacity:0.10666666666666667;"  /><circle cx="383.33333333333337" cy="230.0" r="76.66666666666667" fill="#ddd" style="opacity:0.07200000000000001;"  /><circle cx="0.0" cy="306.6666666666667" r="76.66666666666667" fill="#ddd" style="opacity:0.03733333333333333;"  /><circle cx="460.0" cy="306.6666666666667" r="76.66666666666667" fill="#ddd" style="opacity:0.03733333333333333;"  /><circle cx="76.66666666666667" cy="306.6666666666667" r="76.66666666666667" fill="#222" style="opacity:0.098;"  /><circle cx="153.33333333333334" cy="306.6666666666667" r="76.66666666666667" fill="#222" style="opacity:0.11533333333333334;"  /><circle cx="230.0" cy="306.6666666666667" r="76.66666666666667" fill="#ddd" style="opacity:0.07200000000000001;"  /><circle cx="306.6666666666667" cy="306.6666666666667" r="76.66666666666667" fill="#222" style="opacity:0.11533333333333334;"  /><circle cx="383.33333333333337" cy="306.6666666666667" r="76.66666666666667" fill="#222" style="opacity:0.098;"  /><circle cx="0.0" cy="383.33333333333337" r="76.66666666666667" fill="#ddd" style="opacity:0.10666666666666667;"  /><circle cx="460.0" cy="383.33333333333337" r="76.66666666666667" fill="#ddd" style="opacity:0.10666666666666667;"  /><circle cx="76.66666666666667" cy="383.33333333333337" r="76.66666666666667" fill="#ddd" style="opacity:0.12400000000000001;"  /><circle cx="153.33333333333334" cy="383.33333333333337" r="76.66666666666667" fill="#ddd" style="opacity:0.10666666666666667;"  /><circle cx="230.0" cy="383.33333333333337" r="76.66666666666667" fill="#222" style="opacity:0.11533333333333334;"  /><circle cx="306.6666666666667" cy="383.33333333333337" r="76.66666666666667" fill="#ddd" style="opacity:0.03733333333333333;"  /><circle cx="383.33333333333337" cy="383.33333333333337" r="76.66666666666667" fill="#ddd" style="opacity:0.10666666666666667;"  /></svg>