<svg xmlns="http://www.w3.org/2000/svg" width="180" height="180"><rect x="0" y="0" width="100%" height="100%" fill="rgb(131, 107, 76)"  /><polyline points="9.9,0,20.1,0,30.0,9.9,30.0,20.1,20.1,30.0,9.9,30.0,0,20.1,0,9.9,9.9,0" fill="#ddd" fill-opacity="0.07200000000000001" stroke="#000" stroke-opacity="0.02" transform="translate(0.0, 0.0)"  /><polyline points="9.9,0,20.1,0,30.0,9.9,30.0,20.1,20.1,30.0,9.9,30.0,0,20.1,0,9.9,9.9,0" fill="#222" fill-opacity="0.13266666666666665" stroke="#000" stroke-opacity="0.02" transform="translate(30.0, 0.0)"  /><polyline points="9.9,0,20.1,0,30.0,9.9,30.0,20.1,20.1,30.0,9.9,30.0,0,20.1,0,9.9,9.9,0" fill="#ddd" fill-opacity="0.10666666666666667" stroke="#000" stroke-opacity="0.02" transform="translate(60.0, 0.0)"  /><polyline points="9.9,0,20.1,0,30.0,9.9,30.0,20.1,20.1,30.0,9.9,30.0,0,20.1,0,9.9,9.9,0" fill="#ddd" fill-opacity="0.08933333333333333" stroke="#000" stroke-opacity="0.02" transform="translate(90.0, 0.0)"  /><polyline points="9.9,0,20.1,0,30.0,9.9,30.0,20.1,20.1,30.0,9.9,30.0,0,20.1,0,9.9,9.9,0" fill="#222" fill-opacity="0.15" stroke="#000" stroke-opacity="0.02" transform="translate(120.0, 0.0)"  /><polyline points="9.9,0,20.1,0,30.0,9.9,30.0,20.1,20.1,30.0,9.9,30.0,0,20.1,0,9.9,9.9,0" fill="#ddd" fill-opacity="0.05466666666666667" stroke="#000" stroke-opacity="0.02" transform="translate(150.0, 0.0)"  /><polyline points="9.9,0,20.1,0,30.0,9.9,30.0,20.1,20.1,30.0,9.9,30.0,0,20.1,0,9.9,9.9,0" fill="#ddd" fill-opacity="0.08933333333333333" stroke="#000" stroke-opacity="0.02" transform="translate(0.0, 30.0)"  /><polyline points="9.9,0,20.1,0,30.0,9.9,30.0,20.1,20.1,30.0,9.9,30.0,0,20.1,0,9.9,9.9,0" fill="#ddd" fill-opacity="0.02" stroke="#000" stroke-opacity="0.02" transform="translate(30.0, 30.0)"  /><polyline points="9.9,0,20.1,0,30.0,9.9,30.0,20.1,20.1,30.0,9.9,30.0,0,20.1,0,9.9,9.9,0" fill="#222" fill-opacity="0.13266666666666665" stroke="#000" stroke-opacity="0.02" transform="translate(60.0, 30.0)"  /><polyline points="9.9,0,20.1,0,30.0,9.9,30.0,20.1,20.1,30.0,9.9,30.0,0,20.1,0,9.9,9.9,0" fill="#ddd" fill-opacity="0.08933333333333333" stroke="#000" stroke-opacity="0.02" transform="translate(90.0, 30.0)"  /><polyline points="9.9,0,20.1,0,30.0,9.9,30.0,20.1,20.1,30.0,9.9,30.0,0,20.1,0,9.9,9.9,0" fill="#ddd" fill-opacity="0.08933333333333333" stroke="#000" stroke-opacity="0.02" transform="translate(120.0, 30.0)"  /><polyline points="9.9,0,20.1,0,30.0,9.9,30.0,20.1,20.1,30.0,9.9,30.0,0,20.1,0,9.9,9.9,0" fill="#222" fill-opacity="0.13266666666666665" stroke="#000" stroke-opacity="0.02" transform="translate(150.0, 30.0)"  /><polyline points="9.9,0,20.1,0,30.0,9.9,30.0,20.1,20.1,30.0,9.9,30.0,0,20.1,0,9.9,9.9,0" fill="#ddd" fill-opacity="0.10666666666666667" stroke="#000" stroke-opacity="0.02" transform="translate(0.0, 60.0)"  /><polyline points="9.9,0,20.1,0,30.0,9.9,30.0,20.1,20.1,30.0,9.9,30.0,0,20.1,0,9.9,9.9,0" fill="#222" fill-opacity="0.15" stroke="#000" stroke-opacity="0.02" transform="translate(30.0, 60.0)"  /><polyline points="9.9,0,20.1,0,30.0,9.9,30.0,20.1,20.1,30.0,9.9,30.0,0,20.1,0,9.9,9.9,0" fill="#ddd" fill-opacity="0.14133333333333334" stroke="#000" stroke-opacity="0.02" transform="translate(60.0, 60.0)"  /><polyline points="9.9,0,20.1,0,30.0,9.9,30.0,20.1,20.1,30.0,9.9,30.0,0,20.1,0,9.9,9.9,0" fill="#ddd" fill-opacity="0.08933333333333333" stroke="#000" stroke-opacity="0.02" transform="translate(90.0, 60.0)"  /><polyline points="9.9,0,20.1,0,30.0,9.9,30.0,20.1,20.1,30.0,9.9,30.0,0,20.1,0,9.9,9.9,0" fill="#222" fill-opacity="0.08066666666666666" stroke="#000" stroke-opacity="0.02" transform="translate(120.0, 60.0)"  /><polyline points="9.9,0,20.1,0,30.0,9.9,30.0,20.1,20.1,30.0,9.9,30.0,0,20.1,0,9.9,9.9,0" fill="#222" fill-opacity="0.15" stroke="#000" stroke-opacity="0.02" transform="translate(150.0, 60.0)"  /><polyline points="9.9,0,20.1,0,30.0,9.9,30.0,20.1,20.1,30.0,9.9,30.0,0,20.1,0,9.9,9.9,0" fill="#222" fill-opacity="0.028666666666666667" stroke="#000" stroke-opacity="0.02" transform="translate(0.0, 90.0)"  /><polyline points="9.9,0,20.1,0,30.0,9.9,30.0,20.1,20.1,30.0,9.9,30.0,0,20.1,0,9.9,9.9,0" fill="#ddd" fill-opacity="0.12400000000000001" stroke="#000" stroke-opacity="0.02" transform="translate(30.0, 90.0)"  /><polyline points="9.9,0,20.1,0,30.0,9.9,30.0,20.1,20.1,30.0,9.9,30.0,0,20.1,0,9.9,9.9,0" fill="#ddd" fill-opacity="0.07200000000000001" stroke="#000" stroke-opacity="0.02" transform="translate(60.0, 90.0)"  /><polyline points="9.9,0,20.1,0,30.0,9.9,30.0,20.1,20.1,30.0,9.9,30.0,0,20.1,0,9.9,9.9,0" fill="#ddd" fill-opacity="0.03733333333333333" stroke="#000" stroke-opacity="0.02" transform="translate(90.0, 90.0)"  /><polyline points="9.9,0,20.1,0,30.0,9.9,30.0,20.1,20.1,30.0,9.9,30.0,0,20.1,0,9.9,9.9,0" fill="#ddd" fill-opacity="0.05466666666666667" stroke="#000" stroke-opacity="0.02" transform="translate(120.0, 90.0)"  /><polyline points="9.9,0,20.1,0,30.0,9.9,30.0,20.1,20.1,30.0,9.9,30.0,0,20.1,0,9.9,9.9,0" fill="#ddd" fill-opacity="0.02" stroke="#000" stroke-opacity="0.02" transform="translate(150.0, 90.0)"  /><polyline points="9.9,0,20.1,0,30.0,9.9,30.0,20.1,20.1,30.0,9.9,30.0,0,20.1,0,9.9,9.9,0" fill="#ddd" fill-opacity="0.12400000000000001" stroke="#000" stroke-opacity="0.02" transform="translate(0.0, 120.0)"  /><polyline points="9.9,0,20.1,0,30.0,9.9,30.0,20.1,20.1,30.0,9.9,30.0,0,20.1,0,9.9,9.9,0" fill="#ddd" fill-opacity="0.02" stroke="#000" stroke-opacity="0.02" transform="translate(30.0, 120.0)"  /><polyline points="9.9,0,20.1,0,30.0,9.9,30.0,20.1,20.1,30.0,9.9,30.0,0,20.1,0,9.9,9.9,0" fill="#ddd" fill-opacity="0.03733333333333333" stroke="#000" stroke-opacity="0.02" transform="translate(60.0, 120.0)"  /><polyline points="9.9,0,20.1,0,30.0,9.9,30.0,20.1,20.1,30.0,9.9,30.0,0,20.1,0,9.9,9.9,0" fill="#222" fill-opacity="0.098" stroke="#000" stroke-opacity="0.02" transform="translate(90.0, 120.0)"  /><polyline points="9.9,0,20.1,0,30.0,9.9,30.0,20.1,20.1,30.0,9.9,30.0,0,20.1,0,9.9,9.9,0" fill="#ddd" fill-opacity="0.10666666666666667" stroke="#000" stroke-opacity="0.02" transform="translate(120.0, 120.0)"  /><polyline points="9.9,0,20.1,0,30.0,9.9,30.0,20.1,20.1,30.0,9.9,30.0,0,20.1,0,9.9,9.9,0" fill="#222" fill-opacity="0.15" stroke="#000" stroke-opacity="0.02" transform="translate(150.0, 120.0)"  /><polyline points="9.9,0,20.1,0,30.0,9.9,30.0,20.1,20.1,30.0,9.9,30.0,0,20.1,0,9.9,9.9,0" fill="#ddd" fill-opacity="0.12400000000000001" stroke="#000" stroke-opacity="0.02" transform="translate(0.0, 150.0)"  /><polyline points="9.9,0,20.1,0,30.0,9.9,30.0,20.1,20.1,30.0,9.9,30.0,0,20.1,0,9.9,9.9,0" fill="#222" fill-opacity="0.15" stroke="#000" stroke-opacity="0.02" transform="translate(30.0, 150.0)"  /><polyline points="9.9,0,20.1,0,30.0,9.9,30.0,20.1,20.1,30.0,9.9,30.0,0,20.1,0,9.9,9.9,0" fill="#ddd" fill-opacity="0.05466666666666667" stroke="#000" stroke-opacity="0.02" transform="translate(60.0, 150.0)"  /><polyline points="9.9,0,20.1,0,30.0,9.9,30.0,20.1,20.1,30.0,9.9,30.0,0,20.1,0,9.9,9.9,0" fill="#222" fill-opacity="0.11533333333333334" stroke="#000" stroke-opacity="0.02" transform="translate(90.0, 150.0)"  /><polyline points="9.9,0,20.1,0,30.0,9.9,30.0,20.1,20.1,30.0,9.9,30.0,0,20.1,0,9.9,9.9,0" fill="#ddd" fill-opacity="0.10666666666666667" stroke="#000" stroke-opacity="0.02" transform="translate(120.0, 150.0)"  /><polyline points="9.9,0,20.1,0,30.0,9.9,30.0,20.1,20.1,30.0,9.9,30.0,0,20.1,0,9.9,9.9,0" fill="#222" fill-opacity="0.13266666666666665" stroke="#000" stroke-opacity="0.02" transform="translate(150.0, 150.0)"  /></svg>