<svg xmlns="http://www.w3.org/2000/svg" width="200" height="1008"><rect x="0" y="0" width="100%" height="100%" fill="rgb(54, 46, 161)"  /><path d="M0 100 C 35.0 0, 65.0 0, 100 100 S 165.0 200, 200 100 S 265.0 0, 300.0, 100" fill="none" stroke="#222" style="opacity:0.06333333333333334;stroke-width:28px;" transform="translate(-50, -150.0)"  /><path d="M0 100 C 35.0 0, 65.0 0, 100 100 S 165.0 200, 200 100 S 265.0 0, 300.0, 100" fill="none" stroke="#222" style="opacity:0.06333333333333334;stroke-width:28px;" transform="translate(-50, 858.0)"  /><path d="M0 100 C 35.0 0, 65.0 0, 100 100 S 165.0 200, 200 100 S 265.0 0, 300.0, 100" fill="none" stroke="#222" style="opacity:0.15;stroke-width:28px;" transform="translate(-50, -122.0)"  /><path d="M0 100 C 35.0 0, 65.0 0, 100 100 S 165.0 200, 200 100 S 265.0 0, 300.0, 100" fill="none" stroke="#222" style="opacity:0.15;stroke-width:28px;" transform="translate(-50, 886.0)"  /><path d="M0 100 C 35.0 0, 65.0 0, 100 100 S 165.0 200, 200 100 S 265.0 0, 300.0, 100" fill="none" stroke="#ddd" style="opacity:0.14133333333333334;stroke-width:28px;" transform="translate(-50, -94.0)"  /><path d="M0 100 C 35.0 0, 65.0 0, 100 100 S 165.0 200, 200 100 S 265.0 0, 300.0, 100" fill="none" stroke="#ddd" style="opacity:0.14133333333333334;stroke-width:28px;" transform="translate(-50, 914.0)"  /><path d="M0 100 C 35.0 0, 65.0 0, 100 100 S 165.0 200, 200 100 S 265.0 0, 300.0, 100" fill="none" stroke="#ddd" style="opacity:0.14133333333333334;stroke-width:28px;" transform="translate(-50, -66.0)"  /><path d="M0 100 C 35.0 0, 65.0 0, 100 100 S 165.0 200, 200 100 S 265.0 0, 300.0, 100" fill="none" stroke="#ddd" style="opacity:0.14133333333333334;stroke-width:28px;" transform="translate(-50, 942.0)"  /><path d="M0 100 C 35.0 0, 65.0 0, 100 100 S 165.0 200, 200 100 S 265.0 0, 300.0, 100" fill="none" stroke="#222" style="opacity:0.08066666666666666;stroke-width:28px;" transform="translate(-50, -38.0)"  /><path d="M0 100 C 35.0 0, 65.0 0, 100 100 S 165.0 200, 200 100 S 265.0 0, 300.0, 100" fill="none" stroke="#222" style="opacity:0.08066666666666666;stroke-width:28px;" transform="translate(-50, 970.0)"  /><path d="M0 100 C 35.0 0, 65.0 0, 100 100 S 165.0 200, 200 100 S 265.0 0, 300.0, 100" fill="none" stroke="#ddd" style="opacity:0.14133333333333334;stroke-width:28px;" transform="translate(-50, -10.0)"  /><path d="M0 100 C 35.0 0, 65.0 0, 100 100 S 165.0 200, 200 100 S 265.0 0, 300.0, 100" fill="none" stroke="#ddd" style="opacity:0.14133333333333334;stroke-width:28px;" transform="translate(-50, 998.0)"  /><path d="M0 100 C 35.0 0, 65.0 0, 100 100 S 165.0 200, 200 100 S 265.0 0, 300.0, 100" fill="none" stroke="#222" style="opacity:0.098;stroke-width:28px;" transform="translate(-50, 18.0)"  /><path d="M0 100 C 35.0 0, 65.0 0, 100 100 S 165.0 200, 200 100 S 265.0 0, 300.0, 100" fill="none" stroke="#222" style="opacity:0.098;stroke-width:28px;" transform="translate(-50, 1026.0)"  /><path d="M0 100 C 35.0 0, 65.0 0, 100 100 S 165.0 200, 200 100 S 265.0 0, 300.0, 100" fill="none" stroke="#ddd" style="opacity:0.03733333333333333;stroke-width:28px;" transform="translate(-50, 46.0)"  /><path d="M0 100 C 35.0 0, 65.0 0, 100 100 S 165.0 200, 200 100 S 265.0 0, 300.0, 100" fill="none" stroke="#ddd" style="opacity:0.03733333333333333;stroke-width:28px;" transform="translate(-50, 1054.0)"  /><path d="M0 100 C 35.0 0, 65.0 0, 100 100 S 165.0 200, 200 100 S 265.0 0, 300.0, 100" fill="none" stroke="#ddd" style="opacity:0.07200000000000001;stroke-width:28px;" transform="translate(-50, 74.0)"  /><path d="M0 100 C 35.0 0, 65.0 0, 100 100 S 165.0 200, 200 100 S 265.0 0, 300.0, 100" fill="none" stroke="#ddd" style="opacity:0.07200000000000001;stroke-width:28px;" transform="translate(-50, 1082.0)"  /><path d="M0 100 C 35.0 0, 65.0 0, 100 100 S 165.0 200, 200 100 S 265.0 0, 300.0, 100" fill="none" stroke="#ddd" style="opacity:0.07200000000000001;stroke-width:28px;" transform="translate(-50, 102.0)"  /><path d="M0 100 C 35.0 0, 65.0 0, 100 100 S 165.0 200, 200 100 S 265.0 0, 300.0, 100" fill="none" stroke="#ddd" style="opacity:0.07200000000000001;stroke-width:28px;" transform="translate(-50, 1110.0)"  /><path d="M0 100 C 35.0 0, 65.0 0, 100 100 S 165.0 200, 200 100 S 265.0 0, 300.0, 100" fill="none" stroke="#222" style="opacity:0.08066666666666666;stroke-width:28px;" transform="translate(-50, 130.0)"  /><path d="M0 100 C 35.0 0, 65.0 0, 100 100 S 165.0 200, 200 100 S 265.0 0, 300.0, 100" fill="none" stroke="#222" style="opacity:0.08066666666666666;stroke-width:28px;" transform="translate(-50, 1138.0)"  /><path d="M0 100 C 35.0 0, 65.0 0, 100 100 S 165.0 200, 200 100 S 265.0 0, 300.0, 100" fill="none" stroke="#ddd" style="opacity:0.14133333333333334;stroke-width:28px;" transform="translate(-50, 158.0)"  /><path d="M0 100 C 35.0 0, 65.0 0, 100 100 S 165.0 200, 200 100 S 265.0 0, 300.0, 100" fill="none" stroke="#ddd" style="opacity:0.14133333333333334;stroke-width:28px;" transform="translate(-50, 1166.0)"  /><path d="M0 100 C 35.0 0, 65.0 0, 100 100 S 165.0 200, 200 100 S 265.0 0, 300.0, 100" fill="none" stroke="#ddd" style="opacity:0.02;stroke-width:28px;" transform="translate(-50, 186.0)"  /><path d="M0 100 C 35.0 0, 65.0 0, 100 100 S 165.0 200, 200 100 S 265.0 0, 300.0, 100" fill="none" stroke="#ddd" style="opacity:0.02;stroke-width:28px;" transform="translate(-50, 1194.0)"  /><path d="M0 100 C 35.0 0, 65.0 0, 100 100 S 165.0 200, 200 100 S 265.0 0, 300.0, 100" fill="none" stroke="#ddd" style="opacity:0.12400000000000001;stroke-width:28px;" transform="translate(-50, 214.0)"  /><path d="M0 100 C 35.0 0, 65.0 0, 100 100 S 165.0 200, 200 100 S 265.0 0, 300.0, 100" fill="none" stroke="#ddd" style="opacity:0.12400000000000001;stroke-width:28px;" transform="translate(-50, 1222.0)"  /><path d="M0 100 C 35.0 0, 65.0 0, 100 100 S 165.0 200, 200 100 S 265.0 0, 300.0, 100" fill="none" stroke="#222" style="opacity:0.06333333333333334;stroke-width:28px;" transform="translate(-50, 242.0)"  /><path d="M0 100 C 35.0 0, 65.0 0, 100 100 S 165.0 200, 200 100 S 265.0 0, 300.0, 100" fill="none" stroke="#222" style="opacity:0.06333333333333334;stroke-width:28px;" transform="translate(-50, 1250.0)"  /><path d="M0 100 C 35.0 0, 65.0 0, 100 100 S 165.0 200, 200 100 S 265.0 0, 300.0, 100" fill="none" stroke="#ddd" style="opacity:0.03733333333333333;stroke-width:28px;" transform="translate(-50, 270.0)"  /><path d="M0 100 C 35.0 0, 65.0 0, 100 100 S 165.0 200, 200 100 S 265.0 0, 300.0, 100" fill="none" stroke="#ddd" style="opacity:0.03733333333333333;stroke-width:28px;" transform="translate(-50, 1278.0)"  /><path d="M0 100 C 35.0 0, 65.0 0, 100 100 S 165.0 200, 200 100 S 265.0 0, 300.0, 100" fill="none" stroke="#222" style="opacity:0.098;stroke-width:28px;" transform="translate(-50, 298.0)"  /><path d="M0 100 C 35.0 0, 65.0 0, 100 100 S 165.0 200, 200 100 S 265.0 0, 300.0, 100" fill="none" stroke="#222" style="opacity:0.098;stroke-width:28px;" transform="translate(-50, 1306.0)"  /><path d="M0 100 C 35.0 0, 65.0 0, 100 100 S 165.0 200, 200 100 S 265.0 0, 300.0, 100" fill="none" stroke="#ddd" style="opacity:0.14133333333333334;stroke-width:28px;" transform="translate(-50, 326.0)"  /><path d="M0 100 C 35.0 0, 65.0 0, 100 100 S 165.0 200, 200 100 S 265.0 0, 300.0, 100" fill="none" stroke="#ddd" style="opacity:0.14133333333333334;stroke-width:28px;" transform="translate(-50, 1334.0)"  /><path d="M0 100 C 35.0 0, 65.0 0, 100 100 S 165.0 200, 200 100 S 265.0 0, 300.0, 100" fill="none" stroke="#222" style="opacity:0.098;stroke-width:28px;" transform="translate(-50, 354.0)"  /><path d="M0 100 C 35.0 0, 65.0 0, 100 100 S 165.0 200, 200 100 S 265.0 0, 300.0, 100" fill="none" stroke="#222" style="opacity:0.098;stroke-width:28px;" transform="translate(-50, 1362.0)"  /><path d="M0 100 C 35.0 0, 65.0 0, 100 100 S 165.0 200, 200 100 S 265.0 0, 300.0, 100" fill="none" stroke="#ddd" style="opacity:0.07200000000000001;stroke-width:28px;" transform="translate(-50, 382.0)"  /><path d="M0 100 C 35.0 0, 65.0 0, 100 100 S 165.0 200, 200 100 S 265.0 0, 300.0, 100" fill="none" stroke="#ddd" style="opacity:0.07200000000000001;stroke-width:28px;" transform="translate(-50, 1390.0)"  /><path d="M0 100 C 35.0 0, 65.0 0, 100 100 S 165.0 200, 200 100 S 265.0 0, 300.0, 100" fill="none" stroke="#222" style="opacity:0.11533333333333334;stroke-width:28px;" transform="translate(-50, 410.0)"  /><path d="M0 100 C 35.0 0, 65.0 0, 100 100 S 165.0 200, 200 100 S 265.0 0, 300.0, 100" fill="none" stroke="#222" style="opacity:0.11533333333333334;stroke-width:28px;" transform="translate(-50, 1418.0)"  /><path d="M0 100 C 35.0 0, 65.0 0, 100 100 S 165.0 200, 200 100 S 265.0 0, 300.0, 100" fill="none" stroke="#222" style="opacity:0.13266666666666665;stroke-width:28px;" transform="translate(-50, 438.0)"  /><path d="M0 100 C 35.0 0, 65.0 0, 100 100 S 165.0 200, 200 100 S 265.0 0, 300.0, 100" fill="none" stroke="#222" style="opacity:0.13266666666666665;stroke-width:28px;" transform="translate(-50, 1446.0)"  /><path d="M0 100 C 35.0 0, 65.0 0, 100 100 S 165.0 200, 200 100 S 265.0 0, 300.0, 100" fill="none" stroke="#222" style="opacity:0.13266666666666665;stroke-width:28px;" transform="translate(-50, 466.0)"  /><path d="M0 100 C 35.0 0, 65.0 0, 100 100 S 165.0 200, 200 100 S 265.0 0, 300.0, 100" fill="none" stroke="#222" style="opacity:0.13266666666666665;stroke-width:28px;" transform="translate(-50, 1474.0)"  /><path d="M0 100 C 35.0 0, 65.0 0, 100 100 S 165.0 200, 200 100 S 265.0 0, 300.0, 100" fill="none" stroke="#ddd" style="opacity:0.14133333333333334;stroke-width:28px;" transform="translate(-50, 494.0)"  /><path d="M0 100 C 35.0 0, 65.0 0, 100 100 S 165.0 200, 200 100 S 265.0 0, 300.0, 100" fill="none" stroke="#ddd" style="opacity:0.14133333333333334;stroke-width:28px;" transform="translate(-50, 1502.0)"  /><path d="M0 100 C 35.0 0, 65.0 0, 100 100 S 165.0 200, 200 100 S 265.0 0, 300.0, 100" fill="none" stroke="#222" style="opacity:0.08066666666666666;stroke-width:28px;" transform="translate(-50, 522.0)"  /><path d="M0 100 C 35.0 0, 65.0 0, 100 100 S 165.0 200, 200 100 S 265.0 0, 300.0, 100" fill="none" stroke="#222" style="opacity:0.08066666666666666;stroke-width:28px;" transform="translate(-50, 1530.0)"  /><path d="M0 100 C 35.0 0, 65.0 0, 100 100 S 165.0 200, 200 100 S 265.0 0, 300.0, 100" fill="none" stroke="#222" style="opacity:0.13266666666666665;stroke-width:28px;" transform="translate(-50, 550.0)"  /><path d="M0 100 C 35.0 0, 65.0 0, 100 100 S 165.0 200, 200 100 S 265.0 0, 300.0, 100" fill="none" stroke="#222" style="opacity:0.13266666666666665;stroke-width:28px;" transform="translate(-50, 1558.0)"  /><path d="M0 100 C 35.0 0, 65.0 0, 100 100 S 165.0 200, 200 100 S 265.0 0, 300.0, 100" fill="none" stroke="#ddd" style="opacity:0.07200000000000001;stroke-width:28px;" transform="translate(-50, 578.0)"  /><path d="M0 100 C 35.0 0, 65.0 0, 100 100 S 165.0 200, 200 100 S 265.0 0, 300.0, 100" fill="none" stroke="#ddd" style="opacity:0.07200000000000001;stroke-width:28px;" transform="translate(-50, 1586.0)"  /><path d="M0 100 C 35.0 0, 65.0 0, 100 100 S 165.0 200, 200 100 S 265.0 0, 300.0, 100" fill="none" stroke="#222" style="opacity:0.046;stroke-width:28px;" transform="translate(-50, 606.0)"  /><path d="M0 100 C 35.0 0, 65.0 0, 100 100 S 165.0 200, 200 100 S 265.0 0, 300.0, 100" fill="none" stroke="#222" style="opacity:0.046;stroke-width:28px;" transform="translate(-50, 1614.0)"  /><path d="M0 100 C 35.0 0, 65.0 0, 100 100 S 165.0 200, 200 100 S 265.0 0, 300.0, 100" fill="none" stroke="#ddd" style="opacity:0.03733333333333333;stroke-width:28px;" transform="translate(-50, 634.0)"  /><path d="M0 100 C 35.0 0, 65.0 0, 100 100 S 165.0 200, 200 100 S 265.0 0, 300.0, 100" fill="none" stroke="#ddd" style="opacity:0.03733333333333333;stroke-width:28px;" transform="translate(-50, 1642.0)"  /><path d="M0 100 C 35.0 0, 65.0 0, 100 100 S 165.0 200, 200 100 S 265.0 0, 300.0, 100" fill="none" stroke="#ddd" style="opacity:0.08933333333333333;stroke-width:28px;" transform="translate(-50, 662.0)"  /><path d="M0 100 C 35.0 0, 65.0 0, 100 100 S 165.0 200, 200 100 S 265.0 0, 300.0, 100" fill="none" stroke="#ddd" style="opacity:0.08933333333333333;stroke-width:28px;" transform="translate(-50, 1670.0)"  /><path d="M0 100 C 35.0 0, 65.0 0, 100 100 S 165.0 200, 200 100 S 265.0 0, 300.0, 100" fill="none" stroke="#222" style="opacity:0.13266666666666665;stroke-width:28px;" transform="translate(-50, 690.0)"  /><path d="M0 100 C 35.0 0, 65.0 0, 100 100 S 165.0 200, 200 100 S 265.0 0, 300.0, 100" fill="none" stroke="#222" style="opacity:0.13266666666666665;stroke-width:28px;" transform="translate(-50, 1698.0)"  /><path d="M0 100 C 35.0 0, 65.0 0, 100 100 S 165.0 200, 200 100 S 265.0 0, 300.0, 100" fill="none" stroke="#222" style="opacity:0.13266666666666665;stroke-width:28px;" transform="translate(-50, 718.0)"  /><path d="M0 100 C 35.0 0, 65.0 0, 100 100 S 165.0 200, 200 100 S 265.0 0, 300.0, 100" fill="none" stroke="#222" style="opacity:0.13266666666666665;stroke-width:28px;" transform="translate(-50, 1726.0)"  /><path d="M0 100 C 35.0 0, 65.0 0, 100 100 S 165.0 200, 200 100 S 265.0 0, 300.0, 100" fill="none" stroke="#ddd" style="opacity:0.14133333333333334;stroke-width:28px;" transform="translate(-50, 746.0)"  /><path d="M0 100 C 35.0 0, 65.0 0, 100 100 S 165.0 200, 200 100 S 265.0 0, 300.0, 100" fill="none" stroke="#ddd" style="opacity:0.14133333333333334;stroke-width:28px;" transform="translate(-50, 1754.0)"  /><path d="M0 100 C 35.0 0, 65.0 0, 100 100 S 165.0 200, 200 100 S 265.0 0, 300.0, 100" fill="none" stroke="#ddd" style="opacity:0.02;stroke-width:28px;" transform="translate(-50, 774.0)"  /><path d="M0 100 C 35.0 0, 65.0 0, 100 100 S 165.0 200, 200 100 S 265.0 0, 300.0, 100" fill="none" stroke="#ddd" style="opacity:0.02;stroke-width:28px;" transform="translate(-50, 1782.0)"  /><path d="M0 100 C 35.0 0, 65.0 0, 100 100 S 165.0 200, 200 100 S 265.0 0, 300.0, 100" fill="none" stroke="#ddd" style="opacity:0.05466666666666667;stroke-width:28px;" transform="translate(-50, 802.0)"  /><path d="M0 100 C 35.0 0, 65.0 0, 100 100 S 165.0 200, 200 100 S 265.0 0, 300.0, 100" fill="none" stroke="#ddd" style="opacity:0.05466666666666667;stroke-width:28px;" transform="translate(-50, 1810.0)"  /><path d="M0 100 C 35.0 0, 65.0 0, 100 100 S 165.0 200, 200 100 S 265.0 0, 300.0, 100" fill="none" stroke="#ddd" style="opacity:0.02;stroke-width:28px;" transform="translate(-50, 830.0)"  /><path d="M0 100 C 35.0 0, 65.0 0, 100 100 S 165.0 200, 200 100 S 265.0 0, 300.0, 100" fill="none" stroke="#ddd" style="opacity:0.02;stroke-width:28px;" transform="translate(-50, 1838.0)"  /></svg>