<svg xmlns="http://www.w3.org/2000/svg" width="443" height="443"><rect x="0" y="0" width="100%" height="100%" fill="rgb(134, 132, 73)"  /><rect x="0" y="16" width="100%" height="12" opacity="0.08066666666666666" fill="#222"  /><rect x="0" y="34" width="100%" height="19" opacity="0.14133333333333334" fill="#ddd"  /><rect x="0" y="72" width="100%" height="15" opacity="0.10666666666666667" fill="#ddd"  /><rect x="0" y="104" width="100%" height="15" opacity="0.10666666666666667" fill="#ddd"  /><rect x="0" y="138" width="100%" height="8" opacity="0.046" fill="#222"  /><rect x="0" y="152" width="100%" height="17" opacity="0.12400000000000001" fill="#ddd"  /><rect x="0" y="183" width="100%" height="17" opacity="0.12400000000000001" fill="#ddd"  /><rect x="0" y="218" width="100%" height="12" opacity="0.08066666666666666" fill="#222"  /><rect x="0" y="235" width="100%" height="18" opacity="0.13266666666666665" fill="#222"  /><rect x="0" y="260" width="100%" height="11" opacity="0.07200000000000001" fill="#ddd"  /><rect x="0" y="285" width="100%" height="9" opacity="0.05466666666666667" fill="#ddd"  /><rect x="0" y="305" width="100%" height="9" opacity="0.05466666666666667" fill="#ddd"  /><rect x="0" y="319" width="100%" height="16" opacity="0.11533333333333334" fill="#222"  /><rect x="0" y="342" width="100%" height="9" opacity="0.05466666666666667" fill="#ddd"  /><rect x="0" y="368" width="100%" height="20" opacity="0.15" fill="#222"  /><rect x="0" y="399" width="100%" height="9" opacity="0.05466666666666667" fill="#ddd"  /><rect x="0" y="419" width="100%" height="7" opacity="0.03733333333333333" fill="#ddd"  /><rect x="0" y="438" width="100%" height="5" opacity="0.02" fill="#ddd"  /><rect x="16" y="0" width="12" height="100%" opacity="0.08066666666666666" fill="#222"  /><rect x="34" y="0" width="19" height="100%" opacity="0.14133333333333334" fill="#ddd"  /><rect x="72" y="0" width="15" height="100%" opacity="0.10666666666666667" fill="#ddd"  /><rect x="104" y="0" width="15" height="100%" opacity="0.10666666666666667" fill="#ddd"  /><rect x="138" y="0" width="8" height="100%" opacity="0.046" fill="#222"  /><rect x="152" y="0" width="17" height="100%" opacity="0.12400000000000001" fill="#ddd"  /><rect x="183" y="0" width="17" height="100%" opacity="0.12400000000000001" fill="#ddd"  /><rect x="218" y="0" width="12" height="100%" opacity="0.08066666666666666" fill="#222"  /><rect x="235" y="0" width="18" height="100%" opacity="0.13266666666666665" fill="#222"  /><rect x="260" y="0" width="11" height="100%" opacity="0.07200000000000001" fill="#ddd"  /><rect x="285" y="0" width="9" height="100%" opacity="0.05466666666666667" fill="#ddd"  /><rect x="305" y="0" width="9" height="100%" opacity="0.05466666666666667" fill="#ddd"  /><rect x="319" y="0" width="16" height="100%" opacity="0.11533333333333334" fill="#222"  /><rect x="342" y="0" width="9" height="100%" opacity="0.05466666666666667" fill="#ddd"  /><rect x="368" y="0" width="20" height="100%" opacity="0.15" fill="#222"  /><rect x="399" y="0" width="9" height="100%" opacity="0.05466666666666667" fill="#ddd"  /><rect x="419" y="0" width="7" height="100%" opacity="0.03733333333333333" fill="#ddd"  /><rect x="438" y="0" width="5" height="100%" opacity="0.02" fill="#ddd"  /></svg>