<svg xmlns="http://www.w3.org/2000/svg" width="228" height="263"><rect x="0" y="0" width="100%" height="100%" fill="rgb(96, 149, 58)"  /><polyline points="0,21.939310229205777,12.666666666666666,0,38.0,0,50.666666666666664,21.939310229205777,38.0,43.878620458411554,12.666666666666666,43.878620458411554,0,21.939310229205777" fill="#222" fill-opacity="0.06333333333333334" stroke="#000" stroke-opacity="0.02" transform="translate(-25.333333333333332, -21.939310229205777)"  /><polyline points="0,21.939310229205777,12.666666666666666,0,38.0,0,50.666666666666664,21.939310229205777,38.0,43.878620458411554,12.666666666666666,43.878620458411554,0,21.939310229205777" fill="#222" fill-opacity="0.06333333333333334" stroke="#000" stroke-opacity="0.02" transform="translate(202.66666666666666, -21.939310229205777)"  /><polyline points="0,21.939310229205777,12.666666666666666,0,38.0,0,50.666666666666664,21.939310229205777,38.0,43.878620458411554,12.666666666666666,43.878620458411554,0,21.939310229205777" fill="#222" fill-opacity="0.06333333333333334" stroke="#000" stroke-opacity="0.02" transform="translate(-25.333333333333332, 241.33241252126356)"  /><polyline points="0,21.939310229205777,12.666666666666666,0,38.0,0,50.666666666666664,21.939310229205777,38.0,43.878620458411554,12.666666666666666,43.878620458411554,0,21.939310229205777" fill="#222" fill-opacity="0.06333333333333334" stroke="#000" stroke-opacity="0.02" transform="translate(202.66666666666666, 241.33241252126354)"  /><polyline points="0,21.939310229205777,12.666666666666666,0,38.0,0,50.666666666666664,21.939310229205777,38.0,43.878620458411554,12.666666666666666,43.878620458411554,0,21.939310229205777" fill="#222" fill-opacity="0.028666666666666667" stroke="#000" stroke-opacity="0.02" transform="translate(12.666666666666668, 0.0)"  /><polyline points="0,21.939310229205777,12.666666666666666,0,38.0,0,50.666666666666664,21.939310229205777,38.0,43.878620458411554,12.666666666666666,43.878620458411554,0,21.939310229205777" fill="#222" fill-opacity="0.028666666666666667" stroke="#000" stroke-opacity="0.02" transform="translate(12.666666666666668, 263.27172275046934)"  /><polyline points="0,21.939310229205777,12.666666666666666,0,38.0,0,50.666666666666664,21.939310229205777,38.0,43.878620458411554,12.666666666666666,43.878620458411554,0,21.939310229205777" fill="#ddd" fill-opacity="0.03733333333333333" stroke="#000" stroke-opacity="0.02" transform="translate(50.66666666666667, -21.939310229205777)"  /><polyline points="0,21.939310229205777,12.666666666666666,0,38.0,0,50.666666666666664,21.939310229205777,38.0,43.878620458411554,12.666666666666666,43.878620458411554,0,21.939310229205777" fill="#ddd" fill-opacity="0.03733333333333333" stroke="#000" stroke-opacity="0.02" transform="translate(50.66666666666667, 241.33241252126356)"  /><polyline points="0,21.939310229205777,12.666666666666666,0,38.0,0,50.666666666666664,21.939310229205777,38.0,43.878620458411554,12.666666666666666,43.878620458411554,0,21.939310229205777" fill="#ddd" fill-opacity="0.14133333333333334" stroke="#000" stroke-opacity="0.02" transform="translate(88.66666666666667, 0.0)"  /><polyline points="0,21.939310229205777,12.666666666666666,0,38.0,0,50.666666666666664,21.939310229205777,38.0,43.878620458411554,12.666666666666666,43.878620458411554,0,21.939310229205777" fill="#ddd" fill-opacity="0.14133333333333334" stroke="#000" stroke-opacity="0.02" transform="translate(88.66666666666667, 263.27172275046934)"  /><polyline points="0,21.939310229205777,12.666666666666666,0,38.0,0,50.666666666666664,21.939310229205777,38.0,43.878620458411554,12.666666666666666,43.878620458411554,0,21.939310229205777" fill="#222" fill-opacity="0.046" stroke="#000" stroke-opacity="0.02" transform="translate(126.66666666666667, -21.939310229205777)"  /><polyline points="0,21.939310229205777,12.666666666666666,0,38.0,0,50.666666666666664,21.939310229205777,38.0,43.878620458411554,12.666666666666666,43.878620458411554,0,21.939310229205777" fill="#222" fill-opacity="0.046" stroke="#000" stroke-opacity="0.02" transform="translate(126.66666666666667, 241.33241252126356)"  /><polyline points="0,21.939310229205777,12.666666666666666,0,38.0,0,50.666666666666664,21.939310229205777,38.0,43.878620458411554,12.666666666666666,43.878620458411554,0,21.939310229205777" fill="#ddd" fill-opacity="0.03733333333333333" stroke="#000" stroke-opacity="0.02" transform="translate(164.66666666666666, 0.0)"  /><polyline points="0,21.939310229205777,12.666666666666666,0,38.0,0,50.666666666666664,21.939310229205777,38.0,43.878620458411554,12.666666666666666,43.878620458411554,0,21.939310229205777" fill="#ddd" fill-opacity="0.03733333333333333" stroke="#000" stroke-opacity="0.02" transform="translate(164.66666666666666, 263.27172275046934)"  /><polyline points="0,21.939310229205777,12.666666666666666,0,38.0,0,50.666666666666664,21.939310229205777,38.0,43.878620458411554,12.666666666666666,43.878620458411554,0,21.939310229205777" fill="#222" fill-opacity="0.11533333333333334" stroke="#000" stroke-opacity="0.02" transform="translate(-25.333333333333332, 21.939310229205777)"  /><polyline points="0,21.939310229205777,12.666666666666666,0,38.0,0,50.666666666666664,21.939310229205777,38.0,43.878620458411554,12.666666666666666,43.878620458411554,0,21.939310229205777" fill="#222" fill-opacity="0.11533333333333334" stroke="#000" stroke-opacity="0.02" transform="translate(202.66666666666666, 21.939310229205777)"  /><polyline points="0,21.939310229205777,12.666666666666666,0,38.0,0,50.666666666666664,21.939310229205777,38.0,43.878620458411554,12.666666666666666,43.878620458411554,0,21.939310229205777" fill="#222" fill-opacity="0.046" stroke="#000" stroke-opacity="0.02" transform="translate(12.666666666666668, 43.87862045841156)"  /><polyline points="0,21.939310229205777,12.666666666666666,0,38.0,0,50.666666666666664,21.939310229205777,38.0,43.878620458411554,12.666666666666666,43.878620458411554,0,21.939310229205777" fill="#222" fill-opacity="0.11533333333333334" stroke="#000" stroke-opacity="0.02" transform="translate(50.66666666666667, 21.939310229205777)"  /><polyline points="0,21.939310229205777,12.666666666666666,0,38.0,0,50.666666666666664,21.939310229205777,38.0,43.878620458411554,12.666666666666666,43.878620458411554,0,21.939310229205777" fill="#222" fill-opacity="0.028666666666666667" stroke="#000" stroke-opacity="0.02" transform="translate(88.66666666666667, 43.87862045841156)"  /><polyline points="0,21.939310229205777,12.666666666666666,0,38.0,0,50.666666666666664,21.939310229205777,38.0,43.878620458411554,12.666666666666666,43.878620458411554,0,21.939310229205777" fill="#ddd" fill-opacity="0.07200000000000001" stroke="#000" stroke-opacity="0.02" transform="translate(126.66666666666667, 21.939310229205777)"  /><polyline points="0,21.939310229205777,12.666666666666666,0,38.0,0,50.666666666666664,21.939310229205777,38.0,43.878620458411554,12.666666666666666,43.878620458411554,0,21.939310229205777" fill="#222" fill-opacity="0.11533333333333334" stroke="#000" stroke-opacity="0.02" transform="translate(164.66666666666666, 43.87862045841156)"  /><polyline points="0,21.939310229205777,12.666666666666666,0,38.0,0,50.666666666666664,21.939310229205777,38.0,43.878620458411554,12.666666666666666,43.878620458411554,0,21.939310229205777" fill="#ddd" fill-opacity="0.10666666666666667" stroke="#000" stroke-opacity="0.02" transform="translate(-25.333333333333332, 65.81793068761733)"  /><polyline points="0,21.939310229205777,12.666666666666666,0,38.0,0,50.666666666666664,21.939310229205777,38.0,43.878620458411554,12.666666666666666,43.878620458411554,0,21.939310229205777" fill="#ddd" fill-opacity="0.10666666666666667" stroke="#000" stroke-opacity="0.02" transform="translate(202.66666666666666, 65.81793068761733)"  /><polyline points="0,21.939310229205777,12.666666666666666,0,38.0,0,50.666666666666664,21.939310229205777,38.0,43.878620458411554,12.666666666666666,43.878620458411554,0,21.939310229205777" fill="#ddd" fill-opacity="0.02" stroke="#000" stroke-opacity="0.02" transform="translate(12.666666666666668, 87.75724091682311)"  /><polyline points="0,21.939310229205777,12.666666666666666,0,38.0,0,50.666666666666664,21.939310229205777,38.0,43.878620458411554,12.666666666666666,43.878620458411554,0,21.939310229205777" fill="#222" fill-opacity="0.11533333333333334" stroke="#000" stroke-opacity="0.02" transform="translate(50.66666666666667, 65.81793068761733)"  /><polyline points="0,21.939310229205777,12.666666666666666,0,38.0,0,50.666666666666664,21.939310229205777,38.0,43.878620458411554,12.666666666666666,43.878620458411554,0,21.939310229205777" fill="#ddd" fill-opacity="0.12400000000000001" stroke="#000" stroke-opacity="0.02" transform="translate(88.66666666666667, 87.75724091682311)"  /><polyline points="0,21.939310229205777,12.666666666666666,0,38.0,0,50.666666666666664,21.939310229205777,38.0,43.878620458411554,12.666666666666666,43.878620458411554,0,21.939310229205777" fill="#ddd" fill-opacity="0.12400000000000001" stroke="#000" stroke-opacity="0.02" transform="translate(126.66666666666667, 65.81793068761733)"  /><polyline points="0,21.939310229205777,12.666666666666666,0,38.0,0,50.666666666666664,21.939310229205777,38.0,43.878620458411554,12.666666666666666,43.878620458411554,0,21.939310229205777" fill="#ddd" fill-opacity="0.03733333333333333" stroke="#000" stroke-opacity="0.02" transform="translate(164.66666666666666, 87.75724091682311)"  /><polyline points="0,21.939310229205777,12.666666666666666,0,38.0,0,50.666666666666664,21.939310229205777,38.0,43.878620458411554,12.666666666666666,43.878620458411554,0,21.939310229205777" fill="#ddd" fill-opacity="0.08933333333333333" stroke="#000" stroke-opacity="0.02" transform="translate(-25.333333333333332, 109.6965511460289)"  /><polyline points="0,21.939310229205777,12.666666666666666,0,38.0,0,50.666666666666664,21.939310229205777,38.0,43.878620458411554,12.666666666666666,43.878620458411554,0,21.939310229205777" fill="#ddd" fill-opacity="0.08933333333333333" stroke="#000" stroke-opacity="0.02" transform="translate(202.66666666666666, 109.6965511460289)"  /><polyline points="0,21.939310229205777,12.666666666666666,0,38.0,0,50.666666666666664,21.939310229205777,38.0,43.878620458411554,12.666666666666666,43.878620458411554,0,21.939310229205777" fill="#222" fill-opacity="0.028666666666666667" stroke="#000" stroke-opacity="0.02" transform="translate(12.666666666666668, 131.63586137523467)"  /><polyline points="0,21.939310229205777,12.666666666666666,0,38.0,0,50.666666666666664,21.939310229205777,38.0,43.878620458411554,12.666666666666666,43.878620458411554,0,21.939310229205777" fill="#222" fill-opacity="0.046" stroke="#000" stroke-opacity="0.02" transform="translate(50.66666666666667, 109.6965511460289)"  /><polyline points="0,21.939310229205777,12.666666666666666,0,38.0,0,50.666666666666664,21.939310229205777,38.0,43.878620458411554,12.666666666666666,43.878620458411554,0,21.939310229205777" fill="#ddd" fill-opacity="0.07200000000000001" stroke="#000" stroke-opacity="0.02" transform="translate(88.66666666666667, 131.63586137523467)"  /><polyline points="0,21.939310229205777,12.666666666666666,0,38.0,0,50.666666666666664,21.939310229205777,38.0,43.878620458411554,12.666666666666666,43.878620458411554,0,21.939310229205777" fill="#222" fill-opacity="0.11533333333333334" stroke="#000" stroke-opacity="0.02" transform="translate(126.66666666666667, 109.6965511460289)"  /><polyline points="0,21.939310229205777,12.666666666666666,0,38.0,0,50.666666666666664,21.939310229205777,38.0,43.878620458411554,12.666666666666666,43.878620458411554,0,21.939310229205777" fill="#222" fill-opacity="0.028666666666666667" stroke="#000" stroke-opacity="0.02" transform="translate(164.66666666666666, 131.63586137523467)"  /><polyline points="0,21.939310229205777,12.666666666666666,0,38.0,0,50.666666666666664,21.939310229205777,38.0,43.878620458411554,12.666666666666666,43.878620458411554,0,21.939310229205777" fill="#ddd" fill-opacity="0.08933333333333333" stroke="#000" stroke-opacity="0.02" transform="translate(-25.333333333333332, 153.57517160444044)"  /><polyline points="0,21.939310229205777,12.666666666666666,0,38.0,0,50.666666666666664,21.939310229205777,38.0,43.878620458411554,12.666666666666666,43.878620458411554,0,21.939310229205777" fill="#ddd" fill-opacity="0.08933333333333333" stroke="#000" stroke-opacity="0.02" transform="translate(202.66666666666666, 153.57517160444044)"  /><polyline points="0,21.939310229205777,12.666666666666666,0,38.0,0,50.666666666666664,21.939310229205777,38.0,43.878620458411554,12.666666666666666,43.878620458411554,0,21.939310229205777" fill="#222" fill-opacity="0.098" stroke="#000" stroke-opacity="0.02" transform="translate(12.666666666666668, 175.51448183364622)"  /><polyline points="0,21.939310229205777,12.666666666666666,0,38.0,0,50.666666666666664,21.939310229205777,38.0,43.878620458411554,12.666666666666666,43.878620458411554,0,21.939310229205777" fill="#222" fill-opacity="0.098" stroke="#000" stroke-opacity="0.02" transform="translate(50.66666666666667, 153.57517160444044)"  /><polyline points="0,21.939310229205777,12.666666666666666,0,38.0,0,50.666666666666664,21.939310229205777,38.0,43.878620458411554,12.666666666666666,43.878620458411554,0,21.939310229205777" fill="#222" fill-opacity="0.046" stroke="#000" stroke-opacity="0.02" transform="translate(88.66666666666667, 175.51448183364622)"  /><polyline points="0,21.939310229205777,12.666666666666666,0,38.0,0,50.666666666666664,21.939310229205777,38.0,43.878620458411554,12.666666666666666,43.878620458411554,0,21.939310229205777" fill="#ddd" fill-opacity="0.07200000000000001" stroke="#000" stroke-opacity="0.02" transform="translate(126.66666666666667, 153.57517160444044)"  /><polyline points="0,21.939310229205777,12.666666666666666,0,38.0,0,50.666666666666664,21.939310229205777,38.0,43.878620458411554,12.666666666666666,43.878620458411554,0,21.939310229205777" fill="#ddd" fill-opacity="0.05466666666666667" stroke="#000" stroke-opacity="0.02" transform="translate(164.66666666666666, 175.51448183364622)"  /><polyline points="0,21.939310229205777,12.666666666666666,0,38.0,0,50.666666666666664,21.939310229205777,38.0,43.878620458411554,12.666666666666666,43.878620458411554,0,21.939310229205777" fill="#ddd" fill-opacity="0.05466666666666667" stroke="#000" stroke-opacity="0.02" transform="translate(-25.333333333333332, 197.453792062852)"  /><polyline points="0,21.939310229205777,12.666666666666666,0,38.0,0,50.666666666666664,21.939310229205777,38.0,43.878620458411554,12.666666666666666,43.878620458411554,0,21.939310229205777" fill="#ddd" fill-opacity="0.05466666666666667" stroke="#000" stroke-opacity="0.02" transform="translate(202.66666666666666, 197.453792062852)"  /><polyline points="0,21.939310229205777,12.666666666666666,0,38.0,0,50.666666666666664,21.939310229205777,38.0,43.878620458411554,12.666666666666666,43.878620458411554,0,21.939310229205777" fill="#ddd" fill-opacity="0.03733333333333333" stroke="#000" stroke-opacity="0.02" transform="translate(12.666666666666668, 219.39310229205776)"  /><polyline points="0,21.939310229205777,12.666666666666666,0,38.0,0,50.666666666666664,21.939310229205777,38.0,43.878620458411554,12.666666666666666,43.878620458411554,0,21.939310229205777" fill="#222" fill-opacity="0.06333333333333334" stroke="#000" stroke-opacity="0.02" transform="translate(50.66666666666667, 197.453792062852)"  /><polyline points="0,21.939310229205777,12.666666666666666,0,38.0,0,50.666666666666664,21.939310229205777,38.0,43.878620458411554,12.666666666666666,43.878620458411554,0,21.939310229205777" fill="#222" fill-opacity="0.028666666666666667" stroke="#000" stroke-opacity="0.02" transform="translate(88.66666666666667, 219.39310229205776)"  /><polyline points="0,21.939310229205777,12.666666666666666,0,38.0,0,50.666666666666664,21.939310229205777,38.0,43.878620458411554,12.666666666666666,43.878620458411554,0,21.939310229205777" fill="#222" fill-opacity="0.046" stroke="#000" stroke-opacity="0.02" transform="translate(126.66666666666667, 197.453792062852)"  /><polyline points="0,21.939310229205777,12.666666666666666,0,38.0,0,50.666666666666664,21.939310229205777,38.0,43.878620458411554,12.666666666666666,43.878620458411554,0,21.939310229205777" fill="#222" fill-opacity="0.08066666666666666" stroke="#000" stroke-opacity="0.02" transform="translate(164.66666666666666, 219.39310229205776)"  /></svg>