<svg xmlns="http://www.w3.org/2000/svg" width="447" height="447"><rect x="0" y="0" width="100%" height="100%" fill="rgb(118, 149, 58)"  /><rect x="0" y="11" width="100%" height="17" opacity="0.12400000000000001" fill="#ddd"  /><rect x="0" y="40" width="100%" height="20" opacity="0.15" fill="#222"  /><rect x="0" y="73" width="100%" height="14" opacity="0.098" fill="#222"  /><rect x="0" y="106" width="100%" height="6" opacity="0.028666666666666667" fill="#222"  /><rect x="0" y="128" width="100%" height="5" opacity="0.02" fill="#ddd"  /><rect x="0" y="143" width="100%" height="15" opacity="0.10666666666666667" fill="#ddd"  /><rect x="0" y="171" width="100%" height="17" opacity="0.12400000000000001" fill="#ddd"  /><rect x="0" y="205" width="100%" height="12" opacity="0.08066666666666666" fill="#222"  /><rect x="0" y="230" width="100%" height="7" opacity="0.03733333333333333" fill="#ddd"  /><rect x="0" y="247" width="100%" height="7" opacity="0.03733333333333333" fill="#ddd"  /><rect x="0" y="268" width="100%" height="11" opacity="0.07200000000000001" fill="#ddd"  /><rect x="0" y="287" width="100%" height="7" opacity="0.03733333333333333" fill="#ddd"  /><rect x="0" y="310" width="100%" height="12" opacity="0.08066666666666666" fill="#222"  /><rect x="0" y="331" width="100%" height="13" opacity="0.08933333333333333" fill="#ddd"  /><rect x="0" y="362" width="100%" height="19" opacity="0.14133333333333334" fill="#ddd"  /><rect x="0" y="397" width="100%" height="6" opacity="0.028666666666666667" fill="#222"  /><rect x="0" y="410" width="100%" height="16" opacity="0.11533333333333334" fill="#222"  /><rect x="0" y="435" width="100%" height="12" opacity="0.08066666666666666" fill="#222"  /><rect x="11" y="0" width="17" height="100%" opacity="0.12400000000000001" fill="#ddd"  /><rect x="40" y="0" width="20" height="100%" opacity="0.15" fill="#222"  /><rect x="73" y="0" width="14" height="100%" opacity="0.098" fill="#222"  /><rect x="106" y="0" width="6" height="100%" opacity="0.028666666666666667" fill="#222"  /><rect x="128" y="0" width="5" height="100%" opacity="0.02" fill="#ddd"  /><rect x="143" y="0" width="15" height="100%" opacity="0.10666666666666667" fill="#ddd"  /><rect x="171" y="0" width="17" height="100%" opacity="0.12400000000000001" fill="#ddd"  /><rect x="205" y="0" width="12" height="100%" opacity="0.08066666666666666" fill="#222"  /><rect x="230" y="0" width="7" height="100%" opacity="0.03733333333333333" fill="#ddd"  /><rect x="247" y="0" width="7" height="100%" opacity="0.03733333333333333" fill="#ddd"  /><rect x="268" y="0" width="11" height="100%" opacity="0.07200000000000001" fill="#ddd"  /><rect x="287" y="0" width="7" height="100%" opacity="0.03733333333333333" fill="#ddd"  /><rect x="310" y="0" width="12" height="100%" opacity="0.08066666666666666" fill="#222"  /><rect x="331" y="0" width="13" height="100%" opacity="0.08933333333333333" fill="#ddd"  /><rect x="362" y="0" width="19" height="100%" opacity="0.14133333333333334" fill="#ddd"  /><rect x="397" y="0" width="6" height="100%" opacity="0.028666666666666667" fill="#222"  /><rect x="410" y="0" width="16" height="100%" opacity="0.11533333333333334" fill="#222"  /><rect x="435" y="0" width="12" height="100%" opacity="0.08066666666666666" fill="#222"  /></svg>