<svg xmlns="http://www.w3.org/2000/svg" width="435" height="435"><rect x="0" y="0" width="100%" height="100%" fill="rgb(130, 50, 157)"  /><rect x="0" y="6" width="100%" height="9" opacity="0.05466666666666667" fill="#ddd"  /><rect x="0" y="23" width="100%" height="13" opacity="0.08933333333333333" fill="#ddd"  /><rect x="0" y="43" width="100%" height="14" opacity="0.098" fill="#222"  /><rect x="0" y="68" width="100%" height="6" opacity="0.028666666666666667" fill="#222"  /><rect x="0" y="93" width="100%" height="20" opacity="0.15" fill="#222"  /><rect x="0" y="131" width="100%" height="12" opacity="0.08066666666666666" fill="#222"  /><rect x="0" y="159" width="100%" height="16" opacity="0.11533333333333334" fill="#222"  /><rect x="0" y="183" width="100%" height="10" opacity="0.06333333333333334" fill="#222"  /><rect x="0" y="207" width="100%" height="15" opacity="0.10666666666666667" fill="#ddd"  /><rect x="0" y="238" width="100%" height="15" opacity="0.10666666666666667" fill="#ddd"  /><rect x="0" y="267" width="100%" height="11" opacity="0.07200000000000001" fill="#ddd"  /><rect x="0" y="283" width="100%" height="14" opacity="0.098" fill="#222"  /><rect x="0" y="309" width="100%" height="13" opacity="0.08933333333333333" fill="#ddd"  /><rect x="0" y="340" width="100%" height="14" opacity="0.098" fill="#222"  /><rect x="0" y="365" width="100%" height="12" opacity="0.08066666666666666" fill="#222"  /><rect x="0" y="387" width="100%" height="14" opacity="0.098" fill="#222"  /><rect x="0" y="414" width="100%" height="6" opacity="0.028666666666666667" fill="#222"  /><rect x="0" y="427" width="100%" height="8" opacity="0.046" fill="#222"  /><rect x="6" y="0" width="9" height="100%" opacity="0.05466666666666667" fill="#ddd"  /><rect x="23" y="0" width="13" height="100%" opacity="0.08933333333333333" fill="#ddd"  /><rect x="43" y="0" width="14" height="100%" opacity="0.098" fill="#222"  /><rect x="68" y="0" width="6" height="100%" opacity="0.028666666666666667" fill="#222"  /><rect x="93" y="0" width="20" height="100%" opacity="0.15" fill="#222"  /><rect x="131" y="0" width="12" height="100%" opacity="0.08066666666666666" fill="#222"  /><rect x="159" y="0" width="16" height="100%" opacity="0.11533333333333334" fill="#222"  /><rect x="183" y="0" width="10" height="100%" opacity="0.06333333333333334" fill="#222"  /><rect x="207" y="0" width="15" height="100%" opacity="0.10666666666666667" fill="#ddd"  /><rect x="238" y="0" width="15" height="100%" opacity="0.10666666666666667" fill="#ddd"  /><rect x="267" y="0" width="11" height="100%" opacity="0.07200000000000001" fill="#ddd"  /><rect x="283" y="0" width="14" height="100%" opacity="0.098" fill="#222"  /><rect x="309" y="0" width="13" height="100%" opacity="0.08933333333333333" fill="#ddd"  /><rect x="340" y="0" width="14" height="100%" opacity="0.098" fill="#222"  /><rect x="365" y="0" width="12" height="100%" opacity="0.08066666666666666" fill="#222"  /><rect x="387" y="0" width="14" height="100%" opacity="0.098" fill="#222"  /><rect x="414" y="0" width="6" height="100%" opacity="0.028666666666666667" fill="#222"  /><rect x="427" y="0" width="8" height="100%" opacity="0.046" fill="#222"  /></svg>