<svg xmlns="http://www.w3.org/2000/svg" width="204" height="126"><rect x="0" y="0" width="100%" height="100%" fill="rgb(100, 131, 76)"  /><polyline points="17.0, 0, 34.0, 21.0, 17.0, 42.0, 0, 21.0" fill="#222" fill-opacity="0.098" stroke="#000" stroke-opacity="0.02" transform="translate(-17.0, -21.0)"  /><polyline points="17.0, 0, 34.0, 21.0, 17.0, 42.0, 0, 21.0" fill="#222" fill-opacity="0.098" stroke="#000" stroke-opacity="0.02" transform="translate(187.0, -21.0)"  /><polyline points="17.0, 0, 34.0, 21.0, 17.0, 42.0, 0, 21.0" fill="#222" fill-opacity="0.098" stroke="#000" stroke-opacity="0.02" transform="translate(-17.0, 105.0)"  /><polyline points="17.0, 0, 34.0, 21.0, 17.0, 42.0, 0, 21.0" fill="#222" fill-opacity="0.098" stroke="#000" stroke-opacity="0.02" transform="translate(187.0, 105.0)"  /><polyline points="17.0, 0, 34.0, 21.0, 17.0, 42.0, 0, 21.0" fill="#ddd" fill-opacity="0.12400000000000001" stroke="#000" stroke-opacity="0.02" transform="translate(17.0, -21.0)"  /><polyline points="17.0, 0, 34.0, 21.0, 17.0, 42.0, 0, 21.0" fill="#ddd" fill-opacity="0.12400000000000001" stroke="#000" stroke-opacity="0.02" transform="translate(17.0, 105.0)"  /><polyline points="17.0, 0, 34.0, 21.0, 17.0, 42.0, 0, 21.0" fill="#222" fill-opacity="0.15" stroke="#000" stroke-opacity="0.02" transform="translate(51.0, -21.0)"  /><polyline points="17.0, 0, 34.0, 21.0, 17.0, 42.0, 0, 21.0" fill="#222" fill-opacity="0.15" stroke="#000" stroke-opacity="0.02" transform="translate(51.0, 105.0)"  /><polyline points="17.0, 0, 34.0, 21.0, 17.0, 42.0, 0, 21.0" fill="#222" fill-opacity="0.13266666666666665" stroke="#000" stroke-opacity="0.02" transform="translate(85.0, -21.0)"  /><polyline points="17.0, 0, 34.0, 21.0, 17.0, 42.0, 0, 21.0" fill="#222" fill-opacity="0.13266666666666665" stroke="#000" stroke-opacity="0.02" transform="translate(85.0, 105.0)"  /><polyline points="17.0, 0, 34.0, 21.0, 17.0, 42.0, 0, 21.0" fill="#ddd" fill-opacity="0.02" stroke="#000" stroke-opacity="0.02" transform="translate(119.0, -21.0)"  /><polyline points="17.0, 0, 34.0, 21.0, 17.0, 42.0, 0, 21.0" fill="#ddd" fill-opacity="0.02" stroke="#000" stroke-opacity="0.02" transform="translate(119.0, 105.0)"  /><polyline points="17.0, 0, 34.0, 21.0, 17.0, 42.0, 0, 21.0" fill="#222" fill-opacity="0.08066666666666666" stroke="#000" stroke-opacity="0.02" transform="translate(153.0, -21.0)"  /><polyline points="17.0, 0, 34.0, 21.0, 17.0, 42.0, 0, 21.0" fill="#222" fill-opacity="0.08066666666666666" stroke="#000" stroke-opacity="0.02" transform="translate(153.0, 105.0)"  /><polyline points="17.0, 0, 34.0, 21.0, 17.0, 42.0, 0, 21.0" fill="#ddd" fill-opacity="0.05466666666666667" stroke="#000" stroke-opacity="0.02" transform="translate(0.0, 0.0)"  /><polyline points="17.0, 0, 34.0, 21.0, 17.0, 42.0, 0, 21.0" fill="#ddd" fill-opacity="0.05466666666666667" stroke="#000" stroke-opacity="0.02" transform="translate(204.0, 0.0)"  /><polyline points="17.0, 0, 34.0, 21.0, 17.0, 42.0, 0, 21.0" fill="#ddd" fill-opacity="0.05466666666666667" stroke="#000" stroke-opacity="0.02" transform="translate(34.0, 0.0)"  /><polyline points="17.0, 0, 34.0, 21.0, 17.0, 42.0, 0, 21.0" fill="#ddd" fill-opacity="0.05466666666666667" stroke="#000" stroke-opacity="0.02" transform="translate(68.0, 0.0)"  /><polyline points="17.0, 0, 34.0, 21.0, 17.0, 42.0, 0, 21.0" fill="#ddd" fill-opacity="0.07200000000000001" stroke="#000" stroke-opacity="0.02" transform="translate(102.0, 0.0)"  /><polyline points="17.0, 0, 34.0, 21.0, 17.0, 42.0, 0, 21.0" fill="#222" fill-opacity="0.028666666666666667" stroke="#000" stroke-opacity="0.02" transform="translate(136.0, 0.0)"  /><polyline points="17.0, 0, 34.0, 21.0, 17.0, 42.0, 0, 21.0" fill="#222" fill-opacity="0.15" stroke="#000" stroke-opacity="0.02" transform="translate(170.0, 0.0)"  /><polyline points="17.0, 0, 34.0, 21.0, 17.0, 42.0, 0, 21.0" fill="#222" fill-opacity="0.06333333333333334" stroke="#000" stroke-opacity="0.02" transform="translate(-17.0, 21.0)"  /><polyline points="17.0, 0, 34.0, 21.0, 17.0, 42.0, 0, 21.0" fill="#222" fill-opacity="0.06333333333333334" stroke="#000" stroke-opacity="0.02" transform="translate(187.0, 21.0)"  /><polyline points="17.0, 0, 34.0, 21.0, 17.0, 42.0, 0, 21.0" fill="#ddd" fill-opacity="0.14133333333333334" stroke="#000" stroke-opacity="0.02" transform="translate(17.0, 21.0)"  /><polyline points="17.0, 0, 34.0, 21.0, 17.0, 42.0, 0, 21.0" fill="#222" fill-opacity="0.11533333333333334" stroke="#000" stroke-opacity="0.02" transform="translate(51.0, 21.0)"  /><polyline points="17.0, 0, 34.0, 21.0, 17.0, 42.0, 0, 21.0" fill="#222" fill-opacity="0.13266666666666665" stroke="#000" stroke-opacity="0.02" transform="translate(85.0, 21.0)"  /><polyline points="17.0, 0, 34.0, 21.0, 17.0, 42.0, 0, 21.0" fill="#ddd" fill-opacity="0.10666666666666667" stroke="#000" stroke-opacity="0.02" transform="translate(119.0, 21.0)"  /><polyline points="17.0, 0, 34.0, 21.0, 17.0, 42.0, 0, 21.0" fill="#222" fill-opacity="0.15" stroke="#000" stroke-opacity="0.02" transform="translate(153.0, 21.0)"  /><polyline points="17.0, 0, 34.0, 21.0, 17.0, 42.0, 0, 21.0" fill="#ddd" fill-opacity="0.12400000000000001" stroke="#000" stroke-opacity="0.02" transform="translate(0.0, 42.0)"  /><polyline points="17.0, 0, 34.0, 21.0, 17.0, 42.0, 0, 21.0" fill="#ddd" fill-opacity="0.12400000000000001" stroke="#000" stroke-opacity="0.02" transform="translate(204.0, 42.0)"  /><polyline points="17.0, 0, 34.0, 21.0, 17.0, 42.0, 0, 21.0" fill="#ddd" fill-opacity="0.08933333333333333" stroke="#000" stroke-opacity="0.02" transform="translate(34.0, 42.0)"  /><polyline points="17.0, 0, 34.0, 21.0, 17.0, 42.0, 0, 21.0" fill="#ddd" fill-opacity="0.03733333333333333" stroke="#000" stroke-opacity="0.02" transform="translate(68.0, 42.0)"  /><polyline points="17.0, 0, 34.0, 21.0, 17.0, 42.0, 0, 21.0" fill="#ddd" fill-opacity="0.08933333333333333" stroke="#000" stroke-opacity="0.02" transform="translate(102.0, 42.0)"  /><polyline points="17.0, 0, 34.0, 21.0, 17.0, 42.0, 0, 21.0" fill="#ddd" fill-opacity="0.10666666666666667" stroke="#000" stroke-opacity="0.02" transform="translate(136.0, 42.0)"  /><polyline points="17.0, 0, 34.0, 21.0, 17.0, 42.0, 0, 21.0" fill="#ddd" fill-opacity="0.12400000000000001" stroke="#000" stroke-opacity="0.02" transform="translate(170.0, 42.0)"  /><polyline points="17.0, 0, 34.0, 21.0, 17.0, 42.0, 0, 21.0" fill="#ddd" fill-opacity="0.03733333333333333" stroke="#000" stroke-opacity="0.02" transform="translate(-17.0, 63.0)"  /><polyline points="17.0, 0, 34.0, 21.0, 17.0, 42.0, 0, 21.0" fill="#ddd" fill-opacity="0.03733333333333333" stroke="#000" stroke-opacity="0.02" transform="translate(187.0, 63.0)"  /><polyline points="17.0, 0, 34.0, 21.0, 17.0, 42.0, 0, 21.0" fill="#ddd" fill-opacity="0.08933333333333333" stroke="#000" stroke-opacity="0.02" transform="translate(17.0, 63.0)"  /><polyline points="17.0, 0, 34.0, 21.0, 17.0, 42.0, 0, 21.0" fill="#222" fill-opacity="0.08066666666666666" stroke="#000" stroke-opacity="0.02" transform="translate(51.0, 63.0)"  /><polyline points="17.0, 0, 34.0, 21.0, 17.0, 42.0, 0, 21.0" fill="#222" fill-opacity="0.11533333333333334" stroke="#000" stroke-opacity="0.02" transform="translate(85.0, 63.0)"  /><polyline points="17.0, 0, 34.0, 21.0, 17.0, 42.0, 0, 21.0" fill="#ddd" fill-opacity="0.08933333333333333" stroke="#000" stroke-opacity="0.02" transform="translate(119.0, 63.0)"  /><polyline points="17.0, 0, 34.0, 21.0, 17.0, 42.0, 0, 21.0" fill="#ddd" fill-opacity="0.03733333333333333" stroke="#000" stroke-opacity="0.02" transform="translate(153.0, 63.0)"  /><polyline points="17.0, 0, 34.0, 21.0, 17.0, 42.0, 0, 21.0" fill="#222" fill-opacity="0.046" stroke="#000" stroke-opacity="0.02" transform="translate(0.0, 84.0)"  /><polyline points="17.0, 0, 34.0, 21.0, 17.0, 42.0, 0, 21.0" fill="#222" fill-opacity="0.046" stroke="#000" stroke-opacity="0.02" transform="translate(204.0, 84.0)"  /><polyline points="17.0, 0, 34.0, 21.0, 17.0, 42.0, 0, 21.0" fill="#222" fill-opacity="0.046" stroke="#000" stroke-opacity="0.02" transform="translate(34.0, 84.0)"  /><polyline points="17.0, 0, 34.0, 21.0, 17.0, 42.0, 0, 21.0" fill="#ddd" fill-opacity="0.12400000000000001" stroke="#000" stroke-opacity="0.02" transform="translate(68.0, 84.0)"  /><polyline points="17.0, 0, 34.0, 21.0, 17.0, 42.0, 0, 21.0" fill="#222" fill-opacity="0.11533333333333334" stroke="#000" stroke-opacity="0.02" transform="translate(102.0, 84.0)"  /><polyline points="17.0, 0, 34.0, 21.0, 17.0, 42.0, 0, 21.0" fill="#ddd" fill-opacity="0.03733333333333333" stroke="#000" stroke-opacity="0.02" transform="translate(136.0, 84.0)"  /><polyline points="17.0, 0, 34.0, 21.0, 17.0, 42.0, 0, 21.0" fill="#ddd" fill-opacity="0.05466666666666667" stroke="#000" stroke-opacity="0.02" transform="translate(170.0, 84.0)"  /></svg>