<svg xmlns="http://www.w3.org/2000/svg" width="188" height="110"><rect x="0" y="0" width="100%" height="100%" fill="rgb(127, 56, 151)"  /><polyline points="15.666666666666666, 0, 31.333333333333332, 18.333333333333336, 15.666666666666666, 36.66666666666667, 0, 18.333333333333336" fill="#ddd" fill-opacity="0.08933333333333333" stroke="#000" stroke-opacity="0.02" transform="translate(-15.666666666666666, -18.333333333333336)"  /><polyline points="15.666666666666666, 0, 31.333333333333332, 18.333333333333336, 15.666666666666666, 36.66666666666667, 0, 18.333333333333336" fill="#ddd" fill-opacity="0.08933333333333333" stroke="#000" stroke-opacity="0.02" transform="translate(172.33333333333334, -18.333333333333336)"  /><polyline points="15.666666666666666, 0, 31.333333333333332, 18.333333333333336, 15.666666666666666, 36.66666666666667, 0, 18.333333333333336" fill="#ddd" fill-opacity="0.08933333333333333" stroke="#000" stroke-opacity="0.02" transform="translate(-15.666666666666666, 91.66666666666669)"  /><polyline points="15.666666666666666, 0, 31.333333333333332, 18.333333333333336, 15.666666666666666, 36.66666666666667, 0, 18.333333333333336" fill="#ddd" fill-opacity="0.08933333333333333" stroke="#000" stroke-opacity="0.02" transform="translate(172.33333333333334, 91.66666666666669)"  /><polyline points="15.666666666666666, 0, 31.333333333333332, 18.333333333333336, 15.666666666666666, 36.66666666666667, 0, 18.333333333333336" fill="#ddd" fill-opacity="0.10666666666666667" stroke="#000" stroke-opacity="0.02" transform="translate(15.666666666666666, -18.333333333333336)"  /><polyline points="15.666666666666666, 0, 31.333333333333332, 18.333333333333336, 15.666666666666666, 36.66666666666667, 0, 18.333333333333336" fill="#ddd" fill-opacity="0.10666666666666667" stroke="#000" stroke-opacity="0.02" transform="translate(15.666666666666666, 91.66666666666669)"  /><polyline points="15.666666666666666, 0, 31.333333333333332, 18.333333333333336, 15.666666666666666, 36.66666666666667, 0, 18.333333333333336" fill="#ddd" fill-opacity="0.12400000000000001" stroke="#000" stroke-opacity="0.02" transform="translate(47.0, -18.333333333333336)"  /><polyline points="15.666666666666666, 0, 31.333333333333332, 18.333333333333336, 15.666666666666666, 36.66666666666667, 0, 18.333333333333336" fill="#ddd" fill-opacity="0.12400000000000001" stroke="#000" stroke-opacity="0.02" transform="translate(47.0, 91.66666666666669)"  /><polyline points="15.666666666666666, 0, 31.333333333333332, 18.333333333333336, 15.666666666666666, 36.66666666666667, 0, 18.333333333333336" fill="#222" fill-opacity="0.11533333333333334" stroke="#000" stroke-opacity="0.02" transform="translate(78.33333333333333, -18.333333333333336)"  /><polyline points="15.666666666666666, 0, 31.333333333333332, 18.333333333333336, 15.666666666666666, 36.66666666666667, 0, 18.333333333333336" fill="#222" fill-opacity="0.11533333333333334" stroke="#000" stroke-opacity="0.02" transform="translate(78.33333333333333, 91.66666666666669)"  /><polyline points="15.666666666666666, 0, 31.333333333333332, 18.333333333333336, 15.666666666666666, 36.66666666666667, 0, 18.333333333333336" fill="#ddd" fill-opacity="0.05466666666666667" stroke="#000" stroke-opacity="0.02" transform="translate(109.66666666666666, -18.333333333333336)"  /><polyline points="15.666666666666666, 0, 31.333333333333332, 18.333333333333336, 15.666666666666666, 36.66666666666667, 0, 18.333333333333336" fill="#ddd" fill-opacity="0.05466666666666667" stroke="#000" stroke-opacity="0.02" transform="translate(109.66666666666666, 91.66666666666669)"  /><polyline points="15.666666666666666, 0, 31.333333333333332, 18.333333333333336, 15.666666666666666, 36.66666666666667, 0, 18.333333333333336" fill="#222" fill-opacity="0.06333333333333334" stroke="#000" stroke-opacity="0.02" transform="translate(141.0, -18.333333333333336)"  /><polyline points="15.666666666666666, 0, 31.333333333333332, 18.333333333333336, 15.666666666666666, 36.66666666666667, 0, 18.333333333333336" fill="#222" fill-opacity="0.06333333333333334" stroke="#000" stroke-opacity="0.02" transform="translate(141.0, 91.66666666666669)"  /><polyline points="15.666666666666666, 0, 31.333333333333332, 18.333333333333336, 15.666666666666666, 36.66666666666667, 0, 18.333333333333336" fill="#222" fill-opacity="0.13266666666666665" stroke="#000" stroke-opacity="0.02" transform="translate(0.0, 0.0)"  /><polyline points="15.666666666666666, 0, 31.333333333333332, 18.333333333333336, 15.666666666666666, 36.66666666666667, 0, 18.333333333333336" fill="#222" fill-opacity="0.13266666666666665" stroke="#000" stroke-opacity="0.02" transform="translate(188.0, 0.0)"  /><polyline points="15.666666666666666, 0, 31.333333333333332, 18.333333333333336, 15.666666666666666, 36.66666666666667, 0, 18.333333333333336" fill="#ddd" fill-opacity="0.08933333333333333" stroke="#000" stroke-opacity="0.02" transform="translate(31.333333333333332, 0.0)"  /><polyline points="15.666666666666666, 0, 31.333333333333332, 18.333333333333336, 15.666666666666666, 36.66666666666667, 0, 18.333333333333336" fill="#222" fill-opacity="0.11533333333333334" stroke="#000" stroke-opacity="0.02" transform="translate(62.666666666666664, 0.0)"  /><polyline points="15.666666666666666, 0, 31.333333333333332, 18.333333333333336, 15.666666666666666, 36.66666666666667, 0, 18.333333333333336" fill="#222" fill-opacity="0.028666666666666667" stroke="#000" stroke-opacity="0.02" transform="translate(94.0, 0.0)"  /><polyline points="15.666666666666666, 0, 31.333333333333332, 18.333333333333336, 15.666666666666666, 36.66666666666667, 0, 18.333333333333336" fill="#ddd" fill-opacity="0.14133333333333334" stroke="#000" stroke-opacity="0.02" transform="translate(125.33333333333333, 0.0)"  /><polyline points="15.666666666666666, 0, 31.333333333333332, 18.333333333333336, 15.666666666666666, 36.66666666666667, 0, 18.333333333333336" fill="#ddd" fill-opacity="0.03733333333333333" stroke="#000" stroke-opacity="0.02" transform="translate(156.66666666666666, 0.0)"  /><polyline points="15.666666666666666, 0, 31.333333333333332, 18.333333333333336, 15.666666666666666, 36.66666666666667, 0, 18.333333333333336" fill="#ddd" fill-opacity="0.14133333333333334" stroke="#000" stroke-opacity="0.02" transform="translate(-15.666666666666666, 18.333333333333336)"  /><polyline points="15.666666666666666, 0, 31.333333333333332, 18.333333333333336, 15.666666666666666, 36.66666666666667, 0, 18.333333333333336" fill="#ddd" fill-opacity="0.14133333333333334" stroke="#000" stroke-opacity="0.02" transform="translate(172.33333333333334, 18.333333333333336)"  /><polyline points="15.666666666666666, 0, 31.333333333333332, 18.333333333333336, 15.666666666666666, 36.66666666666667, 0, 18.333333333333336" fill="#ddd" fill-opacity="0.12400000000000001" stroke="#000" stroke-opacity="0.02" transform="translate(15.666666666666666, 18.333333333333336)"  /><polyline points="15.666666666666666, 0, 31.333333333333332, 18.333333333333336, 15.666666666666666, 36.66666666666667, 0, 18.333333333333336" fill="#222" fill-opacity="0.046" stroke="#000" stroke-opacity="0.02" transform="translate(47.0, 18.333333333333336)"  /><polyline points="15.666666666666666, 0, 31.333333333333332, 18.333333333333336, 15.666666666666666, 36.66666666666667, 0, 18.333333333333336" fill="#222" fill-opacity="0.06333333333333334" stroke="#000" stroke-opacity="0.02" transform="translate(78.33333333333333, 18.333333333333336)"  /><polyline points="15.666666666666666, 0, 31.333333333333332, 18.333333333333336, 15.666666666666666, 36.66666666666667, 0, 18.333333333333336" fill="#ddd" fill-opacity="0.08933333333333333" stroke="#000" stroke-opacity="0.02" transform="translate(109.66666666666666, 18.333333333333336)"  /><polyline points="15.666666666666666, 0, 31.333333333333332, 18.333333333333336, 15.666666666666666, 36.66666666666667, 0, 18.333333333333336" fill="#ddd" fill-opacity="0.05466666666666667" stroke="#000" stroke-opacity="0.02" transform="translate(141.0, 18.333333333333336)"  /><polyline points="15.666666666666666, 0, 31.333333333333332, 18.333333333333336, 15.666666666666666, 36.66666666666667, 0, 18.333333333333336" fill="#ddd" fill-opacity="0.12400000000000001" stroke="#000" stroke-opacity="0.02" transform="translate(0.0, 36.66666666666667)"  /><polyline points="15.666666666666666, 0, 31.333333333333332, 18.333333333333336, 15.666666666666666, 36.66666666666667, 0, 18.333333333333336" fill="#ddd" fill-opacity="0.12400000000000001" stroke="#000" stroke-opacity="0.02" transform="translate(188.0, 36.66666666666667)"  /><polyline points="15.666666666666666, 0, 31.333333333333332, 18.333333333333336, 15.666666666666666, 36.66666666666667, 0, 18.333333333333336" fill="#222" fill-opacity="0.046" stroke="#000" stroke-opacity="0.02" transform="translate(31.333333333333332, 36.66666666666667)"  /><polyline points="15.666666666666666, 0, 31.333333333333332, 18.333333333333336, 15.666666666666666, 36.66666666666667, 0, 18.333333333333336" fill="#ddd" fill-opacity="0.03733333333333333" stroke="#000" stroke-opacity="0.02" transform="translate(62.666666666666664, 36.66666666666667)"  /><polyline points="15.666666666666666, 0, 31.333333333333332, 18.333333333333336, 15.666666666666666, 36.66666666666667, 0, 18.333333333333336" fill="#ddd" fill-opacity="0.10666666666666667" stroke="#000" stroke-opacity="0.02" transform="translate(94.0, 36.66666666666667)"  /><polyline points="15.666666666666666, 0, 31.333333333333332, 18.333333333333336, 15.666666666666666, 36.66666666666667, 0, 18.333333333333336" fill="#222" fill-opacity="0.028666666666666667" stroke="#000" stroke-opacity="0.02" transform="translate(125.33333333333333, 36.66666666666667)"  /><polyline points="15.666666666666666, 0, 31.333333333333332, 18.333333333333336, 15.666666666666666, 36.66666666666667, 0, 18.333333333333336" fill="#222" fill-opacity="0.13266666666666665" stroke="#000" stroke-opacity="0.02" transform="translate(156.66666666666666, 36.66666666666667)"  /><polyline points="15.666666666666666, 0, 31.333333333333332, 18.333333333333336, 15.666666666666666, 36.66666666666667, 0, 18.333333333333336" fill="#222" fill-opacity="0.098" stroke="#000" stroke-opacity="0.02" transform="translate(-15.666666666666666, 55.00000000000001)"  /><polyline points="15.666666666666666, 0, 31.333333333333332, 18.333333333333336, 15.666666666666666, 36.66666666666667, 0, 18.333333333333336" fill="#222" fill-opacity="0.098" stroke="#000" stroke-opacity="0.02" transform="translate(172.33333333333334, 55.00000000000001)"  /><polyline points="15.666666666666666, 0, 31.333333333333332, 18.333333333333336, 15.666666666666666, 36.66666666666667, 0, 18.333333333333336" fill="#222" fill-opacity="0.15" stroke="#000" stroke-opacity="0.02" transform="translate(15.666666666666666, 55.00000000000001)"  /><polyline points="15.666666666666666, 0, 31.333333333333332, 18.333333333333336, 15.666666666666666, 36.66666666666667, 0, 18.333333333333336" fill="#222" fill-opacity="0.028666666666666667" stroke="#000" stroke-opacity="0.02" transform="translate(47.0, 55.00000000000001)"  /><polyline points="15.666666666666666, 0, 31.333333333333332, 18.333333333333336, 15.666666666666666, 36.66666666666667, 0, 18.333333333333336" fill="#222" fill-opacity="0.06333333333333334" stroke="#000" stroke-opacity="0.02" transform="translate(78.33333333333333, 55.00000000000001)"  /><polyline points="15.666666666666666, 0, 31.333333333333332, 18.333333333333336, 15.666666666666666, 36.66666666666667, 0, 18.333333333333336" fill="#222" fill-opacity="0.06333333333333334" stroke="#000" stroke-opacity="0.02" transform="translate(109.66666666666666, 55.00000000000001)"  /><polyline points="15.666666666666666, 0, 31.333333333333332, 18.333333333333336, 15.666666666666666, 36.66666666666667, 0, 18.333333333333336" fill="#ddd" fill-opacity="0.12400000000000001" stroke="#000" stroke-opacity="0.02" transform="translate(141.0, 55.00000000000001)"  /><polyline points="15.666666666666666, 0, 31.333333333333332, 18.333333333333336, 15.666666666666666, 36.66666666666667, 0, 18.333333333333336" fill="#222" fill-opacity="0.11533333333333334" stroke="#000" stroke-opacity="0.02" transform="translate(0.0, 73.33333333333334)"  /><polyline points="15.666666666666666, 0, 31.333333333333332, 18.333333333333336, 15.666666666666666, 36.66666666666667, 0, 18.333333333333336" fill="#222" fill-opacity="0.11533333333333334" stroke="#000" stroke-opacity="0.02" transform="translate(188.0, 73.33333333333334)"  /><polyline points="15.666666666666666, 0, 31.333333333333332, 18.333333333333336, 15.666666666666666, 36.66666666666667, 0, 18.333333333333336" fill="#ddd" fill-opacity="0.14133333333333334" stroke="#000" stroke-opacity="0.02" transform="translate(31.333333333333332, 73.33333333333334)"  /><polyline points="15.666666666666666, 0, 31.333333333333332, 18.333333333333336, 15.666666666666666, 36.66666666666667, 0, 18.333333333333336" fill="#222" fill-opacity="0.06333333333333334" stroke="#000" stroke-opacity="0.02" transform="translate(62.666666666666664, 73.33333333333334)"  /><polyline points="15.666666666666666, 0, 31.333333333333332, 18.333333333333336, 15.666666666666666, 36.66666666666667, 0, 18.333333333333336" fill="#222" fill-opacity="0.15" stroke="#000" stroke-opacity="0.02" transform="translate(94.0, 73.33333333333334)"  /><polyline points="15.666666666666666, 0, 31.333333333333332, 18.333333333333336, 15.666666666666666, 36.66666666666667, 0, 18.333333333333336" fill="#222" fill-opacity="0.15" stroke="#000" stroke-opacity="0.02" transform="translate(125.33333333333333, 73.33333333333334)"  /><polyline points="15.666666666666666, 0, 31.333333333333332, 18.333333333333336, 15.666666666666666, 36.66666666666667, 0, 18.333333333333336" fill="#222" fill-opacity="0.098" stroke="#000" stroke-opacity="0.02" transform="translate(156.66666666666666, 73.33333333333334)"  /></svg>