<svg xmlns="http://www.w3.org/2000/svg" width="34" height="40"><rect x="0" y="0" width="100%" height="100%" fill="rgb(121, 159, 48)"  /><rect x="-3.666666666666667" y="-3.666666666666667" width="7.333333333333334" height="7.333333333333334" stroke="#000" stroke-opacity="0.02" fill="#222" fill-opacity="0.028666666666666667" stroke-width="1"  /><rect x="31.0350392555051" y="-3.666666666666667" width="7.333333333333334" height="7.333333333333334" stroke="#000" stroke-opacity="0.02" fill="#222" fill-opacity="0.028666666666666667" stroke-width="1"  /><rect x="-3.666666666666667" y="36.40341184434354" width="7.333333333333334" height="7.333333333333334" stroke="#000" stroke-opacity="0.02" fill="#222" fill-opacity="0.028666666666666667" stroke-width="1"  /><rect x="31.0350392555051" y="36.40341184434354" width="7.333333333333334" height="7.333333333333334" stroke="#000" stroke-opacity="0.02" fill="#222" fill-opacity="0.028666666666666667" stroke-width="1"  /><rect x="13.684186294419217" y="6.3508529610858835" width="7.333333333333334" height="7.333333333333334" stroke="#000" stroke-opacity="0.02" fill="#ddd" fill-opacity="0.14133333333333334" stroke-width="1"  /><rect x="-3.666666666666667" y="16.368372588838433" width="7.333333333333334" height="7.333333333333334" stroke="#000" stroke-opacity="0.02" fill="#ddd" fill-opacity="0.14133333333333334" stroke-width="1"  /><rect x="31.0350392555051" y="16.368372588838433" width="7.333333333333334" height="7.333333333333334" stroke="#000" stroke-opacity="0.02" fill="#ddd" fill-opacity="0.14133333333333334" stroke-width="1"  /><rect x="13.684186294419217" y="26.38589221659098" width="7.333333333333334" height="7.333333333333334" stroke="#000" stroke-opacity="0.02" fill="#222" fill-opacity="0.08066666666666666" stroke-width="1"  /><polyline points="0, 0, 6.3508529610858835, 3.666666666666667, 0, 7.333333333333334, 0, 0" stroke="#000" stroke-opacity="0.02" fill="#222" fill-opacity="0.046" stroke-width="1" transform="translate(3.666666666666667, -3.666666666666667) rotate(0, 3.666666666666667, 3.1754264805429417)"  /><polyline points="0, 0, 6.3508529610858835, 3.666666666666667, 0, 7.333333333333334, 0, 0" stroke="#000" stroke-opacity="0.02" fill="#222" fill-opacity="0.046" stroke-width="1" transform="translate(3.666666666666667, 43.736745177676866) rotate(0, 3.666666666666667, 3.1754264805429417) scale(1, -1)"  /><polyline points="0, 0, 6.3508529610858835, 3.666666666666667, 0, 7.333333333333334, 0, 0" stroke="#000" stroke-opacity="0.02" fill="#ddd" fill-opacity="0.08933333333333333" stroke-width="1" transform="translate(31.0350392555051, -3.666666666666667) rotate(0, 3.666666666666667, 3.1754264805429417) scale(-1, 1)"  /><polyline points="0, 0, 6.3508529610858835, 3.666666666666667, 0, 7.333333333333334, 0, 0" stroke="#000" stroke-opacity="0.02" fill="#ddd" fill-opacity="0.08933333333333333" stroke-width="1" transform="translate(31.0350392555051, 43.736745177676866) rotate(0, 3.666666666666667, 3.1754264805429417) scale(-1, -1)"  /><polyline points="0, 0, 6.3508529610858835, 3.666666666666667, 0, 7.333333333333334, 0, 0" stroke="#000" stroke-opacity="0.02" fill="#222" fill-opacity="0.15" stroke-width="1" transform="translate(21.017519627752552, 6.3508529610858835)"  /><polyline points="0, 0, 6.3508529610858835, 3.666666666666667, 0, 7.333333333333334, 0, 0" stroke="#000" stroke-opacity="0.02" fill="#ddd" fill-opacity="0.05466666666666667" stroke-width="1" transform="translate(13.684186294419217, 6.3508529610858835) scale(-1, 1)"  /><polyline points="0, 0, 6.3508529610858835, 3.666666666666667, 0, 7.333333333333334, 0, 0" stroke="#000" stroke-opacity="0.02" fill="#222" fill-opacity="0.13266666666666665" stroke-width="1" transform="translate(21.017519627752552, 33.71922554992432) scale(1, -1)"  /><polyline points="0, 0, 6.3508529610858835, 3.666666666666667, 0, 7.333333333333334, 0, 0" stroke="#000" stroke-opacity="0.02" fill="#ddd" fill-opacity="0.07200000000000001" stroke-width="1" transform="translate(13.684186294419217, 33.71922554992432) scale(-1, -1)"  /><polyline points="0, 0, 6.3508529610858835, 3.666666666666667, 0, 7.333333333333334, 0, 0" stroke="#000" stroke-opacity="0.02" fill="#222" fill-opacity="0.11533333333333334" stroke-width="1" transform="translate(3.666666666666667, 16.368372588838433)"  /><polyline points="0, 0, 6.3508529610858835, 3.666666666666667, 0, 7.333333333333334, 0, 0" stroke="#000" stroke-opacity="0.02" fill="#222" fill-opacity="0.028666666666666667" stroke-width="1" transform="translate(31.0350392555051, 16.368372588838433) scale(-1, 1)"  /><rect x="0" y="0" width="7.333333333333334" height="7.333333333333334" stroke="#000" stroke-opacity="0.02" fill="#222" fill-opacity="0.06333333333333334" stroke-width="1" transform="translate(3.666666666666667, 3.666666666666667) rotate(-30, 0, 0)"  /><rect x="0" y="0" width="7.333333333333334" height="7.333333333333334" stroke="#000" stroke-opacity="0.02" fill="#ddd" fill-opacity="0.07200000000000001" stroke-width="1" transform="scale(-1, 1) translate(-31.0350392555051, 3.666666666666667) rotate(-30, 0, 0)"  /><rect x="0" y="0" width="7.333333333333334" height="7.333333333333334" stroke="#000" stroke-opacity="0.02" fill="#ddd" fill-opacity="0.12400000000000001" stroke-width="1" transform="translate(3.666666666666667, 9.0350392555051) rotate(30, 0, 7.333333333333334)"  /><rect x="0" y="0" width="7.333333333333334" height="7.333333333333334" stroke="#000" stroke-opacity="0.02" fill="#222" fill-opacity="0.08066666666666666" stroke-width="1" transform="scale(-1, 1) translate(-31.0350392555051, 9.0350392555051) rotate(30, 0, 7.333333333333334)"  /><rect x="0" y="0" width="7.333333333333334" height="7.333333333333334" stroke="#000" stroke-opacity="0.02" fill="#ddd" fill-opacity="0.02" stroke-width="1" transform="scale(1, -1) translate(3.666666666666667, -31.035039255505104) rotate(30, 0, 7.333333333333334)"  /><rect x="0" y="0" width="7.333333333333334" height="7.333333333333334" stroke="#000" stroke-opacity="0.02" fill="#ddd" fill-opacity="0.12400000000000001" stroke-width="1" transform="scale(-1, -1) translate(-31.0350392555051, -31.035039255505104) rotate(30, 0, 7.333333333333334)"  /><rect x="0" y="0" width="7.333333333333334" height="7.333333333333334" stroke="#000" stroke-opacity="0.02" fill="#222" fill-opacity="0.098" stroke-width="1" transform="scale(1, -1) translate(3.666666666666667, -36.40341184434354) rotate(-30, 0, 0)"  /><rect x="0" y="0" width="7.333333333333334" height="7.333333333333334" stroke="#000" stroke-opacity="0.02" fill="#222" fill-opacity="0.06333333333333334" stroke-width="1" transform="scale(-1, -1) translate(-31.0350392555051, -36.40341184434354) rotate(-30, 0, 0)"  /></svg>