<svg xmlns="http://www.w3.org/2000/svg" width="72" height="72"><rect x="0" y="0" width="100%" height="100%" fill="rgb(102, 136, 71)"  /><circle cx="6.0" cy="6.0" r="5.0" fill="none" stroke="#ddd" style="opacity:0.02;stroke-width:2.0px;"  /><circle cx="6.0" cy="6.0" r="2.5" fill="#ddd" fill-opacity="0.02"  /><circle cx="18.0" cy="6.0" r="5.0" fill="none" stroke="#ddd" style="opacity:0.05466666666666667;stroke-width:2.0px;"  /><circle cx="18.0" cy="6.0" r="2.5" fill="#ddd" fill-opacity="0.14133333333333334"  /><circle cx="30.0" cy="6.0" r="5.0" fill="none" stroke="#ddd" style="opacity:0.12400000000000001;stroke-width:2.0px;"  /><circle cx="30.0" cy="6.0" r="2.5" fill="#ddd" fill-opacity="0.07200000000000001"  /><circle cx="42.0" cy="6.0" r="5.0" fill="none" stroke="#222" style="opacity:0.13266666666666665;stroke-width:2.0px;"  /><circle cx="42.0" cy="6.0" r="2.5" fill="#ddd" fill-opacity="0.08933333333333333"  /><circle cx="54.0" cy="6.0" r="5.0" fill="none" stroke="#ddd" style="opacity:0.08933333333333333;stroke-width:2.0px;"  /><circle cx="54.0" cy="6.0" r="2.5" fill="#ddd" fill-opacity="0.07200000000000001"  /><circle cx="66.0" cy="6.0" r="5.0" fill="none" stroke="#ddd" style="opacity:0.12400000000000001;stroke-width:2.0px;"  /><circle cx="66.0" cy="6.0" r="2.5" fill="#ddd" fill-opacity="0.12400000000000001"  /><circle cx="6.0" cy="18.0" r="5.0" fill="none" stroke="#222" style="opacity:0.15;stroke-width:2.0px;"  /><circle cx="6.0" cy="18.0" r="2.5" fill="#222" fill-opacity="0.028666666666666667"  /><circle cx="18.0" cy="18.0" r="5.0" fill="none" stroke="#222" style="opacity:0.08066666666666666;stroke-width:2.0px;"  /><circle cx="18.0" cy="18.0" r="2.5" fill="#222" fill-opacity="0.08066666666666666"  /><circle cx="30.0" cy="18.0" r="5.0" fill="none" stroke="#ddd" style="opacity:0.05466666666666667;stroke-width:2.0px;"  /><circle cx="30.0" cy="18.0" r="2.5" fill="#222" fill-opacity="0.06333333333333334"  /><circle cx="42.0" cy="18.0" r="5.0" fill="none" stroke="#ddd" style="opacity:0.03733333333333333;stroke-width:2.0px;"  /><circle cx="42.0" cy="18.0" r="2.5" fill="#ddd" fill-opacity="0.12400000000000001"  /><circle cx="54.0" cy="18.0" r="5.0" fill="none" stroke="#222" style="opacity:0.06333333333333334;stroke-width:2.0px;"  /><circle cx="54.0" cy="18.0" r="2.5" fill="#ddd" fill-opacity="0.12400000000000001"  /><circle cx="66.0" cy="18.0" r="5.0" fill="none" stroke="#ddd" style="opacity:0.03733333333333333;stroke-width:2.0px;"  /><circle cx="66.0" cy="18.0" r="2.5" fill="#ddd" fill-opacity="0.10666666666666667"  /><circle cx="6.0" cy="30.0" r="5.0" fill="none" stroke="#222" style="opacity:0.13266666666666665;stroke-width:2.0px;"  /><circle cx="6.0" cy="30.0" r="2.5" fill="#ddd" fill-opacity="0.02"  /><circle cx="18.0" cy="30.0" r="5.0" fill="none" stroke="#222" style="opacity:0.06333333333333334;stroke-width:2.0px;"  /><circle cx="18.0" cy="30.0" r="2.5" fill="#222" fill-opacity="0.15"  /><circle cx="30.0" cy="30.0" r="5.0" fill="none" stroke="#222" style="opacity:0.11533333333333334;stroke-width:2.0px;"  /><circle cx="30.0" cy="30.0" r="2.5" fill="#ddd" fill-opacity="0.10666666666666667"  /><circle cx="42.0" cy="30.0" r="5.0" fill="none" stroke="#222" style="opacity:0.15;stroke-width:2.0px;"  /><circle cx="42.0" cy="30.0" r="2.5" fill="#222" fill-opacity="0.028666666666666667"  /><circle cx="54.0" cy="30.0" r="5.0" fill="none" stroke="#ddd" style="opacity:0.07200000000000001;stroke-width:2.0px;"  /><circle cx="54.0" cy="30.0" r="2.5" fill="#222" fill-opacity="0.098"  /><circle cx="66.0" cy="30.0" r="5.0" fill="none" stroke="#222" style="opacity:0.11533333333333334;stroke-width:2.0px;"  /><circle cx="66.0" cy="30.0" r="2.5" fill="#222" fill-opacity="0.15"  /><circle cx="6.0" cy="42.0" r="5.0" fill="none" stroke="#ddd" style="opacity:0.05466666666666667;stroke-width:2.0px;"  /><circle cx="6.0" cy="42.0" r="2.5" fill="#ddd" fill-opacity="0.12400000000000001"  /><circle cx="18.0" cy="42.0" r="5.0" fill="none" stroke="#222" style="opacity:0.028666666666666667;stroke-width:2.0px;"  /><circle cx="18.0" cy="42.0" r="2.5" fill="#222" fill-opacity="0.028666666666666667"  /><circle cx="30.0" cy="42.0" r="5.0" fill="none" stroke="#222" style="opacity:0.028666666666666667;stroke-width:2.0px;"  /><circle cx="30.0" cy="42.0" r="2.5" fill="#222" fill-opacity="0.028666666666666667"  /><circle cx="42.0" cy="42.0" r="5.0" fill="none" stroke="#ddd" style="opacity:0.12400000000000001;stroke-width:2.0px;"  /><circle cx="42.0" cy="42.0" r="2.5" fill="#ddd" fill-opacity="0.05466666666666667"  /><circle cx="54.0" cy="42.0" r="5.0" fill="none" stroke="#222" style="opacity:0.15;stroke-width:2.0px;"  /><circle cx="54.0" cy="42.0" r="2.5" fill="#222" fill-opacity="0.11533333333333334"  /><circle cx="66.0" cy="42.0" r="5.0" fill="none" stroke="#222" style="opacity:0.098;stroke-width:2.0px;"  /><circle cx="66.0" cy="42.0" r="2.5" fill="#ddd" fill-opacity="0.07200000000000001"  /><circle cx="6.0" cy="54.0" r="5.0" fill="none" stroke="#222" style="opacity:0.028666666666666667;stroke-width:2.0px;"  /><circle cx="6.0" cy="54.0" r="2.5" fill="#222" fill-opacity="0.15"  /><circle cx="18.0" cy="54.0" r="5.0" fill="none" stroke="#ddd" style="opacity:0.10666666666666667;stroke-width:2.0px;"  /><circle cx="18.0" cy="54.0" r="2.5" fill="#222" fill-opacity="0.11533333333333334"  /><circle cx="30.0" cy="54.0" r="5.0" fill="none" stroke="#222" style="opacity:0.15;stroke-width:2.0px;"  /><circle cx="30.0" cy="54.0" r="2.5" fill="#222" fill-opacity="0.06333333333333334"  /><circle cx="42.0" cy="54.0" r="5.0" fill="none" stroke="#ddd" style="opacity:0.02;stroke-width:2.0px;"  /><circle cx="42.0" cy="54.0" r="2.5" fill="#222" fill-opacity="0.13266666666666665"  /><circle cx="54.0" cy="54.0" r="5.0" fill="none" stroke="#ddd" style="opacity:0.10666666666666667;stroke-width:2.0px;"  /><circle cx="54.0" cy="54.0" r="2.5" fill="#ddd" fill-opacity="0.03733333333333333"  /><circle cx="66.0" cy="54.0" r="5.0" fill="none" stroke="#ddd" style="opacity:0.12400000000000001;stroke-width:2.0px;"  /><circle cx="66.0" cy="54.0" r="2.5" fill="#222" fill-opacity="0.06333333333333334"  /><circle cx="6.0" cy="66.0" r="5.0" fill="none" stroke="#ddd" style="opacity:0.12400000000000001;stroke-width:2.0px;"  /><circle cx="6.0" cy="66.0" r="2.5" fill="#ddd" fill-opacity="0.03733333333333333"  /><circle cx="18.0" cy="66.0" r="5.0" fill="none" stroke="#222" style="opacity:0.06333333333333334;stroke-width:2.0px;"  /><circle cx="18.0" cy="66.0" r="2.5" fill="#ddd" fill-opacity="0.05466666666666667"  /><circle cx="30.0" cy="66.0" r="5.0" fill="none" stroke="#222" style="opacity:0.08066666666666666;stroke-width:2.0px;"  /><circle cx="30.0" cy="66.0" r="2.5" fill="#222" fill-opacity="0.08066666666666666"  /><circle cx="42.0" cy="66.0" r="5.0" fill="none" stroke="#222" style="opacity:0.028666666666666667;stroke-width:2.0px;"  /><circle cx="42.0" cy="66.0" r="2.5" fill="#222" fill-opacity="0.15"  /><circle cx="54.0" cy="66.0" r="5.0" fill="none" stroke="#ddd" style="opacity:0.12400000000000001;stroke-width:2.0px;"  /><circle cx="54.0" cy="66.0" r="2.5" fill="#ddd" fill-opacity="0.12400000000000001"  /><circle cx="66.0" cy="66.0" r="5.0" fill="none" stroke="#ddd" style="opacity:0.07200000000000001;stroke-width:2.0px;"  /><circle cx="66.0" cy="66.0" r="2.5" fill="#ddd" fill-opacity="0.08933333333333333"  /></svg>