<svg xmlns="http://www.w3.org/2000/svg" width="437" height="437"><rect x="0" y="0" width="100%" height="100%" fill="rgb(46, 144, 161)"  /><rect x="0" y="6" width="100%" height="10" opacity="0.06333333333333334" fill="#222"  /><rect x="0" y="31" width="100%" height="5" opacity="0.02" fill="#ddd"  /><rect x="0" y="53" width="100%" height="7" opacity="0.03733333333333333" fill="#ddd"  /><rect x="0" y="66" width="100%" height="17" opacity="0.12400000000000001" fill="#ddd"  /><rect x="0" y="88" width="100%" height="17" opacity="0.12400000000000001" fill="#ddd"  /><rect x="0" y="125" width="100%" height="12" opacity="0.08066666666666666" fill="#222"  /><rect x="0" y="146" width="100%" height="6" opacity="0.028666666666666667" fill="#222"  /><rect x="0" y="164" width="100%" height="14" opacity="0.098" fill="#222"  /><rect x="0" y="195" width="100%" height="19" opacity="0.14133333333333334" fill="#ddd"  /><rect x="0" y="231" width="100%" height="7" opacity="0.03733333333333333" fill="#ddd"  /><rect x="0" y="252" width="100%" height="18" opacity="0.13266666666666665" fill="#222"  /><rect x="0" y="282" width="100%" height="16" opacity="0.11533333333333334" fill="#222"  /><rect x="0" y="303" width="100%" height="11" opacity="0.07200000000000001" fill="#ddd"  /><rect x="0" y="327" width="100%" height="14" opacity="0.098" fill="#222"  /><rect x="0" y="357" width="100%" height="5" opacity="0.02" fill="#ddd"  /><rect x="0" y="371" width="100%" height="14" opacity="0.098" fill="#222"  /><rect x="0" y="405" width="100%" height="14" opacity="0.098" fill="#222"  /><rect x="0" y="432" width="100%" height="5" opacity="0.02" fill="#ddd"  /><rect x="6" y="0" width="10" height="100%" opacity="0.06333333333333334" fill="#222"  /><rect x="31" y="0" width="5" height="100%" opacity="0.02" fill="#ddd"  /><rect x="53" y="0" width="7" height="100%" opacity="0.03733333333333333" fill="#ddd"  /><rect x="66" y="0" width="17" height="100%" opacity="0.12400000000000001" fill="#ddd"  /><rect x="88" y="0" width="17" height="100%" opacity="0.12400000000000001" fill="#ddd"  /><rect x="125" y="0" width="12" height="100%" opacity="0.08066666666666666" fill="#222"  /><rect x="146" y="0" width="6" height="100%" opacity="0.028666666666666667" fill="#222"  /><rect x="164" y="0" width="14" height="100%" opacity="0.098" fill="#222"  /><rect x="195" y="0" width="19" height="100%" opacity="0.14133333333333334" fill="#ddd"  /><rect x="231" y="0" width="7" height="100%" opacity="0.03733333333333333" fill="#ddd"  /><rect x="252" y="0" width="18" height="100%" opacity="0.13266666666666665" fill="#222"  /><rect x="282" y="0" width="16" height="100%" opacity="0.11533333333333334" fill="#222"  /><rect x="303" y="0" width="11" height="100%" opacity="0.07200000000000001" fill="#ddd"  /><rect x="327" y="0" width="14" height="100%" opacity="0.098" fill="#222"  /><rect x="357" y="0" width="5" height="100%" opacity="0.02" fill="#ddd"  /><rect x="371" y="0" width="14" height="100%" opacity="0.098" fill="#222"  /><rect x="405" y="0" width="14" height="100%" opacity="0.098" fill="#222"  /><rect x="432" y="0" width="5" height="100%" opacity="0.02" fill="#ddd"  /></svg>