<svg xmlns="http://www.w3.org/2000/svg" width="180" height="118"><rect x="0" y="0" width="100%" height="100%" fill="rgb(92, 153, 54)"  /><g stroke="#000" stroke-opacity="0.02" fill="#ddd" fill-opacity="0.02" stroke-width="1" transform="translate(0.0,-15.0)" ><polyline points="0,0,15.0,10.2,15.0,30.0,0,19.8,0,0"  /><polyline points="15.0,10.2,30.0,0,30.0,19.8,15.0,30.0,15.0,10.2"  /></g><g stroke="#000" stroke-opacity="0.02" fill="#ddd" fill-opacity="0.02" stroke-width="1" transform="translate(0.0,103.80000000000001)" ><polyline points="0,0,15.0,10.2,15.0,30.0,0,19.8,0,0"  /><polyline points="15.0,10.2,30.0,0,30.0,19.8,15.0,30.0,15.0,10.2"  /></g><g stroke="#000" stroke-opacity="0.02" fill="#ddd" fill-opacity="0.07200000000000001" stroke-width="1" transform="translate(30.0,-15.0)" ><polyline points="0,0,15.0,10.2,15.0,30.0,0,19.8,0,0"  /><polyline points="15.0,10.2,30.0,0,30.0,19.8,15.0,30.0,15.0,10.2"  /></g><g stroke="#000" stroke-opacity="0.02" fill="#ddd" fill-opacity="0.07200000000000001" stroke-width="1" transform="translate(30.0,103.80000000000001)" ><polyline points="0,0,15.0,10.2,15.0,30.0,0,19.8,0,0"  /><polyline points="15.0,10.2,30.0,0,30.0,19.8,15.0,30.0,15.0,10.2"  /></g><g stroke="#000" stroke-opacity="0.02" fill="#ddd" fill-opacity="0.12400000000000001" stroke-width="1" transform="translate(60.0,-15.0)" ><polyline points="0,0,15.0,10.2,15.0,30.0,0,19.8,0,0"  /><polyline points="15.0,10.2,30.0,0,30.0,19.8,15.0,30.0,15.0,10.2"  /></g><g stroke="#000" stroke-opacity="0.02" fill="#ddd" fill-opacity="0.12400000000000001" stroke-width="1" transform="translate(60.0,103.80000000000001)" ><polyline points="0,0,15.0,10.2,15.0,30.0,0,19.8,0,0"  /><polyline points="15.0,10.2,30.0,0,30.0,19.8,15.0,30.0,15.0,10.2"  /></g><g stroke="#000" stroke-opacity="0.02" fill="#222" fill-opacity="0.11533333333333334" stroke-width="1" transform="translate(90.0,-15.0)" ><polyline points="0,0,15.0,10.2,15.0,30.0,0,19.8,0,0"  /><polyline points="15.0,10.2,30.0,0,30.0,19.8,15.0,30.0,15.0,10.2"  /></g><g stroke="#000" stroke-opacity="0.02" fill="#222" fill-opacity="0.11533333333333334" stroke-width="1" transform="translate(90.0,103.80000000000001)" ><polyline points="0,0,15.0,10.2,15.0,30.0,0,19.8,0,0"  /><polyline points="15.0,10.2,30.0,0,30.0,19.8,15.0,30.0,15.0,10.2"  /></g><g stroke="#000" stroke-opacity="0.02" fill="#222" fill-opacity="0.08066666666666666" stroke-width="1" transform="translate(120.0,-15.0)" ><polyline points="0,0,15.0,10.2,15.0,30.0,0,19.8,0,0"  /><polyline points="15.0,10.2,30.0,0,30.0,19.8,15.0,30.0,15.0,10.2"  /></g><g stroke="#000" stroke-opacity="0.02" fill="#222" fill-opacity="0.08066666666666666" stroke-width="1" transform="translate(120.0,103.80000000000001)" ><polyline points="0,0,15.0,10.2,15.0,30.0,0,19.8,0,0"  /><polyline points="15.0,10.2,30.0,0,30.0,19.8,15.0,30.0,15.0,10.2"  /></g><g stroke="#000" stroke-opacity="0.02" fill="#ddd" fill-opacity="0.08933333333333333" stroke-width="1" transform="translate(150.0,-15.0)" ><polyline points="0,0,15.0,10.2,15.0,30.0,0,19.8,0,0"  /><polyline points="15.0,10.2,30.0,0,30.0,19.8,15.0,30.0,15.0,10.2"  /></g><g stroke="#000" stroke-opacity="0.02" fill="#ddd" fill-opacity="0.08933333333333333" stroke-width="1" transform="translate(150.0,103.80000000000001)" ><polyline points="0,0,15.0,10.2,15.0,30.0,0,19.8,0,0"  /><polyline points="15.0,10.2,30.0,0,30.0,19.8,15.0,30.0,15.0,10.2"  /></g><g stroke="#000" stroke-opacity="0.02" fill="#ddd" fill-opacity="0.03733333333333333" stroke-width="1" transform="translate(0.0,4.800000000000001)" ><polyline points="0,0,15.0,10.2,15.0,30.0,0,19.8,0,0"  /><polyline points="15.0,10.2,30.0,0,30.0,19.8,15.0,30.0,15.0,10.2"  /></g><g stroke="#000" stroke-opacity="0.02" fill="#ddd" fill-opacity="0.08933333333333333" stroke-width="1" transform="translate(30.0,4.800000000000001)" ><polyline points="0,0,15.0,10.2,15.0,30.0,0,19.8,0,0"  /><polyline points="15.0,10.2,30.0,0,30.0,19.8,15.0,30.0,15.0,10.2"  /></g><g stroke="#000" stroke-opacity="0.02" fill="#ddd" fill-opacity="0.05466666666666667" stroke-width="1" transform="translate(60.0,4.800000000000001)" ><polyline points="0,0,15.0,10.2,15.0,30.0,0,19.8,0,0"  /><polyline points="15.0,10.2,30.0,0,30.0,19.8,15.0,30.0,15.0,10.2"  /></g><g stroke="#000" stroke-opacity="0.02" fill="#222" fill-opacity="0.06333333333333334" stroke-width="1" transform="translate(90.0,4.800000000000001)" ><polyline points="0,0,15.0,10.2,15.0,30.0,0,19.8,0,0"  /><polyline points="15.0,10.2,30.0,0,30.0,19.8,15.0,30.0,15.0,10.2"  /></g><g stroke="#000" stroke-opacity="0.02" fill="#222" fill-opacity="0.028666666666666667" stroke-width="1" transform="translate(120.0,4.800000000000001)" ><polyline points="0,0,15.0,10.2,15.0,30.0,0,19.8,0,0"  /><polyline points="15.0,10.2,30.0,0,30.0,19.8,15.0,30.0,15.0,10.2"  /></g><g stroke="#000" stroke-opacity="0.02" fill="#ddd" fill-opacity="0.07200000000000001" stroke-width="1" transform="translate(150.0,4.800000000000001)" ><polyline points="0,0,15.0,10.2,15.0,30.0,0,19.8,0,0"  /><polyline points="15.0,10.2,30.0,0,30.0,19.8,15.0,30.0,15.0,10.2"  /></g><g stroke="#000" stroke-opacity="0.02" fill="#ddd" fill-opacity="0.02" stroke-width="1" transform="translate(0.0,24.6)" ><polyline points="0,0,15.0,10.2,15.0,30.0,0,19.8,0,0"  /><polyline points="15.0,10.2,30.0,0,30.0,19.8,15.0,30.0,15.0,10.2"  /></g><g stroke="#000" stroke-opacity="0.02" fill="#ddd" fill-opacity="0.05466666666666667" stroke-width="1" transform="translate(30.0,24.6)" ><polyline points="0,0,15.0,10.2,15.0,30.0,0,19.8,0,0"  /><polyline points="15.0,10.2,30.0,0,30.0,19.8,15.0,30.0,15.0,10.2"  /></g><g stroke="#000" stroke-opacity="0.02" fill="#222" fill-opacity="0.11533333333333334" stroke-width="1" transform="translate(60.0,24.6)" ><polyline points="0,0,15.0,10.2,15.0,30.0,0,19.8,0,0"  /><polyline points="15.0,10.2,30.0,0,30.0,19.8,15.0,30.0,15.0,10.2"  /></g><g stroke="#000" stroke-opacity="0.02" fill="#222" fill-opacity="0.11533333333333334" stroke-width="1" transform="translate(90.0,24.6)" ><polyline points="0,0,15.0,10.2,15.0,30.0,0,19.8,0,0"  /><polyline points="15.0,10.2,30.0,0,30.0,19.8,15.0,30.0,15.0,10.2"  /></g><g stroke="#000" stroke-opacity="0.02" fill="#222" fill-opacity="0.08066666666666666" stroke-width="1" transform="translate(120.0,24.6)" ><polyline points="0,0,15.0,10.2,15.0,30.0,0,19.8,0,0"  /><polyline points="15.0,10.2,30.0,0,30.0,19.8,15.0,30.0,15.0,10.2"  /></g><g stroke="#000" stroke-opacity="0.02" fill="#ddd" fill-opacity="0.07200000000000001" stroke-width="1" transform="translate(150.0,24.6)" ><polyline points="0,0,15.0,10.2,15.0,30.0,0,19.8,0,0"  /><polyline points="15.0,10.2,30.0,0,30.0,19.8,15.0,30.0,15.0,10.2"  /></g><g stroke="#000" stroke-opacity="0.02" fill="#ddd" fill-opacity="0.05466666666666667" stroke-width="1" transform="translate(0.0,44.400000000000006)" ><polyline points="0,0,15.0,10.2,15.0,30.0,0,19.8,0,0"  /><polyline points="15.0,10.2,30.0,0,30.0,19.8,15.0,30.0,15.0,10.2"  /></g><g stroke="#000" stroke-opacity="0.02" fill="#ddd" fill-opacity="0.14133333333333334" stroke-width="1" transform="translate(30.0,44.400000000000006)" ><polyline points="0,0,15.0,10.2,15.0,30.0,0,19.8,0,0"  /><polyline points="15.0,10.2,30.0,0,30.0,19.8,15.0,30.0,15.0,10.2"  /></g><g stroke="#000" stroke-opacity="0.02" fill="#ddd" fill-opacity="0.02" stroke-width="1" transform="translate(60.0,44.400000000000006)" ><polyline points="0,0,15.0,10.2,15.0,30.0,0,19.8,0,0"  /><polyline points="15.0,10.2,30.0,0,30.0,19.8,15.0,30.0,15.0,10.2"  /></g><g stroke="#000" stroke-opacity="0.02" fill="#222" fill-opacity="0.028666666666666667" stroke-width="1" transform="translate(90.0,44.400000000000006)" ><polyline points="0,0,15.0,10.2,15.0,30.0,0,19.8,0,0"  /><polyline points="15.0,10.2,30.0,0,30.0,19.8,15.0,30.0,15.0,10.2"  /></g><g stroke="#000" stroke-opacity="0.02" fill="#ddd" fill-opacity="0.12400000000000001" stroke-width="1" transform="translate(120.0,44.400000000000006)" ><polyline points="0,0,15.0,10.2,15.0,30.0,0,19.8,0,0"  /><polyline points="15.0,10.2,30.0,0,30.0,19.8,15.0,30.0,15.0,10.2"  /></g><g stroke="#000" stroke-opacity="0.02" fill="#222" fill-opacity="0.08066666666666666" stroke-width="1" transform="translate(150.0,44.400000000000006)" ><polyline points="0,0,15.0,10.2,15.0,30.0,0,19.8,0,0"  /><polyline points="15.0,10.2,30.0,0,30.0,19.8,15.0,30.0,15.0,10.2"  /></g><g stroke="#000" stroke-opacity="0.02" fill="#ddd" fill-opacity="0.12400000000000001" stroke-width="1" transform="translate(0.0,64.2)" ><polyline points="0,0,15.0,10.2,15.0,30.0,0,19.8,0,0"  /><polyline points="15.0,10.2,30.0,0,30.0,19.8,15.0,30.0,15.0,10.2"  /></g><g stroke="#000" stroke-opacity="0.02" fill="#222" fill-opacity="0.028666666666666667" stroke-width="1" transform="translate(30.0,64.2)" ><polyline points="0,0,15.0,10.2,15.0,30.0,0,19.8,0,0"  /><polyline points="15.0,10.2,30.0,0,30.0,19.8,15.0,30.0,15.0,10.2"  /></g><g stroke="#000" stroke-opacity="0.02" fill="#222" fill-opacity="0.028666666666666667" stroke-width="1" transform="translate(60.0,64.2)" ><polyline points="0,0,15.0,10.2,15.0,30.0,0,19.8,0,0"  /><polyline points="15.0,10.2,30.0,0,30.0,19.8,15.0,30.0,15.0,10.2"  /></g><g stroke="#000" stroke-opacity="0.02" fill="#222" fill-opacity="0.098" stroke-width="1" transform="translate(90.0,64.2)" ><polyline points="0,0,15.0,10.2,15.0,30.0,0,19.8,0,0"  /><polyline points="15.0,10.2,30.0,0,30.0,19.8,15.0,30.0,15.0,10.2"  /></g><g stroke="#000" stroke-opacity="0.02" fill="#222" fill-opacity="0.098" stroke-width="1" transform="translate(120.0,64.2)" ><polyline points="0,0,15.0,10.2,15.0,30.0,0,19.8,0,0"  /><polyline points="15.0,10.2,30.0,0,30.0,19.8,15.0,30.0,15.0,10.2"  /></g><g stroke="#000" stroke-opacity="0.02" fill="#ddd" fill-opacity="0.08933333333333333" stroke-width="1" transform="translate(150.0,64.2)" ><polyline points="0,0,15.0,10.2,15.0,30.0,0,19.8,0,0"  /><polyline points="15.0,10.2,30.0,0,30.0,19.8,15.0,30.0,15.0,10.2"  /></g><g stroke="#000" stroke-opacity="0.02" fill="#222" fill-opacity="0.08066666666666666" stroke-width="1" transform="translate(0.0,84.0)" ><polyline points="0,0,15.0,10.2,15.0,30.0,0,19.8,0,0"  /><polyline points="15.0,10.2,30.0,0,30.0,19.8,15.0,30.0,15.0,10.2"  /></g><g stroke="#000" stroke-opacity="0.02" fill="#ddd" fill-opacity="0.07200000000000001" stroke-width="1" transform="translate(30.0,84.0)" ><polyline points="0,0,15.0,10.2,15.0,30.0,0,19.8,0,0"  /><polyline points="15.0,10.2,30.0,0,30.0,19.8,15.0,30.0,15.0,10.2"  /></g><g stroke="#000" stroke-opacity="0.02" fill="#ddd" fill-opacity="0.07200000000000001" stroke-width="1" transform="translate(60.0,84.0)" ><polyline points="0,0,15.0,10.2,15.0,30.0,0,19.8,0,0"  /><polyline points="15.0,10.2,30.0,0,30.0,19.8,15.0,30.0,15.0,10.2"  /></g><g stroke="#000" stroke-opacity="0.02" fill="#222" fill-opacity="0.08066666666666666" stroke-width="1" transform="translate(90.0,84.0)" ><polyline points="0,0,15.0,10.2,15.0,30.0,0,19.8,0,0"  /><polyline points="15.0,10.2,30.0,0,30.0,19.8,15.0,30.0,15.0,10.2"  /></g><g stroke="#000" stroke-opacity="0.02" fill="#222" fill-opacity="0.098" stroke-width="1" transform="translate(120.0,84.0)" ><polyline points="0,0,15.0,10.2,15.0,30.0,0,19.8,0,0"  /><polyline points="15.0,10.2,30.0,0,30.0,19.8,15.0,30.0,15.0,10.2"  /></g><g stroke="#000" stroke-opacity="0.02" fill="#222" fill-opacity="0.06333333333333334" stroke-width="1" transform="translate(150.0,84.0)" ><polyline points="0,0,15.0,10.2,15.0,30.0,0,19.8,0,0"  /><polyline points="15.0,10.2,30.0,0,30.0,19.8,15.0,30.0,15.0,10.2"  /></g></svg>