<svg xmlns="http://www.w3.org/2000/svg" width="72" height="83"><rect x="0" y="0" width="100%" height="100%" fill="rgb(56, 52, 155)"  /><polyline points="0,6.928203230275509,4.0,0,12.0,0,16.0,6.928203230275509,12.0,13.856406460551018,4.0,13.856406460551018,0,6.928203230275509" fill="#ddd" fill-opacity="0.02" stroke="#000" stroke-opacity="0.02" transform="translate(-8.0, -6.928203230275509)"  /><polyline points="0,6.928203230275509,4.0,0,12.0,0,16.0,6.928203230275509,12.0,13.856406460551018,4.0,13.856406460551018,0,6.928203230275509" fill="#ddd" fill-opacity="0.02" stroke="#000" stroke-opacity="0.02" transform="translate(64.0, -6.928203230275509)"  /><polyline points="0,6.928203230275509,4.0,0,12.0,0,16.0,6.928203230275509,12.0,13.856406460551018,4.0,13.856406460551018,0,6.928203230275509" fill="#ddd" fill-opacity="0.02" stroke="#000" stroke-opacity="0.02" transform="translate(-8.0, 76.2102355330306)"  /><polyline points="0,6.928203230275509,4.0,0,12.0,0,16.0,6.928203230275509,12.0,13.856406460551018,4.0,13.856406460551018,0,6.928203230275509" fill="#ddd" fill-opacity="0.02" stroke="#000" stroke-opacity="0.02" transform="translate(64.0, 76.2102355330306)"  /><polyline points="0,6.928203230275509,4.0,0,12.0,0,16.0,6.928203230275509,12.0,13.856406460551018,4.0,13.856406460551018,0,6.928203230275509" fill="#222" fill-opacity="0.15" stroke="#000" stroke-opacity="0.02" transform="translate(4.0, 0.0)"  /><polyline points="0,6.928203230275509,4.0,0,12.0,0,16.0,6.928203230275509,12.0,13.856406460551018,4.0,13.856406460551018,0,6.928203230275509" fill="#222" fill-opacity="0.15" stroke="#000" stroke-opacity="0.02" transform="translate(4.0, 83.13843876330611)"  /><polyline points="0,6.928203230275509,4.0,0,12.0,0,16.0,6.928203230275509,12.0,13.856406460551018,4.0,13.856406460551018,0,6.928203230275509" fill="#ddd" fill-opacity="0.05466666666666667" stroke="#000" stroke-opacity="0.02" transform="translate(16.0, -6.928203230275509)"  /><polyline points="0,6.928203230275509,4.0,0,12.0,0,16.0,6.928203230275509,12.0,13.856406460551018,4.0,13.856406460551018,0,6.928203230275509" fill="#ddd" fill-opacity="0.05466666666666667" stroke="#000" stroke-opacity="0.02" transform="translate(16.0, 76.2102355330306)"  /><polyline points="0,6.928203230275509,4.0,0,12.0,0,16.0,6.928203230275509,12.0,13.856406460551018,4.0,13.856406460551018,0,6.928203230275509" fill="#222" fill-opacity="0.028666666666666667" stroke="#000" stroke-opacity="0.02" transform="translate(28.0, 0.0)"  /><polyline points="0,6.928203230275509,4.0,0,12.0,0,16.0,6.928203230275509,12.0,13.856406460551018,4.0,13.856406460551018,0,6.928203230275509" fill="#222" fill-opacity="0.028666666666666667" stroke="#000" stroke-opacity="0.02" transform="translate(28.0, 83.13843876330611)"  /><polyline points="0,6.928203230275509,4.0,0,12.0,0,16.0,6.928203230275509,12.0,13.856406460551018,4.0,13.856406460551018,0,6.928203230275509" fill="#ddd" fill-opacity="0.14133333333333334" stroke="#000" stroke-opacity="0.02" transform="translate(40.0, -6.928203230275509)"  /><polyline points="0,6.928203230275509,4.0,0,12.0,0,16.0,6.928203230275509,12.0,13.856406460551018,4.0,13.856406460551018,0,6.928203230275509" fill="#ddd" fill-opacity="0.14133333333333334" stroke="#000" stroke-opacity="0.02" transform="translate(40.0, 76.2102355330306)"  /><polyline points="0,6.928203230275509,4.0,0,12.0,0,16.0,6.928203230275509,12.0,13.856406460551018,4.0,13.856406460551018,0,6.928203230275509" fill="#ddd" fill-opacity="0.14133333333333334" stroke="#000" stroke-opacity="0.02" transform="translate(52.0, 0.0)"  /><polyline points="0,6.928203230275509,4.0,0,12.0,0,16.0,6.928203230275509,12.0,13.856406460551018,4.0,13.856406460551018,0,6.928203230275509" fill="#ddd" fill-opacity="0.14133333333333334" stroke="#000" stroke-opacity="0.02" transform="translate(52.0, 83.13843876330611)"  /><polyline points="0,6.928203230275509,4.0,0,12.0,0,16.0,6.928203230275509,12.0,13.856406460551018,4.0,13.856406460551018,0,6.928203230275509" fill="#222" fill-opacity="0.13266666666666665" stroke="#000" stroke-opacity="0.02" transform="translate(-8.0, 6.928203230275509)"  /><polyline points="0,6.928203230275509,4.0,0,12.0,0,16.0,6.928203230275509,12.0,13.856406460551018,4.0,13.856406460551018,0,6.928203230275509" fill="#222" fill-opacity="0.13266666666666665" stroke="#000" stroke-opacity="0.02" transform="translate(64.0, 6.928203230275509)"  /><polyline points="0,6.928203230275509,4.0,0,12.0,0,16.0,6.928203230275509,12.0,13.856406460551018,4.0,13.856406460551018,0,6.928203230275509" fill="#222" fill-opacity="0.13266666666666665" stroke="#000" stroke-opacity="0.02" transform="translate(4.0, 13.85640646055102)"  /><polyline points="0,6.928203230275509,4.0,0,12.0,0,16.0,6.928203230275509,12.0,13.856406460551018,4.0,13.856406460551018,0,6.928203230275509" fill="#ddd" fill-opacity="0.08933333333333333" stroke="#000" stroke-opacity="0.02" transform="translate(16.0, 6.928203230275509)"  /><polyline points="0,6.928203230275509,4.0,0,12.0,0,16.0,6.928203230275509,12.0,13.856406460551018,4.0,13.856406460551018,0,6.928203230275509" fill="#ddd" fill-opacity="0.12400000000000001" stroke="#000" stroke-opacity="0.02" transform="translate(28.0, 13.85640646055102)"  /><polyline points="0,6.928203230275509,4.0,0,12.0,0,16.0,6.928203230275509,12.0,13.856406460551018,4.0,13.856406460551018,0,6.928203230275509" fill="#ddd" fill-opacity="0.12400000000000001" stroke="#000" stroke-opacity="0.02" transform="translate(40.0, 6.928203230275509)"  /><polyline points="0,6.928203230275509,4.0,0,12.0,0,16.0,6.928203230275509,12.0,13.856406460551018,4.0,13.856406460551018,0,6.928203230275509" fill="#ddd" fill-opacity="0.10666666666666667" stroke="#000" stroke-opacity="0.02" transform="translate(52.0, 13.85640646055102)"  /><polyline points="0,6.928203230275509,4.0,0,12.0,0,16.0,6.928203230275509,12.0,13.856406460551018,4.0,13.856406460551018,0,6.928203230275509" fill="#222" fill-opacity="0.13266666666666665" stroke="#000" stroke-opacity="0.02" transform="translate(-8.0, 20.784609690826528)"  /><polyline points="0,6.928203230275509,4.0,0,12.0,0,16.0,6.928203230275509,12.0,13.856406460551018,4.0,13.856406460551018,0,6.928203230275509" fill="#222" fill-opacity="0.13266666666666665" stroke="#000" stroke-opacity="0.02" transform="translate(64.0, 20.784609690826528)"  /><polyline points="0,6.928203230275509,4.0,0,12.0,0,16.0,6.928203230275509,12.0,13.856406460551018,4.0,13.856406460551018,0,6.928203230275509" fill="#ddd" fill-opacity="0.08933333333333333" stroke="#000" stroke-opacity="0.02" transform="translate(4.0, 27.712812921102035)"  /><polyline points="0,6.928203230275509,4.0,0,12.0,0,16.0,6.928203230275509,12.0,13.856406460551018,4.0,13.856406460551018,0,6.928203230275509" fill="#222" fill-opacity="0.06333333333333334" stroke="#000" stroke-opacity="0.02" transform="translate(16.0, 20.784609690826528)"  /><polyline points="0,6.928203230275509,4.0,0,12.0,0,16.0,6.928203230275509,12.0,13.856406460551018,4.0,13.856406460551018,0,6.928203230275509" fill="#222" fill-opacity="0.046" stroke="#000" stroke-opacity="0.02" transform="translate(28.0, 27.712812921102035)"  /><polyline points="0,6.928203230275509,4.0,0,12.0,0,16.0,6.928203230275509,12.0,13.856406460551018,4.0,13.856406460551018,0,6.928203230275509" fill="#ddd" fill-opacity="0.12400000000000001" stroke="#000" stroke-opacity="0.02" transform="translate(40.0, 20.784609690826528)"  /><polyline points="0,6.928203230275509,4.0,0,12.0,0,16.0,6.928203230275509,12.0,13.856406460551018,4.0,13.856406460551018,0,6.928203230275509" fill="#ddd" fill-opacity="0.08933333333333333" stroke="#000" stroke-opacity="0.02" transform="translate(52.0, 27.712812921102035)"  /><polyline points="0,6.928203230275509,4.0,0,12.0,0,16.0,6.928203230275509,12.0,13.856406460551018,4.0,13.856406460551018,0,6.928203230275509" fill="#ddd" fill-opacity="0.12400000000000001" stroke="#000" stroke-opacity="0.02" transform="translate(-8.0, 34.64101615137755)"  /><polyline points="0,6.928203230275509,4.0,0,12.0,0,16.0,6.928203230275509,12.0,13.856406460551018,4.0,13.856406460551018,0,6.928203230275509" fill="#ddd" fill-opacity="0.12400000000000001" stroke="#000" stroke-opacity="0.02" transform="translate(64.0, 34.64101615137755)"  /><polyline points="0,6.928203230275509,4.0,0,12.0,0,16.0,6.928203230275509,12.0,13.856406460551018,4.0,13.856406460551018,0,6.928203230275509" fill="#ddd" fill-opacity="0.07200000000000001" stroke="#000" stroke-opacity="0.02" transform="translate(4.0, 41.569219381653056)"  /><polyline points="0,6.928203230275509,4.0,0,12.0,0,16.0,6.928203230275509,12.0,13.856406460551018,4.0,13.856406460551018,0,6.928203230275509" fill="#222" fill-opacity="0.046" stroke="#000" stroke-opacity="0.02" transform="translate(16.0, 34.64101615137755)"  /><polyline points="0,6.928203230275509,4.0,0,12.0,0,16.0,6.928203230275509,12.0,13.856406460551018,4.0,13.856406460551018,0,6.928203230275509" fill="#ddd" fill-opacity="0.08933333333333333" stroke="#000" stroke-opacity="0.02" transform="translate(28.0, 41.569219381653056)"  /><polyline points="0,6.928203230275509,4.0,0,12.0,0,16.0,6.928203230275509,12.0,13.856406460551018,4.0,13.856406460551018,0,6.928203230275509" fill="#222" fill-opacity="0.08066666666666666" stroke="#000" stroke-opacity="0.02" transform="translate(40.0, 34.64101615137755)"  /><polyline points="0,6.928203230275509,4.0,0,12.0,0,16.0,6.928203230275509,12.0,13.856406460551018,4.0,13.856406460551018,0,6.928203230275509" fill="#ddd" fill-opacity="0.10666666666666667" stroke="#000" stroke-opacity="0.02" transform="translate(52.0, 41.569219381653056)"  /><polyline points="0,6.928203230275509,4.0,0,12.0,0,16.0,6.928203230275509,12.0,13.856406460551018,4.0,13.856406460551018,0,6.928203230275509" fill="#222" fill-opacity="0.15" stroke="#000" stroke-opacity="0.02" transform="translate(-8.0, 48.49742261192856)"  /><polyline points="0,6.928203230275509,4.0,0,12.0,0,16.0,6.928203230275509,12.0,13.856406460551018,4.0,13.856406460551018,0,6.928203230275509" fill="#222" fill-opacity="0.15" stroke="#000" stroke-opacity="0.02" transform="translate(64.0, 48.49742261192856)"  /><polyline points="0,6.928203230275509,4.0,0,12.0,0,16.0,6.928203230275509,12.0,13.856406460551018,4.0,13.856406460551018,0,6.928203230275509" fill="#222" fill-opacity="0.15" stroke="#000" stroke-opacity="0.02" transform="translate(4.0, 55.42562584220407)"  /><polyline points="0,6.928203230275509,4.0,0,12.0,0,16.0,6.928203230275509,12.0,13.856406460551018,4.0,13.856406460551018,0,6.928203230275509" fill="#ddd" fill-opacity="0.05466666666666667" stroke="#000" stroke-opacity="0.02" transform="translate(16.0, 48.49742261192856)"  /><polyline points="0,6.928203230275509,4.0,0,12.0,0,16.0,6.928203230275509,12.0,13.856406460551018,4.0,13.856406460551018,0,6.928203230275509" fill="#ddd" fill-opacity="0.05466666666666667" stroke="#000" stroke-opacity="0.02" transform="translate(28.0, 55.42562584220407)"  /><polyline points="0,6.928203230275509,4.0,0,12.0,0,16.0,6.928203230275509,12.0,13.856406460551018,4.0,13.856406460551018,0,6.928203230275509" fill="#ddd" fill-opacity="0.02" stroke="#000" stroke-opacity="0.02" transform="translate(40.0, 48.49742261192856)"  /><polyline points="0,6.928203230275509,4.0,0,12.0,0,16.0,6.928203230275509,12.0,13.856406460551018,4.0,13.856406460551018,0,6.928203230275509" fill="#222" fill-opacity="0.06333333333333334" stroke="#000" stroke-opacity="0.02" transform="translate(52.0, 55.42562584220407)"  /><polyline points="0,6.928203230275509,4.0,0,12.0,0,16.0,6.928203230275509,12.0,13.856406460551018,4.0,13.856406460551018,0,6.928203230275509" fill="#ddd" fill-opacity="0.05466666666666667" stroke="#000" stroke-opacity="0.02" transform="translate(-8.0, 62.35382907247958)"  /><polyline points="0,6.928203230275509,4.0,0,12.0,0,16.0,6.928203230275509,12.0,13.856406460551018,4.0,13.856406460551018,0,6.928203230275509" fill="#ddd" fill-opacity="0.05466666666666667" stroke="#000" stroke-opacity="0.02" transform="translate(64.0, 62.35382907247958)"  /><polyline points="0,6.928203230275509,4.0,0,12.0,0,16.0,6.928203230275509,12.0,13.856406460551018,4.0,13.856406460551018,0,6.928203230275509" fill="#222" fill-opacity="0.028666666666666667" stroke="#000" stroke-opacity="0.02" transform="translate(4.0, 69.28203230275508)"  /><polyline points="0,6.928203230275509,4.0,0,12.0,0,16.0,6.928203230275509,12.0,13.856406460551018,4.0,13.856406460551018,0,6.928203230275509" fill="#222" fill-opacity="0.13266666666666665" stroke="#000" stroke-opacity="0.02" transform="translate(16.0, 62.35382907247958)"  /><polyline points="0,6.928203230275509,4.0,0,12.0,0,16.0,6.928203230275509,12.0,13.856406460551018,4.0,13.856406460551018,0,6.928203230275509" fill="#222" fill-opacity="0.15" stroke="#000" stroke-opacity="0.02" transform="translate(28.0, 69.28203230275508)"  /><polyline points="0,6.928203230275509,4.0,0,12.0,0,16.0,6.928203230275509,12.0,13.856406460551018,4.0,13.856406460551018,0,6.928203230275509" fill="#ddd" fill-opacity="0.10666666666666667" stroke="#000" stroke-opacity="0.02" transform="translate(40.0, 62.35382907247958)"  /><polyline points="0,6.928203230275509,4.0,0,12.0,0,16.0,6.928203230275509,12.0,13.856406460551018,4.0,13.856406460551018,0,6.928203230275509" fill="#222" fill-opacity="0.046" stroke="#000" stroke-opacity="0.02" transform="translate(52.0, 69.28203230275508)"  /></svg>