<svg xmlns="http://www.w3.org/2000/svg" width="220" height="145"><rect x="0" y="0" width="100%" height="100%" fill="rgb(153, 97, 54)"  /><g stroke="#000" stroke-opacity="0.02" fill="#ddd" fill-opacity="0.03733333333333333" stroke-width="1" transform="translate(0.0,-18.333333333333332)" ><polyline points="0,0,18.333333333333332,12.466666666666665,18.333333333333332,36.666666666666664,0,24.2,0,0"  /><polyline points="18.333333333333332,12.466666666666665,36.666666666666664,0,36.666666666666664,24.2,18.333333333333332,36.666666666666664,18.333333333333332,12.466666666666665"  /></g><g stroke="#000" stroke-opacity="0.02" fill="#ddd" fill-opacity="0.03733333333333333" stroke-width="1" transform="translate(0.0,126.86666666666669)" ><polyline points="0,0,18.333333333333332,12.466666666666665,18.333333333333332,36.666666666666664,0,24.2,0,0"  /><polyline points="18.333333333333332,12.466666666666665,36.666666666666664,0,36.666666666666664,24.2,18.333333333333332,36.666666666666664,18.333333333333332,12.466666666666665"  /></g><g stroke="#000" stroke-opacity="0.02" fill="#222" fill-opacity="0.11533333333333334" stroke-width="1" transform="translate(36.666666666666664,-18.333333333333332)" ><polyline points="0,0,18.333333333333332,12.466666666666665,18.333333333333332,36.666666666666664,0,24.2,0,0"  /><polyline points="18.333333333333332,12.466666666666665,36.666666666666664,0,36.666666666666664,24.2,18.333333333333332,36.666666666666664,18.333333333333332,12.466666666666665"  /></g><g stroke="#000" stroke-opacity="0.02" fill="#222" fill-opacity="0.11533333333333334" stroke-width="1" transform="translate(36.666666666666664,126.86666666666669)" ><polyline points="0,0,18.333333333333332,12.466666666666665,18.333333333333332,36.666666666666664,0,24.2,0,0"  /><polyline points="18.333333333333332,12.466666666666665,36.666666666666664,0,36.666666666666664,24.2,18.333333333333332,36.666666666666664,18.333333333333332,12.466666666666665"  /></g><g stroke="#000" stroke-opacity="0.02" fill="#222" fill-opacity="0.11533333333333334" stroke-width="1" transform="translate(73.33333333333333,-18.333333333333332)" ><polyline points="0,0,18.333333333333332,12.466666666666665,18.333333333333332,36.666666666666664,0,24.2,0,0"  /><polyline points="18.333333333333332,12.466666666666665,36.666666666666664,0,36.666666666666664,24.2,18.333333333333332,36.666666666666664,18.333333333333332,12.466666666666665"  /></g><g stroke="#000" stroke-opacity="0.02" fill="#222" fill-opacity="0.11533333333333334" stroke-width="1" transform="translate(73.33333333333333,126.86666666666669)" ><polyline points="0,0,18.333333333333332,12.466666666666665,18.333333333333332,36.666666666666664,0,24.2,0,0"  /><polyline points="18.333333333333332,12.466666666666665,36.666666666666664,0,36.666666666666664,24.2,18.333333333333332,36.666666666666664,18.333333333333332,12.466666666666665"  /></g><g stroke="#000" stroke-opacity="0.02" fill="#ddd" fill-opacity="0.12400000000000001" stroke-width="1" transform="translate(110.0,-18.333333333333332)" ><polyline points="0,0,18.333333333333332,12.466666666666665,18.333333333333332,36.666666666666664,0,24.2,0,0"  /><polyline points="18.333333333333332,12.466666666666665,36.666666666666664,0,36.666666666666664,24.2,18.333333333333332,36.666666666666664,18.333333333333332,12.466666666666665"  /></g><g stroke="#000" stroke-opacity="0.02" fill="#ddd" fill-opacity="0.12400000000000001" stroke-width="1" transform="translate(110.0,126.86666666666669)" ><polyline points="0,0,18.333333333333332,12.466666666666665,18.333333333333332,36.666666666666664,0,24.2,0,0"  /><polyline points="18.333333333333332,12.466666666666665,36.666666666666664,0,36.666666666666664,24.2,18.333333333333332,36.666666666666664,18.333333333333332,12.466666666666665"  /></g><g stroke="#000" stroke-opacity="0.02" fill="#ddd" fill-opacity="0.02" stroke-width="1" transform="translate(146.66666666666666,-18.333333333333332)" ><polyline points="0,0,18.333333333333332,12.466666666666665,18.333333333333332,36.666666666666664,0,24.2,0,0"  /><polyline points="18.333333333333332,12.466666666666665,36.666666666666664,0,36.666666666666664,24.2,18.333333333333332,36.666666666666664,18.333333333333332,12.466666666666665"  /></g><g stroke="#000" stroke-opacity="0.02" fill="#ddd" fill-opacity="0.02" stroke-width="1" transform="translate(146.66666666666666,126.86666666666669)" ><polyline points="0,0,18.333333333333332,12.466666666666665,18.333333333333332,36.666666666666664,0,24.2,0,0"  /><polyline points="18.333333333333332,12.466666666666665,36.666666666666664,0,36.666666666666664,24.2,18.333333333333332,36.666666666666664,18.333333333333332,12.466666666666665"  /></g><g stroke="#000" stroke-opacity="0.02" fill="#ddd" fill-opacity="0.12400000000000001" stroke-width="1" transform="translate(183.33333333333331,-18.333333333333332)" ><polyline points="0,0,18.333333333333332,12.466666666666665,18.333333333333332,36.666666666666664,0,24.2,0,0"  /><polyline points="18.333333333333332,12.466666666666665,36.666666666666664,0,36.666666666666664,24.2,18.333333333333332,36.666666666666664,18.333333333333332,12.466666666666665"  /></g><g stroke="#000" stroke-opacity="0.02" fill="#ddd" fill-opacity="0.12400000000000001" stroke-width="1" transform="translate(183.33333333333331,126.86666666666669)" ><polyline points="0,0,18.333333333333332,12.466666666666665,18.333333333333332,36.666666666666664,0,24.2,0,0"  /><polyline points="18.333333333333332,12.466666666666665,36.666666666666664,0,36.666666666666664,24.2,18.333333333333332,36.666666666666664,18.333333333333332,12.466666666666665"  /></g><g stroke="#000" stroke-opacity="0.02" fill="#222" fill-opacity="0.028666666666666667" stroke-width="1" transform="translate(0.0,5.866666666666667)" ><polyline points="0,0,18.333333333333332,12.466666666666665,18.333333333333332,36.666666666666664,0,24.2,0,0"  /><polyline points="18.333333333333332,12.466666666666665,36.666666666666664,0,36.666666666666664,24.2,18.333333333333332,36.666666666666664,18.333333333333332,12.466666666666665"  /></g><g stroke="#000" stroke-opacity="0.02" fill="#222" fill-opacity="0.06333333333333334" stroke-width="1" transform="translate(36.666666666666664,5.866666666666667)" ><polyline points="0,0,18.333333333333332,12.466666666666665,18.333333333333332,36.666666666666664,0,24.2,0,0"  /><polyline points="18.333333333333332,12.466666666666665,36.666666666666664,0,36.666666666666664,24.2,18.333333333333332,36.666666666666664,18.333333333333332,12.466666666666665"  /></g><g stroke="#000" stroke-opacity="0.02" fill="#ddd" fill-opacity="0.05466666666666667" stroke-width="1" transform="translate(73.33333333333333,5.866666666666667)" ><polyline points="0,0,18.333333333333332,12.466666666666665,18.333333333333332,36.666666666666664,0,24.2,0,0"  /><polyline points="18.333333333333332,12.466666666666665,36.666666666666664,0,36.666666666666664,24.2,18.333333333333332,36.666666666666664,18.333333333333332,12.466666666666665"  /></g><g stroke="#000" stroke-opacity="0.02" fill="#ddd" fill-opacity="0.03733333333333333" stroke-width="1" transform="translate(110.0,5.866666666666667)" ><polyline points="0,0,18.333333333333332,12.466666666666665,18.333333333333332,36.666666666666664,0,24.2,0,0"  /><polyline points="18.333333333333332,12.466666666666665,36.666666666666664,0,36.666666666666664,24.2,18.333333333333332,36.666666666666664,18.333333333333332,12.466666666666665"  /></g><g stroke="#000" stroke-opacity="0.02" fill="#222" fill-opacity="0.11533333333333334" stroke-width="1" transform="translate(146.66666666666666,5.866666666666667)" ><polyline points="0,0,18.333333333333332,12.466666666666665,18.333333333333332,36.666666666666664,0,24.2,0,0"  /><polyline points="18.333333333333332,12.466666666666665,36.666666666666664,0,36.666666666666664,24.2,18.333333333333332,36.666666666666664,18.333333333333332,12.466666666666665"  /></g><g stroke="#000" stroke-opacity="0.02" fill="#222" fill-opacity="0.11533333333333334" stroke-width="1" transform="translate(183.33333333333331,5.866666666666667)" ><polyline points="0,0,18.333333333333332,12.466666666666665,18.333333333333332,36.666666666666664,0,24.2,0,0"  /><polyline points="18.333333333333332,12.466666666666665,36.666666666666664,0,36.666666666666664,24.2,18.333333333333332,36.666666666666664,18.333333333333332,12.466666666666665"  /></g><g stroke="#000" stroke-opacity="0.02" fill="#ddd" fill-opacity="0.07200000000000001" stroke-width="1" transform="translate(0.0,30.066666666666666)" ><polyline points="0,0,18.333333333333332,12.466666666666665,18.333333333333332,36.666666666666664,0,24.2,0,0"  /><polyline points="18.333333333333332,12.466666666666665,36.666666666666664,0,36.666666666666664,24.2,18.333333333333332,36.666666666666664,18.333333333333332,12.466666666666665"  /></g><g stroke="#000" stroke-opacity="0.02" fill="#ddd" fill-opacity="0.14133333333333334" stroke-width="1" transform="translate(36.666666666666664,30.066666666666666)" ><polyline points="0,0,18.333333333333332,12.466666666666665,18.333333333333332,36.666666666666664,0,24.2,0,0"  /><polyline points="18.333333333333332,12.466666666666665,36.666666666666664,0,36.666666666666664,24.2,18.333333333333332,36.666666666666664,18.333333333333332,12.466666666666665"  /></g><g stroke="#000" stroke-opacity="0.02" fill="#ddd" fill-opacity="0.14133333333333334" stroke-width="1" transform="translate(73.33333333333333,30.066666666666666)" ><polyline points="0,0,18.333333333333332,12.466666666666665,18.333333333333332,36.666666666666664,0,24.2,0,0"  /><polyline points="18.333333333333332,12.466666666666665,36.666666666666664,0,36.666666666666664,24.2,18.333333333333332,36.666666666666664,18.333333333333332,12.466666666666665"  /></g><g stroke="#000" stroke-opacity="0.02" fill="#222" fill-opacity="0.13266666666666665" stroke-width="1" transform="translate(110.0,30.066666666666666)" ><polyline points="0,0,18.333333333333332,12.466666666666665,18.333333333333332,36.666666666666664,0,24.2,0,0"  /><polyline points="18.333333333333332,12.466666666666665,36.666666666666664,0,36.666666666666664,24.2,18.333333333333332,36.666666666666664,18.333333333333332,12.466666666666665"  /></g><g stroke="#000" stroke-opacity="0.02" fill="#ddd" fill-opacity="0.14133333333333334" stroke-width="1" transform="translate(146.66666666666666,30.066666666666666)" ><polyline points="0,0,18.333333333333332,12.466666666666665,18.333333333333332,36.666666666666664,0,24.2,0,0"  /><polyline points="18.333333333333332,12.466666666666665,36.666666666666664,0,36.666666666666664,24.2,18.333333333333332,36.666666666666664,18.333333333333332,12.466666666666665"  /></g><g stroke="#000" stroke-opacity="0.02" fill="#ddd" fill-opacity="0.07200000000000001" stroke-width="1" transform="translate(183.33333333333331,30.066666666666666)" ><polyline points="0,0,18.333333333333332,12.466666666666665,18.333333333333332,36.666666666666664,0,24.2,0,0"  /><polyline points="18.333333333333332,12.466666666666665,36.666666666666664,0,36.666666666666664,24.2,18.333333333333332,36.666666666666664,18.333333333333332,12.466666666666665"  /></g><g stroke="#000" stroke-opacity="0.02" fill="#ddd" fill-opacity="0.14133333333333334" stroke-width="1" transform="translate(0.0,54.26666666666668)" ><polyline points="0,0,18.333333333333332,12.466666666666665,18.333333333333332,36.666666666666664,0,24.2,0,0"  /><polyline points="18.333333333333332,12.466666666666665,36.666666666666664,0,36.666666666666664,24.2,18.333333333333332,36.666666666666664,18.333333333333332,12.466666666666665"  /></g><g stroke="#000" stroke-opacity="0.02" fill="#ddd" fill-opacity="0.10666666666666667" stroke-width="1" transform="translate(36.666666666666664,54.26666666666668)" ><polyline points="0,0,18.333333333333332,12.466666666666665,18.333333333333332,36.666666666666664,0,24.2,0,0"  /><polyline points="18.333333333333332,12.466666666666665,36.666666666666664,0,36.666666666666664,24.2,18.333333333333332,36.666666666666664,18.333333333333332,12.466666666666665"  /></g><g stroke="#000" stroke-opacity="0.02" fill="#ddd" fill-opacity="0.02" stroke-width="1" transform="translate(73.33333333333333,54.26666666666668)" ><polyline points="0,0,18.333333333333332,12.466666666666665,18.333333333333332,36.666666666666664,0,24.2,0,0"  /><polyline points="18.333333333333332,12.466666666666665,36.666666666666664,0,36.666666666666664,24.2,18.333333333333332,36.666666666666664,18.333333333333332,12.466666666666665"  /></g><g stroke="#000" stroke-opacity="0.02" fill="#ddd" fill-opacity="0.12400000000000001" stroke-width="1" transform="translate(110.0,54.26666666666668)" ><polyline points="0,0,18.333333333333332,12.466666666666665,18.333333333333332,36.666666666666664,0,24.2,0,0"  /><polyline points="18.333333333333332,12.466666666666665,36.666666666666664,0,36.666666666666664,24.2,18.333333333333332,36.666666666666664,18.333333333333332,12.466666666666665"  /></g><g stroke="#000" stroke-opacity="0.02" fill="#ddd" fill-opacity="0.02" stroke-width="1" transform="translate(146.66666666666666,54.26666666666668)" ><polyline points="0,0,18.333333333333332,12.466666666666665,18.333333333333332,36.666666666666664,0,24.2,0,0"  /><polyline points="18.333333333333332,12.466666666666665,36.666666666666664,0,36.666666666666664,24.2,18.333333333333332,36.666666666666664,18.333333333333332,12.466666666666665"  /></g><g stroke="#000" stroke-opacity="0.02" fill="#ddd" fill-opacity="0.02" stroke-width="1" transform="translate(183.33333333333331,54.26666666666668)" ><polyline points="0,0,18.333333333333332,12.466666666666665,18.333333333333332,36.666666666666664,0,24.2,0,0"  /><polyline points="18.333333333333332,12.466666666666665,36.666666666666664,0,36.666666666666664,24.2,18.333333333333332,36.666666666666664,18.333333333333332,12.466666666666665"  /></g><g stroke="#000" stroke-opacity="0.02" fill="#ddd" fill-opacity="0.12400000000000001" stroke-width="1" transform="translate(0.0,78.46666666666667)" ><polyline points="0,0,18.333333333333332,12.466666666666665,18.333333333333332,36.666666666666664,0,24.2,0,0"  /><polyline points="18.333333333333332,12.466666666666665,36.666666666666664,0,36.666666666666664,24.2,18.333333333333332,36.666666666666664,18.333333333333332,12.466666666666665"  /></g><g stroke="#000" stroke-opacity="0.02" fill="#222" fill-opacity="0.08066666666666666" stroke-width="1" transform="translate(36.666666666666664,78.46666666666667)" ><polyline points="0,0,18.333333333333332,12.466666666666665,18.333333333333332,36.666666666666664,0,24.2,0,0"  /><polyline points="18.333333333333332,12.466666666666665,36.666666666666664,0,36.666666666666664,24.2,18.333333333333332,36.666666666666664,18.333333333333332,12.466666666666665"  /></g><g stroke="#000" stroke-opacity="0.02" fill="#222" fill-opacity="0.06333333333333334" stroke-width="1" transform="translate(73.33333333333333,78.46666666666667)" ><polyline points="0,0,18.333333333333332,12.466666666666665,18.333333333333332,36.666666666666664,0,24.2,0,0"  /><polyline points="18.333333333333332,12.466666666666665,36.666666666666664,0,36.666666666666664,24.2,18.333333333333332,36.666666666666664,18.333333333333332,12.466666666666665"  /></g><g stroke="#000" stroke-opacity="0.02" fill="#222" fill-opacity="0.13266666666666665" stroke-width="1" transform="translate(110.0,78.46666666666667)" ><polyline points="0,0,18.333333333333332,12.466666666666665,18.333333333333332,36.666666666666664,0,24.2,0,0"  /><polyline points="18.333333333333332,12.466666666666665,36.666666666666664,0,36.666666666666664,24.2,18.333333333333332,36.666666666666664,18.333333333333332,12.466666666666665"  /></g><g stroke="#000" stroke-opacity="0.02" fill="#ddd" fill-opacity="0.14133333333333334" stroke-width="1" transform="translate(146.66666666666666,78.46666666666667)" ><polyline points="0,0,18.333333333333332,12.466666666666665,18.333333333333332,36.666666666666664,0,24.2,0,0"  /><polyline points="18.333333333333332,12.466666666666665,36.666666666666664,0,36.666666666666664,24.2,18.333333333333332,36.666666666666664,18.333333333333332,12.466666666666665"  /></g><g stroke="#000" stroke-opacity="0.02" fill="#222" fill-opacity="0.13266666666666665" stroke-width="1" transform="translate(183.33333333333331,78.46666666666667)" ><polyline points="0,0,18.333333333333332,12.466666666666665,18.333333333333332,36.666666666666664,0,24.2,0,0"  /><polyline points="18.333333333333332,12.466666666666665,36.666666666666664,0,36.666666666666664,24.2,18.333333333333332,36.666666666666664,18.333333333333332,12.466666666666665"  /></g><g stroke="#000" stroke-opacity="0.02" fill="#222" fill-opacity="0.028666666666666667" stroke-width="1" transform="translate(0.0,102.66666666666667)" ><polyline points="0,0,18.333333333333332,12.466666666666665,18.333333333333332,36.666666666666664,0,24.2,0,0"  /><polyline points="18.333333333333332,12.466666666666665,36.666666666666664,0,36.666666666666664,24.2,18.333333333333332,36.666666666666664,18.333333333333332,12.466666666666665"  /></g><g stroke="#000" stroke-opacity="0.02" fill="#222" fill-opacity="0.11533333333333334" stroke-width="1" transform="translate(36.666666666666664,102.66666666666667)" ><polyline points="0,0,18.333333333333332,12.466666666666665,18.333333333333332,36.666666666666664,0,24.2,0,0"  /><polyline points="18.333333333333332,12.466666666666665,36.666666666666664,0,36.666666666666664,24.2,18.333333333333332,36.666666666666664,18.333333333333332,12.466666666666665"  /></g><g stroke="#000" stroke-opacity="0.02" fill="#ddd" fill-opacity="0.07200000000000001" stroke-width="1" transform="translate(73.33333333333333,102.66666666666667)" ><polyline points="0,0,18.333333333333332,12.466666666666665,18.333333333333332,36.666666666666664,0,24.2,0,0"  /><polyline points="18.333333333333332,12.466666666666665,36.666666666666664,0,36.666666666666664,24.2,18.333333333333332,36.666666666666664,18.333333333333332,12.466666666666665"  /></g><g stroke="#000" stroke-opacity="0.02" fill="#ddd" fill-opacity="0.05466666666666667" stroke-width="1" transform="translate(110.0,102.66666666666667)" ><polyline points="0,0,18.333333333333332,12.466666666666665,18.333333333333332,36.666666666666664,0,24.2,0,0"  /><polyline points="18.333333333333332,12.466666666666665,36.666666666666664,0,36.666666666666664,24.2,18.333333333333332,36.666666666666664,18.333333333333332,12.466666666666665"  /></g><g stroke="#000" stroke-opacity="0.02" fill="#ddd" fill-opacity="0.02" stroke-width="1" transform="translate(146.66666666666666,102.66666666666667)" ><polyline points="0,0,18.333333333333332,12.466666666666665,18.333333333333332,36.666666666666664,0,24.2,0,0"  /><polyline points="18.333333333333332,12.466666666666665,36.666666666666664,0,36.666666666666664,24.2,18.333333333333332,36.666666666666664,18.333333333333332,12.466666666666665"  /></g><g stroke="#000" stroke-opacity="0.02" fill="#222" fill-opacity="0.11533333333333334" stroke-width="1" transform="translate(183.33333333333331,102.66666666666667)" ><polyline points="0,0,18.333333333333332,12.466666666666665,18.333333333333332,36.666666666666664,0,24.2,0,0"  /><polyline points="18.333333333333332,12.466666666666665,36.666666666666664,0,36.666666666666664,24.2,18.333333333333332,36.666666666666664,18.333333333333332,12.466666666666665"  /></g></svg>